G04 (created by PCBNEW (2013-07-07 BZR 4022)-stable) date 12/06/2018 18:13:56*
%MOIN*%
G04 Gerber Fmt 3.4, Leading zero omitted, Abs format*
%FSLAX34Y34*%
G01*
G70*
G90*
G04 APERTURE LIST*
%ADD10C,0.00590551*%
%ADD11C,0.00393701*%
%ADD12C,0.012*%
%ADD13C,0.018937*%
%ADD14C,0.015*%
%ADD15C,0.00787402*%
%ADD16C,0.005*%
%ADD17C,0.0026*%
%ADD18C,0.004*%
%ADD19C,0.003*%
%ADD20C,0.006*%
%ADD21C,0.002*%
%ADD22C,0.01*%
%ADD23C,0.0039*%
%ADD24C,0.0035*%
%ADD25C,0.0108*%
%ADD26C,0.008*%
G04 APERTURE END LIST*
G54D10*
G54D11*
X24384Y-29393D02*
X24365Y-29431D01*
X24365Y-29487D01*
X24384Y-29543D01*
X24421Y-29581D01*
X24459Y-29599D01*
X24534Y-29618D01*
X24590Y-29618D01*
X24665Y-29599D01*
X24703Y-29581D01*
X24740Y-29543D01*
X24759Y-29487D01*
X24759Y-29449D01*
X24740Y-29393D01*
X24721Y-29374D01*
X24590Y-29374D01*
X24590Y-29449D01*
X24759Y-29206D02*
X24365Y-29206D01*
X24365Y-29056D01*
X24384Y-29018D01*
X24403Y-28999D01*
X24440Y-28981D01*
X24496Y-28981D01*
X24534Y-28999D01*
X24553Y-29018D01*
X24571Y-29056D01*
X24571Y-29206D01*
X24759Y-28812D02*
X24365Y-28812D01*
X24365Y-28550D02*
X24365Y-28475D01*
X24384Y-28437D01*
X24421Y-28400D01*
X24496Y-28381D01*
X24628Y-28381D01*
X24703Y-28400D01*
X24740Y-28437D01*
X24759Y-28475D01*
X24759Y-28550D01*
X24740Y-28587D01*
X24703Y-28625D01*
X24628Y-28643D01*
X24496Y-28643D01*
X24421Y-28625D01*
X24384Y-28587D01*
X24365Y-28550D01*
X24759Y-24984D02*
X24365Y-24984D01*
X24403Y-24815D02*
X24384Y-24796D01*
X24365Y-24759D01*
X24365Y-24665D01*
X24384Y-24628D01*
X24403Y-24609D01*
X24440Y-24590D01*
X24478Y-24590D01*
X24534Y-24609D01*
X24759Y-24834D01*
X24759Y-24590D01*
X24721Y-24196D02*
X24740Y-24215D01*
X24759Y-24271D01*
X24759Y-24309D01*
X24740Y-24365D01*
X24703Y-24403D01*
X24665Y-24421D01*
X24590Y-24440D01*
X24534Y-24440D01*
X24459Y-24421D01*
X24421Y-24403D01*
X24384Y-24365D01*
X24365Y-24309D01*
X24365Y-24271D01*
X24384Y-24215D01*
X24403Y-24196D01*
X23165Y-25162D02*
X23165Y-24918D01*
X23315Y-25049D01*
X23315Y-24993D01*
X23334Y-24956D01*
X23353Y-24937D01*
X23390Y-24918D01*
X23484Y-24918D01*
X23521Y-24937D01*
X23540Y-24956D01*
X23559Y-24993D01*
X23559Y-25106D01*
X23540Y-25143D01*
X23521Y-25162D01*
X23521Y-24749D02*
X23540Y-24731D01*
X23559Y-24749D01*
X23540Y-24768D01*
X23521Y-24749D01*
X23559Y-24749D01*
X23165Y-24600D02*
X23165Y-24356D01*
X23315Y-24487D01*
X23315Y-24431D01*
X23334Y-24393D01*
X23353Y-24375D01*
X23390Y-24356D01*
X23484Y-24356D01*
X23521Y-24375D01*
X23540Y-24393D01*
X23559Y-24431D01*
X23559Y-24543D01*
X23540Y-24581D01*
X23521Y-24600D01*
X23296Y-24225D02*
X23559Y-24131D01*
X23296Y-24037D01*
X23165Y-28856D02*
X23165Y-29043D01*
X23353Y-29062D01*
X23334Y-29043D01*
X23315Y-29006D01*
X23315Y-28912D01*
X23334Y-28874D01*
X23353Y-28856D01*
X23390Y-28837D01*
X23484Y-28837D01*
X23521Y-28856D01*
X23540Y-28874D01*
X23559Y-28912D01*
X23559Y-29006D01*
X23540Y-29043D01*
X23521Y-29062D01*
X23296Y-28706D02*
X23559Y-28612D01*
X23296Y-28518D01*
G54D12*
X23128Y-12228D02*
X23100Y-12190D01*
X23042Y-12076D01*
X23014Y-12000D01*
X22985Y-11885D01*
X22957Y-11695D01*
X22957Y-11542D01*
X22985Y-11352D01*
X23014Y-11238D01*
X23042Y-11161D01*
X23100Y-11047D01*
X23128Y-11009D01*
X23328Y-11885D02*
X23414Y-11923D01*
X23557Y-11923D01*
X23614Y-11885D01*
X23642Y-11847D01*
X23671Y-11771D01*
X23671Y-11695D01*
X23642Y-11619D01*
X23614Y-11580D01*
X23557Y-11542D01*
X23442Y-11504D01*
X23385Y-11466D01*
X23357Y-11428D01*
X23328Y-11352D01*
X23328Y-11276D01*
X23357Y-11200D01*
X23385Y-11161D01*
X23442Y-11123D01*
X23585Y-11123D01*
X23671Y-11161D01*
X23871Y-12228D02*
X23900Y-12190D01*
X23957Y-12076D01*
X23985Y-12000D01*
X24014Y-11885D01*
X24042Y-11695D01*
X24042Y-11542D01*
X24014Y-11352D01*
X23985Y-11238D01*
X23957Y-11161D01*
X23900Y-11047D01*
X23871Y-11009D01*
X24542Y-12228D02*
X24514Y-12190D01*
X24457Y-12076D01*
X24428Y-12000D01*
X24400Y-11885D01*
X24371Y-11695D01*
X24371Y-11542D01*
X24400Y-11352D01*
X24428Y-11238D01*
X24457Y-11161D01*
X24514Y-11047D01*
X24542Y-11009D01*
X24771Y-11619D02*
X25228Y-11619D01*
X25457Y-12228D02*
X25485Y-12190D01*
X25542Y-12076D01*
X25571Y-12000D01*
X25600Y-11885D01*
X25628Y-11695D01*
X25628Y-11542D01*
X25600Y-11352D01*
X25571Y-11238D01*
X25542Y-11161D01*
X25485Y-11047D01*
X25457Y-11009D01*
X21542Y-12228D02*
X21514Y-12190D01*
X21457Y-12076D01*
X21428Y-12000D01*
X21400Y-11885D01*
X21371Y-11695D01*
X21371Y-11542D01*
X21400Y-11352D01*
X21428Y-11238D01*
X21457Y-11161D01*
X21514Y-11047D01*
X21542Y-11009D01*
X21771Y-11619D02*
X22228Y-11619D01*
X22000Y-11923D02*
X22000Y-11314D01*
X22457Y-12228D02*
X22485Y-12190D01*
X22542Y-12076D01*
X22571Y-12000D01*
X22600Y-11885D01*
X22628Y-11695D01*
X22628Y-11542D01*
X22600Y-11352D01*
X22571Y-11238D01*
X22542Y-11161D01*
X22485Y-11047D01*
X22457Y-11009D01*
G54D13*
X15047Y-19800D02*
G75*
G03X15047Y-19800I-447J0D01*
G74*
G01*
X16647Y-35800D02*
G75*
G03X16647Y-35800I-447J0D01*
G74*
G01*
X27647Y-29200D02*
G75*
G03X27647Y-29200I-447J0D01*
G74*
G01*
G54D14*
X13250Y-10600D02*
X13250Y-10550D01*
X31200Y-10850D02*
X13250Y-10850D01*
X13250Y-44450D02*
X31250Y-44450D01*
G54D15*
X26090Y-44191D02*
X26090Y-43718D01*
X26240Y-43718D01*
X26278Y-43741D01*
X26296Y-43763D01*
X26315Y-43808D01*
X26315Y-43876D01*
X26296Y-43921D01*
X26278Y-43943D01*
X26240Y-43966D01*
X26090Y-43966D01*
X26559Y-43718D02*
X26634Y-43718D01*
X26671Y-43741D01*
X26709Y-43786D01*
X26728Y-43876D01*
X26728Y-44033D01*
X26709Y-44123D01*
X26671Y-44168D01*
X26634Y-44191D01*
X26559Y-44191D01*
X26521Y-44168D01*
X26484Y-44123D01*
X26465Y-44033D01*
X26465Y-43876D01*
X26484Y-43786D01*
X26521Y-43741D01*
X26559Y-43718D01*
X26859Y-43718D02*
X26953Y-44191D01*
X27028Y-43853D01*
X27103Y-44191D01*
X27196Y-43718D01*
X27346Y-43943D02*
X27478Y-43943D01*
X27534Y-44191D02*
X27346Y-44191D01*
X27346Y-43718D01*
X27534Y-43718D01*
X27928Y-44191D02*
X27796Y-43966D01*
X27703Y-44191D02*
X27703Y-43718D01*
X27853Y-43718D01*
X27890Y-43741D01*
X27909Y-43763D01*
X27928Y-43808D01*
X27928Y-43876D01*
X27909Y-43921D01*
X27890Y-43943D01*
X27853Y-43966D01*
X27703Y-43966D01*
G54D12*
X14328Y-33361D02*
X14271Y-33323D01*
X14185Y-33323D01*
X14100Y-33361D01*
X14042Y-33438D01*
X14014Y-33514D01*
X13985Y-33666D01*
X13985Y-33780D01*
X14014Y-33933D01*
X14042Y-34009D01*
X14100Y-34085D01*
X14185Y-34123D01*
X14242Y-34123D01*
X14328Y-34085D01*
X14357Y-34047D01*
X14357Y-33780D01*
X14242Y-33780D01*
X14614Y-34123D02*
X14614Y-33323D01*
X14842Y-33323D01*
X14900Y-33361D01*
X14928Y-33400D01*
X14957Y-33476D01*
X14957Y-33590D01*
X14928Y-33666D01*
X14900Y-33704D01*
X14842Y-33742D01*
X14614Y-33742D01*
X15214Y-34123D02*
X15214Y-33323D01*
X15614Y-33323D02*
X15728Y-33323D01*
X15785Y-33361D01*
X15842Y-33438D01*
X15871Y-33590D01*
X15871Y-33857D01*
X15842Y-34009D01*
X15785Y-34085D01*
X15728Y-34123D01*
X15614Y-34123D01*
X15557Y-34085D01*
X15500Y-34009D01*
X15471Y-33857D01*
X15471Y-33590D01*
X15500Y-33438D01*
X15557Y-33361D01*
X15614Y-33323D01*
X16528Y-33590D02*
X16671Y-34123D01*
X16814Y-33590D01*
X17357Y-34123D02*
X17014Y-34123D01*
X17185Y-34123D02*
X17185Y-33323D01*
X17128Y-33438D01*
X17071Y-33514D01*
X17014Y-33552D01*
X17614Y-34047D02*
X17642Y-34085D01*
X17614Y-34123D01*
X17585Y-34085D01*
X17614Y-34047D01*
X17614Y-34123D01*
X18014Y-33323D02*
X18071Y-33323D01*
X18128Y-33361D01*
X18157Y-33400D01*
X18185Y-33476D01*
X18214Y-33628D01*
X18214Y-33819D01*
X18185Y-33971D01*
X18157Y-34047D01*
X18128Y-34085D01*
X18071Y-34123D01*
X18014Y-34123D01*
X17957Y-34085D01*
X17928Y-34047D01*
X17900Y-33971D01*
X17871Y-33819D01*
X17871Y-33628D01*
X17900Y-33476D01*
X17928Y-33400D01*
X17957Y-33361D01*
X18014Y-33323D01*
G54D14*
X23854Y-38950D02*
G75*
G03X23854Y-38950I-79J0D01*
G74*
G01*
G54D15*
X16835Y-43487D02*
X16854Y-43509D01*
X16891Y-43577D01*
X16910Y-43622D01*
X16929Y-43689D01*
X16947Y-43802D01*
X16947Y-43892D01*
X16929Y-44004D01*
X16910Y-44071D01*
X16891Y-44116D01*
X16854Y-44184D01*
X16835Y-44206D01*
X16685Y-43847D02*
X16385Y-43847D01*
X16235Y-43487D02*
X16216Y-43509D01*
X16179Y-43577D01*
X16160Y-43622D01*
X16141Y-43689D01*
X16122Y-43802D01*
X16122Y-43892D01*
X16141Y-44004D01*
X16160Y-44071D01*
X16179Y-44116D01*
X16216Y-44184D01*
X16235Y-44206D01*
X15339Y-43487D02*
X15358Y-43509D01*
X15395Y-43577D01*
X15414Y-43622D01*
X15433Y-43689D01*
X15451Y-43802D01*
X15451Y-43892D01*
X15433Y-44004D01*
X15414Y-44071D01*
X15395Y-44116D01*
X15358Y-44184D01*
X15339Y-44206D01*
X15189Y-43847D02*
X14889Y-43847D01*
X15039Y-43667D02*
X15039Y-44026D01*
X14739Y-43487D02*
X14720Y-43509D01*
X14683Y-43577D01*
X14664Y-43622D01*
X14645Y-43689D01*
X14626Y-43802D01*
X14626Y-43892D01*
X14645Y-44004D01*
X14664Y-44071D01*
X14683Y-44116D01*
X14720Y-44184D01*
X14739Y-44206D01*
X16799Y-40478D02*
X16818Y-40501D01*
X16856Y-40568D01*
X16874Y-40613D01*
X16893Y-40681D01*
X16912Y-40793D01*
X16912Y-40883D01*
X16893Y-40996D01*
X16874Y-41063D01*
X16856Y-41108D01*
X16818Y-41176D01*
X16799Y-41198D01*
X16649Y-40838D02*
X16350Y-40838D01*
X16200Y-40478D02*
X16181Y-40501D01*
X16143Y-40568D01*
X16125Y-40613D01*
X16106Y-40681D01*
X16087Y-40793D01*
X16087Y-40883D01*
X16106Y-40996D01*
X16125Y-41063D01*
X16143Y-41108D01*
X16181Y-41176D01*
X16200Y-41198D01*
X15249Y-40428D02*
X15268Y-40451D01*
X15306Y-40518D01*
X15324Y-40563D01*
X15343Y-40631D01*
X15362Y-40743D01*
X15362Y-40833D01*
X15343Y-40946D01*
X15324Y-41013D01*
X15306Y-41058D01*
X15268Y-41126D01*
X15249Y-41148D01*
X15099Y-40788D02*
X14800Y-40788D01*
X14949Y-40608D02*
X14949Y-40968D01*
X14650Y-40428D02*
X14631Y-40451D01*
X14593Y-40518D01*
X14575Y-40563D01*
X14556Y-40631D01*
X14537Y-40743D01*
X14537Y-40833D01*
X14556Y-40946D01*
X14575Y-41013D01*
X14593Y-41058D01*
X14631Y-41126D01*
X14650Y-41148D01*
X13941Y-43759D02*
X13468Y-43759D01*
X13468Y-43609D01*
X13491Y-43571D01*
X13513Y-43553D01*
X13558Y-43534D01*
X13626Y-43534D01*
X13671Y-43553D01*
X13693Y-43571D01*
X13716Y-43609D01*
X13716Y-43759D01*
X13468Y-43290D02*
X13468Y-43215D01*
X13491Y-43178D01*
X13536Y-43140D01*
X13626Y-43121D01*
X13783Y-43121D01*
X13873Y-43140D01*
X13918Y-43178D01*
X13941Y-43215D01*
X13941Y-43290D01*
X13918Y-43328D01*
X13873Y-43365D01*
X13783Y-43384D01*
X13626Y-43384D01*
X13536Y-43365D01*
X13491Y-43328D01*
X13468Y-43290D01*
X13468Y-42990D02*
X13941Y-42896D01*
X13603Y-42821D01*
X13941Y-42746D01*
X13468Y-42653D01*
X13693Y-42503D02*
X13693Y-42371D01*
X13941Y-42315D02*
X13941Y-42503D01*
X13468Y-42503D01*
X13468Y-42315D01*
X13941Y-41921D02*
X13716Y-42053D01*
X13941Y-42146D02*
X13468Y-42146D01*
X13468Y-41996D01*
X13491Y-41959D01*
X13513Y-41940D01*
X13558Y-41921D01*
X13626Y-41921D01*
X13671Y-41940D01*
X13693Y-41959D01*
X13716Y-41996D01*
X13716Y-42146D01*
G54D12*
X14073Y-17601D02*
X13521Y-17601D01*
X13574Y-17364D02*
X13548Y-17338D01*
X13521Y-17286D01*
X13521Y-17154D01*
X13548Y-17102D01*
X13574Y-17076D01*
X13626Y-17049D01*
X13679Y-17049D01*
X13758Y-17076D01*
X14073Y-17391D01*
X14073Y-17049D01*
X14020Y-16498D02*
X14046Y-16524D01*
X14073Y-16603D01*
X14073Y-16656D01*
X14046Y-16734D01*
X13994Y-16787D01*
X13941Y-16813D01*
X13836Y-16839D01*
X13758Y-16839D01*
X13653Y-16813D01*
X13600Y-16787D01*
X13548Y-16734D01*
X13521Y-16656D01*
X13521Y-16603D01*
X13548Y-16524D01*
X13574Y-16498D01*
X13784Y-15842D02*
X13784Y-15658D01*
X14073Y-15580D02*
X14073Y-15842D01*
X13521Y-15842D01*
X13521Y-15580D01*
X13521Y-15396D02*
X14073Y-15028D01*
X13521Y-15028D02*
X14073Y-15396D01*
X13521Y-14897D02*
X13521Y-14582D01*
X14073Y-14740D02*
X13521Y-14740D01*
X14020Y-14398D02*
X14046Y-14372D01*
X14073Y-14398D01*
X14046Y-14425D01*
X14020Y-14398D01*
X14073Y-14398D01*
G54D14*
X31212Y-10629D02*
X31212Y-44488D01*
X13492Y-44438D02*
X13492Y-10579D01*
G54D16*
X21050Y-21750D02*
X21950Y-21750D01*
X21950Y-21750D02*
X21950Y-21100D01*
X21050Y-20400D02*
X21050Y-19750D01*
X21050Y-19750D02*
X21950Y-19750D01*
X21950Y-19750D02*
X21950Y-20400D01*
X21050Y-21100D02*
X21050Y-21750D01*
X29550Y-41800D02*
X28650Y-41800D01*
X28650Y-41800D02*
X28650Y-42450D01*
X29550Y-43150D02*
X29550Y-43800D01*
X29550Y-43800D02*
X28650Y-43800D01*
X28650Y-43800D02*
X28650Y-43150D01*
X29550Y-42450D02*
X29550Y-41800D01*
G54D17*
X30339Y-42939D02*
X30339Y-42861D01*
X30339Y-42861D02*
X30261Y-42861D01*
X30261Y-42939D02*
X30261Y-42861D01*
X30339Y-42939D02*
X30261Y-42939D01*
X30575Y-42723D02*
X30575Y-42586D01*
X30575Y-42586D02*
X30477Y-42586D01*
X30477Y-42723D02*
X30477Y-42586D01*
X30575Y-42723D02*
X30477Y-42723D01*
X30575Y-42586D02*
X30575Y-42546D01*
X30575Y-42546D02*
X30104Y-42546D01*
X30104Y-42586D02*
X30104Y-42546D01*
X30575Y-42586D02*
X30104Y-42586D01*
X30084Y-42586D02*
X30084Y-42546D01*
X30084Y-42546D02*
X30025Y-42546D01*
X30025Y-42586D02*
X30025Y-42546D01*
X30084Y-42586D02*
X30025Y-42586D01*
X30575Y-43254D02*
X30575Y-43214D01*
X30575Y-43214D02*
X30104Y-43214D01*
X30104Y-43254D02*
X30104Y-43214D01*
X30575Y-43254D02*
X30104Y-43254D01*
X30084Y-43254D02*
X30084Y-43214D01*
X30084Y-43214D02*
X30025Y-43214D01*
X30025Y-43254D02*
X30025Y-43214D01*
X30084Y-43254D02*
X30025Y-43254D01*
X30575Y-42723D02*
X30575Y-42664D01*
X30575Y-42664D02*
X30477Y-42664D01*
X30477Y-42723D02*
X30477Y-42664D01*
X30575Y-42723D02*
X30477Y-42723D01*
G54D18*
X30595Y-42290D02*
X30595Y-43510D01*
X30595Y-43510D02*
X30005Y-43510D01*
X30005Y-43510D02*
X30005Y-42290D01*
X30005Y-42290D02*
X30595Y-42290D01*
X30496Y-43115D02*
G75*
G03X30495Y-42683I-196J215D01*
G74*
G01*
X30103Y-43115D02*
G75*
G03X30495Y-43116I196J215D01*
G74*
G01*
X30103Y-42684D02*
G75*
G03X30104Y-43116I196J-215D01*
G74*
G01*
X30496Y-42684D02*
G75*
G03X30104Y-42683I-196J-215D01*
G74*
G01*
G54D19*
X27125Y-38149D02*
X22165Y-38149D01*
X22165Y-38149D02*
X22165Y-33189D01*
X22165Y-33189D02*
X27125Y-33189D01*
X27125Y-33189D02*
X27125Y-38149D01*
G54D16*
X21994Y-40323D02*
X21994Y-40273D01*
X21994Y-40273D02*
X19894Y-40273D01*
X19894Y-41773D02*
X21994Y-41773D01*
X21994Y-41773D02*
X21994Y-40323D01*
X21994Y-41223D02*
X21794Y-41223D01*
X21794Y-41223D02*
X21794Y-40823D01*
X21794Y-40823D02*
X21994Y-40823D01*
X19894Y-41773D02*
X19894Y-40273D01*
X21275Y-38737D02*
X21375Y-38737D01*
X21375Y-38737D02*
X21375Y-37837D01*
X21375Y-37837D02*
X21275Y-37837D01*
X21275Y-38737D02*
X21275Y-37837D01*
X21275Y-37837D02*
X20625Y-37837D01*
X19925Y-38737D02*
X19275Y-38737D01*
X19275Y-38737D02*
X19275Y-37837D01*
X19275Y-37837D02*
X19925Y-37837D01*
X20625Y-38737D02*
X21275Y-38737D01*
X18053Y-38696D02*
X18953Y-38696D01*
X18953Y-38696D02*
X18953Y-38046D01*
X18053Y-37346D02*
X18053Y-36696D01*
X18053Y-36696D02*
X18953Y-36696D01*
X18953Y-36696D02*
X18953Y-37346D01*
X18053Y-38046D02*
X18053Y-38696D01*
X23507Y-41282D02*
X23507Y-42182D01*
X23507Y-42182D02*
X24157Y-42182D01*
X24857Y-41282D02*
X25507Y-41282D01*
X25507Y-41282D02*
X25507Y-42182D01*
X25507Y-42182D02*
X24857Y-42182D01*
X24157Y-41282D02*
X23507Y-41282D01*
X19275Y-36754D02*
X19275Y-37654D01*
X19275Y-37654D02*
X19925Y-37654D01*
X20625Y-36754D02*
X21275Y-36754D01*
X21275Y-36754D02*
X21275Y-37654D01*
X21275Y-37654D02*
X20625Y-37654D01*
X19925Y-36754D02*
X19275Y-36754D01*
X19996Y-36473D02*
X19996Y-35573D01*
X19996Y-35573D02*
X19346Y-35573D01*
X18646Y-36473D02*
X17996Y-36473D01*
X17996Y-36473D02*
X17996Y-35573D01*
X17996Y-35573D02*
X18646Y-35573D01*
X19346Y-36473D02*
X19996Y-36473D01*
X20850Y-42758D02*
X20850Y-43658D01*
X20850Y-43658D02*
X21500Y-43658D01*
X22200Y-42758D02*
X22850Y-42758D01*
X22850Y-42758D02*
X22850Y-43658D01*
X22850Y-43658D02*
X22200Y-43658D01*
X21500Y-42758D02*
X20850Y-42758D01*
X23507Y-42463D02*
X23507Y-43363D01*
X23507Y-43363D02*
X24157Y-43363D01*
X24857Y-42463D02*
X25507Y-42463D01*
X25507Y-42463D02*
X25507Y-43363D01*
X25507Y-43363D02*
X24857Y-43363D01*
X24157Y-42463D02*
X23507Y-42463D01*
X23300Y-32500D02*
X24200Y-32500D01*
X24200Y-32500D02*
X24200Y-31850D01*
X23300Y-31150D02*
X23300Y-30500D01*
X23300Y-30500D02*
X24200Y-30500D01*
X24200Y-30500D02*
X24200Y-31150D01*
X23300Y-31850D02*
X23300Y-32500D01*
X20900Y-32900D02*
X21800Y-32900D01*
X21800Y-32900D02*
X21800Y-32250D01*
X20900Y-31550D02*
X20900Y-30900D01*
X20900Y-30900D02*
X21800Y-30900D01*
X21800Y-30900D02*
X21800Y-31550D01*
X20900Y-32250D02*
X20900Y-32900D01*
X26650Y-33000D02*
X27550Y-33000D01*
X27550Y-33000D02*
X27550Y-32350D01*
X26650Y-31650D02*
X26650Y-31000D01*
X26650Y-31000D02*
X27550Y-31000D01*
X27550Y-31000D02*
X27550Y-31650D01*
X26650Y-32350D02*
X26650Y-33000D01*
X25050Y-32500D02*
X25950Y-32500D01*
X25950Y-32500D02*
X25950Y-31850D01*
X25050Y-31150D02*
X25050Y-30500D01*
X25050Y-30500D02*
X25950Y-30500D01*
X25950Y-30500D02*
X25950Y-31150D01*
X25050Y-31850D02*
X25050Y-32500D01*
X16675Y-40271D02*
X17575Y-40271D01*
X17575Y-40271D02*
X17575Y-39621D01*
X16675Y-38921D02*
X16675Y-38271D01*
X16675Y-38271D02*
X17575Y-38271D01*
X17575Y-38271D02*
X17575Y-38921D01*
X16675Y-39621D02*
X16675Y-40271D01*
X17602Y-42364D02*
X17602Y-43264D01*
X17602Y-43264D02*
X18252Y-43264D01*
X18952Y-42364D02*
X19602Y-42364D01*
X19602Y-42364D02*
X19602Y-43264D01*
X19602Y-43264D02*
X18952Y-43264D01*
X18252Y-42364D02*
X17602Y-42364D01*
X15494Y-40271D02*
X16394Y-40271D01*
X16394Y-40271D02*
X16394Y-39621D01*
X15494Y-38921D02*
X15494Y-38271D01*
X15494Y-38271D02*
X16394Y-38271D01*
X16394Y-38271D02*
X16394Y-38921D01*
X15494Y-39621D02*
X15494Y-40271D01*
X17602Y-41085D02*
X17602Y-41985D01*
X17602Y-41985D02*
X18252Y-41985D01*
X18952Y-41085D02*
X19602Y-41085D01*
X19602Y-41085D02*
X19602Y-41985D01*
X19602Y-41985D02*
X18952Y-41985D01*
X18252Y-41085D02*
X17602Y-41085D01*
X14215Y-40271D02*
X15115Y-40271D01*
X15115Y-40271D02*
X15115Y-39621D01*
X14215Y-38921D02*
X14215Y-38271D01*
X14215Y-38271D02*
X15115Y-38271D01*
X15115Y-38271D02*
X15115Y-38921D01*
X14215Y-39621D02*
X14215Y-40271D01*
X21750Y-34400D02*
X20850Y-34400D01*
X20850Y-34400D02*
X20850Y-35050D01*
X21750Y-35750D02*
X21750Y-36400D01*
X21750Y-36400D02*
X20850Y-36400D01*
X20850Y-36400D02*
X20850Y-35750D01*
X21750Y-35050D02*
X21750Y-34400D01*
X22325Y-41900D02*
X23225Y-41900D01*
X23225Y-41900D02*
X23225Y-41250D01*
X22325Y-40550D02*
X22325Y-39900D01*
X22325Y-39900D02*
X23225Y-39900D01*
X23225Y-39900D02*
X23225Y-40550D01*
X22325Y-41250D02*
X22325Y-41900D01*
G54D19*
X24960Y-39606D02*
X24960Y-40236D01*
X24409Y-39921D02*
X24960Y-39606D01*
X24409Y-39921D02*
X24960Y-40236D01*
X24409Y-40236D02*
X24409Y-39606D01*
X25590Y-39330D02*
X23858Y-39330D01*
X25590Y-40512D02*
X23858Y-40512D01*
G54D17*
X27639Y-42839D02*
X27639Y-42761D01*
X27639Y-42761D02*
X27561Y-42761D01*
X27561Y-42839D02*
X27561Y-42761D01*
X27639Y-42839D02*
X27561Y-42839D01*
X27875Y-42623D02*
X27875Y-42486D01*
X27875Y-42486D02*
X27777Y-42486D01*
X27777Y-42623D02*
X27777Y-42486D01*
X27875Y-42623D02*
X27777Y-42623D01*
X27875Y-42486D02*
X27875Y-42446D01*
X27875Y-42446D02*
X27404Y-42446D01*
X27404Y-42486D02*
X27404Y-42446D01*
X27875Y-42486D02*
X27404Y-42486D01*
X27384Y-42486D02*
X27384Y-42446D01*
X27384Y-42446D02*
X27325Y-42446D01*
X27325Y-42486D02*
X27325Y-42446D01*
X27384Y-42486D02*
X27325Y-42486D01*
X27875Y-43154D02*
X27875Y-43114D01*
X27875Y-43114D02*
X27404Y-43114D01*
X27404Y-43154D02*
X27404Y-43114D01*
X27875Y-43154D02*
X27404Y-43154D01*
X27384Y-43154D02*
X27384Y-43114D01*
X27384Y-43114D02*
X27325Y-43114D01*
X27325Y-43154D02*
X27325Y-43114D01*
X27384Y-43154D02*
X27325Y-43154D01*
X27875Y-42623D02*
X27875Y-42564D01*
X27875Y-42564D02*
X27777Y-42564D01*
X27777Y-42623D02*
X27777Y-42564D01*
X27875Y-42623D02*
X27777Y-42623D01*
G54D18*
X27895Y-42190D02*
X27895Y-43410D01*
X27895Y-43410D02*
X27305Y-43410D01*
X27305Y-43410D02*
X27305Y-42190D01*
X27305Y-42190D02*
X27895Y-42190D01*
X27796Y-43015D02*
G75*
G03X27795Y-42583I-196J215D01*
G74*
G01*
X27403Y-43015D02*
G75*
G03X27795Y-43016I196J215D01*
G74*
G01*
X27403Y-42584D02*
G75*
G03X27404Y-43016I196J-215D01*
G74*
G01*
X27796Y-42584D02*
G75*
G03X27404Y-42583I-196J-215D01*
G74*
G01*
G54D16*
X26850Y-41700D02*
X25950Y-41700D01*
X25950Y-41700D02*
X25950Y-42350D01*
X26850Y-43050D02*
X26850Y-43700D01*
X26850Y-43700D02*
X25950Y-43700D01*
X25950Y-43700D02*
X25950Y-43050D01*
X26850Y-42350D02*
X26850Y-41700D01*
X30750Y-18250D02*
X30750Y-17350D01*
X30750Y-17350D02*
X30100Y-17350D01*
X29400Y-18250D02*
X28750Y-18250D01*
X28750Y-18250D02*
X28750Y-17350D01*
X28750Y-17350D02*
X29400Y-17350D01*
X30100Y-18250D02*
X30750Y-18250D01*
G54D17*
X17230Y-20100D02*
X17230Y-19900D01*
X17230Y-19900D02*
X16780Y-19900D01*
X16780Y-20100D02*
X16780Y-19900D01*
X17230Y-20100D02*
X16780Y-20100D01*
X19220Y-21600D02*
X19220Y-21400D01*
X19220Y-21400D02*
X18770Y-21400D01*
X18770Y-21600D02*
X18770Y-21400D01*
X19220Y-21600D02*
X18770Y-21600D01*
X19220Y-21100D02*
X19220Y-20900D01*
X19220Y-20900D02*
X18770Y-20900D01*
X18770Y-21100D02*
X18770Y-20900D01*
X19220Y-21100D02*
X18770Y-21100D01*
X19210Y-20600D02*
X19210Y-20400D01*
X19210Y-20400D02*
X18760Y-20400D01*
X18760Y-20600D02*
X18760Y-20400D01*
X19210Y-20600D02*
X18760Y-20600D01*
X19220Y-20100D02*
X19220Y-19900D01*
X19220Y-19900D02*
X18770Y-19900D01*
X18770Y-20100D02*
X18770Y-19900D01*
X19220Y-20100D02*
X18770Y-20100D01*
X17230Y-20600D02*
X17230Y-20400D01*
X17230Y-20400D02*
X16780Y-20400D01*
X16780Y-20600D02*
X16780Y-20400D01*
X17230Y-20600D02*
X16780Y-20600D01*
X17230Y-21100D02*
X17230Y-20900D01*
X17230Y-20900D02*
X16780Y-20900D01*
X16780Y-21100D02*
X16780Y-20900D01*
X17230Y-21100D02*
X16780Y-21100D01*
X17230Y-21600D02*
X17230Y-21400D01*
X17230Y-21400D02*
X16780Y-21400D01*
X16780Y-21600D02*
X16780Y-21400D01*
X17230Y-21600D02*
X16780Y-21600D01*
G54D20*
X17230Y-19900D02*
X17230Y-21600D01*
X18770Y-21600D02*
X18770Y-19900D01*
X18620Y-19750D02*
X17380Y-19750D01*
X17380Y-21750D02*
X17800Y-21750D01*
X17800Y-21750D02*
X18200Y-21750D01*
X18200Y-21750D02*
X18620Y-21750D01*
G54D21*
X18630Y-21750D02*
X18630Y-19750D01*
G54D20*
X18770Y-19900D02*
G75*
G03X18620Y-19750I-150J0D01*
G74*
G01*
X17230Y-21600D02*
G75*
G03X17380Y-21750I150J0D01*
G74*
G01*
X17380Y-19750D02*
G75*
G03X17230Y-19900I0J-150D01*
G74*
G01*
X18620Y-21750D02*
G75*
G03X18770Y-21600I0J150D01*
G74*
G01*
X18200Y-21750D02*
G75*
G03X17800Y-21750I-200J0D01*
G74*
G01*
G54D16*
X23750Y-15450D02*
X23750Y-14550D01*
X23750Y-14550D02*
X23100Y-14550D01*
X22400Y-15450D02*
X21750Y-15450D01*
X21750Y-15450D02*
X21750Y-14550D01*
X21750Y-14550D02*
X22400Y-14550D01*
X23100Y-15450D02*
X23750Y-15450D01*
G54D22*
X20250Y-18250D02*
X20250Y-10400D01*
X20250Y-10400D02*
X14250Y-10400D01*
X14250Y-10400D02*
X14250Y-18250D01*
X14250Y-18250D02*
X20250Y-18250D01*
G54D16*
X20250Y-11150D02*
X14250Y-11150D01*
X14250Y-11150D02*
X14250Y-18250D01*
X14250Y-18250D02*
X20250Y-18250D01*
X20250Y-18250D02*
X20250Y-11150D01*
X16000Y-18550D02*
X16000Y-19450D01*
X16000Y-19450D02*
X16650Y-19450D01*
X17350Y-18550D02*
X18000Y-18550D01*
X18000Y-18550D02*
X18000Y-19450D01*
X18000Y-19450D02*
X17350Y-19450D01*
X16650Y-18550D02*
X16000Y-18550D01*
G54D12*
X30600Y-21600D02*
X30600Y-41600D01*
X28600Y-21600D02*
X28600Y-41600D01*
X28600Y-21600D02*
X30600Y-21600D01*
X28600Y-41600D02*
X30600Y-41600D01*
G54D19*
X26000Y-13850D02*
X20950Y-13850D01*
X26000Y-10350D02*
X20950Y-10350D01*
X20950Y-13850D02*
X20950Y-10350D01*
G54D23*
X26000Y-13850D02*
X26000Y-10350D01*
G54D22*
X27300Y-13850D02*
X27300Y-10300D01*
X30700Y-13850D02*
X30700Y-10300D01*
X30650Y-10300D02*
X27300Y-10300D01*
X27300Y-13850D02*
X30650Y-13850D01*
G54D20*
X25000Y-28250D02*
X24000Y-28250D01*
X24000Y-28250D02*
X24000Y-25250D01*
X24000Y-25250D02*
X25000Y-25250D01*
X25000Y-25250D02*
X25000Y-28250D01*
X24000Y-27250D02*
X25000Y-27250D01*
X24000Y-28250D02*
X23000Y-28250D01*
X23000Y-28250D02*
X23000Y-25250D01*
X23000Y-25250D02*
X24000Y-25250D01*
X24000Y-25250D02*
X24000Y-28250D01*
X23000Y-27250D02*
X24000Y-27250D01*
G54D12*
X27841Y-16700D02*
G75*
G03X27841Y-16700I-141J0D01*
G74*
G01*
X26000Y-15500D02*
X25000Y-15500D01*
X26000Y-16500D02*
X25000Y-16500D01*
X29000Y-15250D02*
X28000Y-15250D01*
X29000Y-16750D02*
X28000Y-16750D01*
X28000Y-17000D02*
X26000Y-17000D01*
X26000Y-17000D02*
X26000Y-15000D01*
X26000Y-15000D02*
X28000Y-15000D01*
X28000Y-15000D02*
X28000Y-17000D01*
G54D22*
X17450Y-41150D02*
X17450Y-44700D01*
X14050Y-41150D02*
X14050Y-44700D01*
X14100Y-44700D02*
X17450Y-44700D01*
X17450Y-41150D02*
X14100Y-41150D01*
G54D12*
X29250Y-21000D02*
X30750Y-19500D01*
X30750Y-19500D02*
X30750Y-19000D01*
X30750Y-19000D02*
X30250Y-18500D01*
X30250Y-18500D02*
X29250Y-18500D01*
X29250Y-18500D02*
X28250Y-19500D01*
X28250Y-19500D02*
X28250Y-20500D01*
X28250Y-20500D02*
X28750Y-21000D01*
X28750Y-21000D02*
X29250Y-21000D01*
G54D10*
X15600Y-14250D02*
G75*
G03X15600Y-14250I-688J0D01*
G74*
G01*
X20273Y-14250D02*
G75*
G03X20273Y-14250I-688J0D01*
G74*
G01*
X18734Y-16484D02*
X18734Y-17015D01*
X19265Y-17015D01*
X19265Y-16484D01*
X18734Y-16484D01*
X18765Y-17750D02*
G75*
G03X18765Y-17750I-265J0D01*
G74*
G01*
X18265Y-16750D02*
G75*
G03X18265Y-16750I-265J0D01*
G74*
G01*
X17765Y-17750D02*
G75*
G03X17765Y-17750I-265J0D01*
G74*
G01*
X17265Y-16750D02*
G75*
G03X17265Y-16750I-265J0D01*
G74*
G01*
X16765Y-17750D02*
G75*
G03X16765Y-17750I-265J0D01*
G74*
G01*
X16265Y-16750D02*
G75*
G03X16265Y-16750I-265J0D01*
G74*
G01*
X15765Y-17750D02*
G75*
G03X15765Y-17750I-265J0D01*
G74*
G01*
X20614Y-12250D02*
G75*
G03X20614Y-12250I-364J0D01*
G74*
G01*
X14614Y-12250D02*
G75*
G03X14614Y-12250I-364J0D01*
G74*
G01*
X29829Y-40829D02*
X29829Y-41370D01*
X30370Y-41370D01*
X30370Y-40829D01*
X29829Y-40829D01*
X29370Y-41100D02*
G75*
G03X29370Y-41100I-270J0D01*
G74*
G01*
X30370Y-36100D02*
G75*
G03X30370Y-36100I-270J0D01*
G74*
G01*
X29370Y-40100D02*
G75*
G03X29370Y-40100I-270J0D01*
G74*
G01*
X30370Y-35100D02*
G75*
G03X30370Y-35100I-270J0D01*
G74*
G01*
X29370Y-39100D02*
G75*
G03X29370Y-39100I-270J0D01*
G74*
G01*
X30370Y-34100D02*
G75*
G03X30370Y-34100I-270J0D01*
G74*
G01*
X29370Y-38100D02*
G75*
G03X29370Y-38100I-270J0D01*
G74*
G01*
X30370Y-33100D02*
G75*
G03X30370Y-33100I-270J0D01*
G74*
G01*
X29370Y-37100D02*
G75*
G03X29370Y-37100I-270J0D01*
G74*
G01*
X30370Y-32100D02*
G75*
G03X30370Y-32100I-270J0D01*
G74*
G01*
X29370Y-36100D02*
G75*
G03X29370Y-36100I-270J0D01*
G74*
G01*
X30370Y-31100D02*
G75*
G03X30370Y-31100I-270J0D01*
G74*
G01*
X29370Y-35100D02*
G75*
G03X29370Y-35100I-270J0D01*
G74*
G01*
X30370Y-30100D02*
G75*
G03X30370Y-30100I-270J0D01*
G74*
G01*
X29370Y-34100D02*
G75*
G03X29370Y-34100I-270J0D01*
G74*
G01*
X30370Y-29100D02*
G75*
G03X30370Y-29100I-270J0D01*
G74*
G01*
X29370Y-33100D02*
G75*
G03X29370Y-33100I-270J0D01*
G74*
G01*
X30370Y-28100D02*
G75*
G03X30370Y-28100I-270J0D01*
G74*
G01*
X29370Y-32100D02*
G75*
G03X29370Y-32100I-270J0D01*
G74*
G01*
X30370Y-27100D02*
G75*
G03X30370Y-27100I-270J0D01*
G74*
G01*
X29370Y-31100D02*
G75*
G03X29370Y-31100I-270J0D01*
G74*
G01*
X30370Y-26100D02*
G75*
G03X30370Y-26100I-270J0D01*
G74*
G01*
X29370Y-30100D02*
G75*
G03X29370Y-30100I-270J0D01*
G74*
G01*
X29370Y-29100D02*
G75*
G03X29370Y-29100I-270J0D01*
G74*
G01*
X30370Y-25100D02*
G75*
G03X30370Y-25100I-270J0D01*
G74*
G01*
X29370Y-28100D02*
G75*
G03X29370Y-28100I-270J0D01*
G74*
G01*
X29370Y-26100D02*
G75*
G03X29370Y-26100I-270J0D01*
G74*
G01*
X29370Y-25100D02*
G75*
G03X29370Y-25100I-270J0D01*
G74*
G01*
X29370Y-24100D02*
G75*
G03X29370Y-24100I-270J0D01*
G74*
G01*
X29370Y-23100D02*
G75*
G03X29370Y-23100I-270J0D01*
G74*
G01*
X30370Y-24100D02*
G75*
G03X30370Y-24100I-270J0D01*
G74*
G01*
X30370Y-23100D02*
G75*
G03X30370Y-23100I-270J0D01*
G74*
G01*
X30370Y-40100D02*
G75*
G03X30370Y-40100I-270J0D01*
G74*
G01*
X30370Y-39100D02*
G75*
G03X30370Y-39100I-270J0D01*
G74*
G01*
X30370Y-38100D02*
G75*
G03X30370Y-38100I-270J0D01*
G74*
G01*
X30370Y-37100D02*
G75*
G03X30370Y-37100I-270J0D01*
G74*
G01*
X30370Y-22100D02*
G75*
G03X30370Y-22100I-270J0D01*
G74*
G01*
X29370Y-22100D02*
G75*
G03X29370Y-22100I-270J0D01*
G74*
G01*
X29370Y-27100D02*
G75*
G03X29370Y-27100I-270J0D01*
G74*
G01*
X25360Y-13640D02*
X25360Y-12860D01*
X24639Y-13640D02*
X24639Y-12860D01*
X25360Y-12860D02*
G75*
G03X24639Y-12860I-360J0D01*
G74*
G01*
X24639Y-13640D02*
G75*
G03X25360Y-13640I360J0D01*
G74*
G01*
X23844Y-13640D02*
X23844Y-12860D01*
X23123Y-13640D02*
X23123Y-12860D01*
X23844Y-12860D02*
G75*
G03X23123Y-12860I-360J0D01*
G74*
G01*
X23123Y-13640D02*
G75*
G03X23844Y-13640I360J0D01*
G74*
G01*
X22328Y-13640D02*
X22328Y-12860D01*
X21608Y-13640D02*
X21608Y-12860D01*
X22328Y-12860D02*
G75*
G03X21608Y-12860I-360J0D01*
G74*
G01*
X21608Y-13640D02*
G75*
G03X22328Y-13640I360J0D01*
G74*
G01*
X30110Y-13640D02*
X30110Y-12860D01*
X29389Y-13640D02*
X29389Y-12860D01*
X30110Y-12860D02*
G75*
G03X29389Y-12860I-360J0D01*
G74*
G01*
X29389Y-13640D02*
G75*
G03X30110Y-13640I360J0D01*
G74*
G01*
X28594Y-13640D02*
X28594Y-12860D01*
X27873Y-13640D02*
X27873Y-12860D01*
X28594Y-12860D02*
G75*
G03X27873Y-12860I-360J0D01*
G74*
G01*
X27873Y-13640D02*
G75*
G03X28594Y-13640I360J0D01*
G74*
G01*
X24229Y-27479D02*
X24229Y-28020D01*
X24770Y-28020D01*
X24770Y-27479D01*
X24229Y-27479D01*
X24770Y-26750D02*
G75*
G03X24770Y-26750I-270J0D01*
G74*
G01*
X24770Y-25750D02*
G75*
G03X24770Y-25750I-270J0D01*
G74*
G01*
X23229Y-27479D02*
X23229Y-28020D01*
X23770Y-28020D01*
X23770Y-27479D01*
X23229Y-27479D01*
X23770Y-26750D02*
G75*
G03X23770Y-26750I-270J0D01*
G74*
G01*
X23770Y-25750D02*
G75*
G03X23770Y-25750I-270J0D01*
G74*
G01*
X28579Y-14969D02*
X28579Y-15530D01*
X29420Y-15530D01*
X29420Y-14969D01*
X28579Y-14969D01*
X29140Y-16469D02*
X28860Y-16469D01*
X29140Y-17030D02*
X28860Y-17030D01*
X28860Y-16469D02*
G75*
G03X28860Y-17030I0J-280D01*
G74*
G01*
X29140Y-17030D02*
G75*
G03X29140Y-16469I0J280D01*
G74*
G01*
X25140Y-16219D02*
X24860Y-16219D01*
X25140Y-16780D02*
X24860Y-16780D01*
X24860Y-16219D02*
G75*
G03X24860Y-16780I0J-280D01*
G74*
G01*
X25140Y-16780D02*
G75*
G03X25140Y-16219I0J280D01*
G74*
G01*
X25140Y-15219D02*
X24860Y-15219D01*
X25140Y-15780D02*
X24860Y-15780D01*
X24860Y-15219D02*
G75*
G03X24860Y-15780I0J-280D01*
G74*
G01*
X25140Y-15780D02*
G75*
G03X25140Y-15219I0J280D01*
G74*
G01*
X14639Y-41360D02*
X14639Y-42140D01*
X15360Y-41360D02*
X15360Y-42140D01*
X14639Y-42140D02*
G75*
G03X15360Y-42140I360J0D01*
G74*
G01*
X15360Y-41360D02*
G75*
G03X14639Y-41360I-360J0D01*
G74*
G01*
X16155Y-41360D02*
X16155Y-42140D01*
X16876Y-41360D02*
X16876Y-42140D01*
X16155Y-42140D02*
G75*
G03X16876Y-42140I360J0D01*
G74*
G01*
X16876Y-41360D02*
G75*
G03X16155Y-41360I-360J0D01*
G74*
G01*
X30004Y-19254D02*
X30004Y-19745D01*
X30495Y-19745D01*
X30495Y-19254D01*
X30004Y-19254D01*
X29495Y-19500D02*
G75*
G03X29495Y-19500I-245J0D01*
G74*
G01*
X29495Y-20500D02*
G75*
G03X29495Y-20500I-245J0D01*
G74*
G01*
G54D16*
X20921Y-21135D02*
X20778Y-21235D01*
X20921Y-21307D02*
X20621Y-21307D01*
X20621Y-21192D01*
X20635Y-21164D01*
X20650Y-21150D01*
X20678Y-21135D01*
X20721Y-21135D01*
X20750Y-21150D01*
X20764Y-21164D01*
X20778Y-21192D01*
X20778Y-21307D01*
X20921Y-20850D02*
X20921Y-21021D01*
X20921Y-20935D02*
X20621Y-20935D01*
X20664Y-20964D01*
X20692Y-20992D01*
X20707Y-21021D01*
X20621Y-20664D02*
X20621Y-20635D01*
X20635Y-20607D01*
X20650Y-20592D01*
X20678Y-20578D01*
X20735Y-20564D01*
X20807Y-20564D01*
X20864Y-20578D01*
X20892Y-20592D01*
X20907Y-20607D01*
X20921Y-20635D01*
X20921Y-20664D01*
X20907Y-20692D01*
X20892Y-20707D01*
X20864Y-20721D01*
X20807Y-20735D01*
X20735Y-20735D01*
X20678Y-20721D01*
X20650Y-20707D01*
X20635Y-20692D01*
X20621Y-20664D01*
X20621Y-20307D02*
X20621Y-20364D01*
X20635Y-20392D01*
X20650Y-20407D01*
X20692Y-20435D01*
X20750Y-20450D01*
X20864Y-20450D01*
X20892Y-20435D01*
X20907Y-20421D01*
X20921Y-20392D01*
X20921Y-20335D01*
X20907Y-20307D01*
X20892Y-20292D01*
X20864Y-20278D01*
X20792Y-20278D01*
X20764Y-20292D01*
X20750Y-20307D01*
X20735Y-20335D01*
X20735Y-20392D01*
X20750Y-20421D01*
X20764Y-20435D01*
X20792Y-20450D01*
X28521Y-43285D02*
X28378Y-43385D01*
X28521Y-43457D02*
X28221Y-43457D01*
X28221Y-43342D01*
X28235Y-43314D01*
X28250Y-43300D01*
X28278Y-43285D01*
X28321Y-43285D01*
X28350Y-43300D01*
X28364Y-43314D01*
X28378Y-43342D01*
X28378Y-43457D01*
X28521Y-43000D02*
X28521Y-43171D01*
X28521Y-43085D02*
X28221Y-43085D01*
X28264Y-43114D01*
X28292Y-43142D01*
X28307Y-43171D01*
X28221Y-42814D02*
X28221Y-42785D01*
X28235Y-42757D01*
X28250Y-42742D01*
X28278Y-42728D01*
X28335Y-42714D01*
X28407Y-42714D01*
X28464Y-42728D01*
X28492Y-42742D01*
X28507Y-42757D01*
X28521Y-42785D01*
X28521Y-42814D01*
X28507Y-42842D01*
X28492Y-42857D01*
X28464Y-42871D01*
X28407Y-42885D01*
X28335Y-42885D01*
X28278Y-42871D01*
X28250Y-42857D01*
X28235Y-42842D01*
X28221Y-42814D01*
X28250Y-42600D02*
X28235Y-42585D01*
X28221Y-42557D01*
X28221Y-42485D01*
X28235Y-42457D01*
X28250Y-42442D01*
X28278Y-42428D01*
X28307Y-42428D01*
X28350Y-42442D01*
X28521Y-42614D01*
X28521Y-42428D01*
G54D24*
X31071Y-43357D02*
X30771Y-43357D01*
X30771Y-43285D01*
X30785Y-43242D01*
X30814Y-43214D01*
X30842Y-43200D01*
X30900Y-43185D01*
X30942Y-43185D01*
X31000Y-43200D01*
X31028Y-43214D01*
X31057Y-43242D01*
X31071Y-43285D01*
X31071Y-43357D01*
X31071Y-42900D02*
X31071Y-43071D01*
X31071Y-42985D02*
X30771Y-42985D01*
X30814Y-43014D01*
X30842Y-43042D01*
X30857Y-43071D01*
X30771Y-42714D02*
X30771Y-42685D01*
X30785Y-42657D01*
X30800Y-42642D01*
X30828Y-42628D01*
X30885Y-42614D01*
X30957Y-42614D01*
X31014Y-42628D01*
X31042Y-42642D01*
X31057Y-42657D01*
X31071Y-42685D01*
X31071Y-42714D01*
X31057Y-42742D01*
X31042Y-42757D01*
X31014Y-42771D01*
X30957Y-42785D01*
X30885Y-42785D01*
X30828Y-42771D01*
X30800Y-42757D01*
X30785Y-42742D01*
X30771Y-42714D01*
X31071Y-42328D02*
X31071Y-42500D01*
X31071Y-42414D02*
X30771Y-42414D01*
X30814Y-42442D01*
X30842Y-42471D01*
X30857Y-42500D01*
G54D16*
X26164Y-33071D02*
X26021Y-33071D01*
X26021Y-32771D01*
X26235Y-32771D02*
X26421Y-32771D01*
X26321Y-32885D01*
X26364Y-32885D01*
X26392Y-32900D01*
X26407Y-32914D01*
X26421Y-32942D01*
X26421Y-33014D01*
X26407Y-33042D01*
X26392Y-33057D01*
X26364Y-33071D01*
X26278Y-33071D01*
X26250Y-33057D01*
X26235Y-33042D01*
X26607Y-32771D02*
X26635Y-32771D01*
X26664Y-32785D01*
X26678Y-32800D01*
X26692Y-32828D01*
X26707Y-32885D01*
X26707Y-32957D01*
X26692Y-33014D01*
X26678Y-33042D01*
X26664Y-33057D01*
X26635Y-33071D01*
X26607Y-33071D01*
X26578Y-33057D01*
X26564Y-33042D01*
X26550Y-33014D01*
X26535Y-32957D01*
X26535Y-32885D01*
X26550Y-32828D01*
X26564Y-32800D01*
X26578Y-32785D01*
X26607Y-32771D01*
X26992Y-33071D02*
X26821Y-33071D01*
X26907Y-33071D02*
X26907Y-32771D01*
X26878Y-32814D01*
X26850Y-32842D01*
X26821Y-32857D01*
G54D20*
X20128Y-41082D02*
X20128Y-41446D01*
X20150Y-41489D01*
X20171Y-41510D01*
X20214Y-41532D01*
X20300Y-41532D01*
X20342Y-41510D01*
X20364Y-41489D01*
X20385Y-41446D01*
X20385Y-41082D01*
X20557Y-41082D02*
X20835Y-41082D01*
X20685Y-41253D01*
X20750Y-41253D01*
X20792Y-41275D01*
X20814Y-41296D01*
X20835Y-41339D01*
X20835Y-41446D01*
X20814Y-41489D01*
X20792Y-41510D01*
X20750Y-41532D01*
X20621Y-41532D01*
X20578Y-41510D01*
X20557Y-41489D01*
X21114Y-41082D02*
X21157Y-41082D01*
X21200Y-41103D01*
X21221Y-41125D01*
X21242Y-41167D01*
X21264Y-41253D01*
X21264Y-41360D01*
X21242Y-41446D01*
X21221Y-41489D01*
X21200Y-41510D01*
X21157Y-41532D01*
X21114Y-41532D01*
X21071Y-41510D01*
X21050Y-41489D01*
X21028Y-41446D01*
X21007Y-41360D01*
X21007Y-41253D01*
X21028Y-41167D01*
X21050Y-41125D01*
X21071Y-41103D01*
X21114Y-41082D01*
X21435Y-41125D02*
X21457Y-41103D01*
X21500Y-41082D01*
X21607Y-41082D01*
X21650Y-41103D01*
X21671Y-41125D01*
X21692Y-41167D01*
X21692Y-41210D01*
X21671Y-41275D01*
X21414Y-41532D01*
X21692Y-41532D01*
G54D16*
X21892Y-38885D02*
X21907Y-38900D01*
X21921Y-38942D01*
X21921Y-38971D01*
X21907Y-39014D01*
X21878Y-39042D01*
X21850Y-39057D01*
X21792Y-39071D01*
X21750Y-39071D01*
X21692Y-39057D01*
X21664Y-39042D01*
X21635Y-39014D01*
X21621Y-38971D01*
X21621Y-38942D01*
X21635Y-38900D01*
X21650Y-38885D01*
X21621Y-38785D02*
X21621Y-38600D01*
X21735Y-38700D01*
X21735Y-38657D01*
X21750Y-38628D01*
X21764Y-38614D01*
X21792Y-38600D01*
X21864Y-38600D01*
X21892Y-38614D01*
X21907Y-38628D01*
X21921Y-38657D01*
X21921Y-38742D01*
X21907Y-38771D01*
X21892Y-38785D01*
X21621Y-38414D02*
X21621Y-38385D01*
X21635Y-38357D01*
X21650Y-38342D01*
X21678Y-38328D01*
X21735Y-38314D01*
X21807Y-38314D01*
X21864Y-38328D01*
X21892Y-38342D01*
X21907Y-38357D01*
X21921Y-38385D01*
X21921Y-38414D01*
X21907Y-38442D01*
X21892Y-38457D01*
X21864Y-38471D01*
X21807Y-38485D01*
X21735Y-38485D01*
X21678Y-38471D01*
X21650Y-38457D01*
X21635Y-38442D01*
X21621Y-38414D01*
X21650Y-38200D02*
X21635Y-38185D01*
X21621Y-38157D01*
X21621Y-38085D01*
X21635Y-38057D01*
X21650Y-38042D01*
X21678Y-38028D01*
X21707Y-38028D01*
X21750Y-38042D01*
X21921Y-38214D01*
X21921Y-38028D01*
X17771Y-37835D02*
X17628Y-37935D01*
X17771Y-38007D02*
X17471Y-38007D01*
X17471Y-37892D01*
X17485Y-37864D01*
X17500Y-37850D01*
X17528Y-37835D01*
X17571Y-37835D01*
X17600Y-37850D01*
X17614Y-37864D01*
X17628Y-37892D01*
X17628Y-38007D01*
X17471Y-37735D02*
X17471Y-37550D01*
X17585Y-37650D01*
X17585Y-37607D01*
X17600Y-37578D01*
X17614Y-37564D01*
X17642Y-37550D01*
X17714Y-37550D01*
X17742Y-37564D01*
X17757Y-37578D01*
X17771Y-37607D01*
X17771Y-37692D01*
X17757Y-37721D01*
X17742Y-37735D01*
X17471Y-37364D02*
X17471Y-37335D01*
X17485Y-37307D01*
X17500Y-37292D01*
X17528Y-37278D01*
X17585Y-37264D01*
X17657Y-37264D01*
X17714Y-37278D01*
X17742Y-37292D01*
X17757Y-37307D01*
X17771Y-37335D01*
X17771Y-37364D01*
X17757Y-37392D01*
X17742Y-37407D01*
X17714Y-37421D01*
X17657Y-37435D01*
X17585Y-37435D01*
X17528Y-37421D01*
X17500Y-37407D01*
X17485Y-37392D01*
X17471Y-37364D01*
X17571Y-37007D02*
X17771Y-37007D01*
X17457Y-37078D02*
X17671Y-37150D01*
X17671Y-36964D01*
X24114Y-41171D02*
X24014Y-41028D01*
X23942Y-41171D02*
X23942Y-40871D01*
X24057Y-40871D01*
X24085Y-40885D01*
X24100Y-40900D01*
X24114Y-40928D01*
X24114Y-40971D01*
X24100Y-41000D01*
X24085Y-41014D01*
X24057Y-41028D01*
X23942Y-41028D01*
X24214Y-40871D02*
X24400Y-40871D01*
X24300Y-40985D01*
X24342Y-40985D01*
X24371Y-41000D01*
X24385Y-41014D01*
X24400Y-41042D01*
X24400Y-41114D01*
X24385Y-41142D01*
X24371Y-41157D01*
X24342Y-41171D01*
X24257Y-41171D01*
X24228Y-41157D01*
X24214Y-41142D01*
X24585Y-40871D02*
X24614Y-40871D01*
X24642Y-40885D01*
X24657Y-40900D01*
X24671Y-40928D01*
X24685Y-40985D01*
X24685Y-41057D01*
X24671Y-41114D01*
X24657Y-41142D01*
X24642Y-41157D01*
X24614Y-41171D01*
X24585Y-41171D01*
X24557Y-41157D01*
X24542Y-41142D01*
X24528Y-41114D01*
X24514Y-41057D01*
X24514Y-40985D01*
X24528Y-40928D01*
X24542Y-40900D01*
X24557Y-40885D01*
X24585Y-40871D01*
X24785Y-40871D02*
X24971Y-40871D01*
X24871Y-40985D01*
X24914Y-40985D01*
X24942Y-41000D01*
X24957Y-41014D01*
X24971Y-41042D01*
X24971Y-41114D01*
X24957Y-41142D01*
X24942Y-41157D01*
X24914Y-41171D01*
X24828Y-41171D01*
X24800Y-41157D01*
X24785Y-41142D01*
X21921Y-37585D02*
X21778Y-37685D01*
X21921Y-37757D02*
X21621Y-37757D01*
X21621Y-37642D01*
X21635Y-37614D01*
X21650Y-37600D01*
X21678Y-37585D01*
X21721Y-37585D01*
X21750Y-37600D01*
X21764Y-37614D01*
X21778Y-37642D01*
X21778Y-37757D01*
X21621Y-37485D02*
X21621Y-37300D01*
X21735Y-37400D01*
X21735Y-37357D01*
X21750Y-37328D01*
X21764Y-37314D01*
X21792Y-37300D01*
X21864Y-37300D01*
X21892Y-37314D01*
X21907Y-37328D01*
X21921Y-37357D01*
X21921Y-37442D01*
X21907Y-37471D01*
X21892Y-37485D01*
X21621Y-37114D02*
X21621Y-37085D01*
X21635Y-37057D01*
X21650Y-37042D01*
X21678Y-37028D01*
X21735Y-37014D01*
X21807Y-37014D01*
X21864Y-37028D01*
X21892Y-37042D01*
X21907Y-37057D01*
X21921Y-37085D01*
X21921Y-37114D01*
X21907Y-37142D01*
X21892Y-37157D01*
X21864Y-37171D01*
X21807Y-37185D01*
X21735Y-37185D01*
X21678Y-37171D01*
X21650Y-37157D01*
X21635Y-37142D01*
X21621Y-37114D01*
X21621Y-36757D02*
X21621Y-36814D01*
X21635Y-36842D01*
X21650Y-36857D01*
X21692Y-36885D01*
X21750Y-36900D01*
X21864Y-36900D01*
X21892Y-36885D01*
X21907Y-36871D01*
X21921Y-36842D01*
X21921Y-36785D01*
X21907Y-36757D01*
X21892Y-36742D01*
X21864Y-36728D01*
X21792Y-36728D01*
X21764Y-36742D01*
X21750Y-36757D01*
X21735Y-36785D01*
X21735Y-36842D01*
X21750Y-36871D01*
X21764Y-36885D01*
X21792Y-36900D01*
X18614Y-35321D02*
X18514Y-35178D01*
X18442Y-35321D02*
X18442Y-35021D01*
X18557Y-35021D01*
X18585Y-35035D01*
X18600Y-35050D01*
X18614Y-35078D01*
X18614Y-35121D01*
X18600Y-35150D01*
X18585Y-35164D01*
X18557Y-35178D01*
X18442Y-35178D01*
X18714Y-35021D02*
X18900Y-35021D01*
X18800Y-35135D01*
X18842Y-35135D01*
X18871Y-35150D01*
X18885Y-35164D01*
X18900Y-35192D01*
X18900Y-35264D01*
X18885Y-35292D01*
X18871Y-35307D01*
X18842Y-35321D01*
X18757Y-35321D01*
X18728Y-35307D01*
X18714Y-35292D01*
X19085Y-35021D02*
X19114Y-35021D01*
X19142Y-35035D01*
X19157Y-35050D01*
X19171Y-35078D01*
X19185Y-35135D01*
X19185Y-35207D01*
X19171Y-35264D01*
X19157Y-35292D01*
X19142Y-35307D01*
X19114Y-35321D01*
X19085Y-35321D01*
X19057Y-35307D01*
X19042Y-35292D01*
X19028Y-35264D01*
X19014Y-35207D01*
X19014Y-35135D01*
X19028Y-35078D01*
X19042Y-35050D01*
X19057Y-35035D01*
X19085Y-35021D01*
X19457Y-35021D02*
X19314Y-35021D01*
X19300Y-35164D01*
X19314Y-35150D01*
X19342Y-35135D01*
X19414Y-35135D01*
X19442Y-35150D01*
X19457Y-35164D01*
X19471Y-35192D01*
X19471Y-35264D01*
X19457Y-35292D01*
X19442Y-35307D01*
X19414Y-35321D01*
X19342Y-35321D01*
X19314Y-35307D01*
X19300Y-35292D01*
X21464Y-44071D02*
X21364Y-43928D01*
X21292Y-44071D02*
X21292Y-43771D01*
X21407Y-43771D01*
X21435Y-43785D01*
X21450Y-43800D01*
X21464Y-43828D01*
X21464Y-43871D01*
X21450Y-43900D01*
X21435Y-43914D01*
X21407Y-43928D01*
X21292Y-43928D01*
X21564Y-43771D02*
X21750Y-43771D01*
X21650Y-43885D01*
X21692Y-43885D01*
X21721Y-43900D01*
X21735Y-43914D01*
X21750Y-43942D01*
X21750Y-44014D01*
X21735Y-44042D01*
X21721Y-44057D01*
X21692Y-44071D01*
X21607Y-44071D01*
X21578Y-44057D01*
X21564Y-44042D01*
X21935Y-43771D02*
X21964Y-43771D01*
X21992Y-43785D01*
X22007Y-43800D01*
X22021Y-43828D01*
X22035Y-43885D01*
X22035Y-43957D01*
X22021Y-44014D01*
X22007Y-44042D01*
X21992Y-44057D01*
X21964Y-44071D01*
X21935Y-44071D01*
X21907Y-44057D01*
X21892Y-44042D01*
X21878Y-44014D01*
X21864Y-43957D01*
X21864Y-43885D01*
X21878Y-43828D01*
X21892Y-43800D01*
X21907Y-43785D01*
X21935Y-43771D01*
X22150Y-43800D02*
X22164Y-43785D01*
X22192Y-43771D01*
X22264Y-43771D01*
X22292Y-43785D01*
X22307Y-43800D01*
X22321Y-43828D01*
X22321Y-43857D01*
X22307Y-43900D01*
X22135Y-44071D01*
X22321Y-44071D01*
X24164Y-43821D02*
X24064Y-43678D01*
X23992Y-43821D02*
X23992Y-43521D01*
X24107Y-43521D01*
X24135Y-43535D01*
X24150Y-43550D01*
X24164Y-43578D01*
X24164Y-43621D01*
X24150Y-43650D01*
X24135Y-43664D01*
X24107Y-43678D01*
X23992Y-43678D01*
X24264Y-43521D02*
X24450Y-43521D01*
X24350Y-43635D01*
X24392Y-43635D01*
X24421Y-43650D01*
X24435Y-43664D01*
X24450Y-43692D01*
X24450Y-43764D01*
X24435Y-43792D01*
X24421Y-43807D01*
X24392Y-43821D01*
X24307Y-43821D01*
X24278Y-43807D01*
X24264Y-43792D01*
X24635Y-43521D02*
X24664Y-43521D01*
X24692Y-43535D01*
X24707Y-43550D01*
X24721Y-43578D01*
X24735Y-43635D01*
X24735Y-43707D01*
X24721Y-43764D01*
X24707Y-43792D01*
X24692Y-43807D01*
X24664Y-43821D01*
X24635Y-43821D01*
X24607Y-43807D01*
X24592Y-43792D01*
X24578Y-43764D01*
X24564Y-43707D01*
X24564Y-43635D01*
X24578Y-43578D01*
X24592Y-43550D01*
X24607Y-43535D01*
X24635Y-43521D01*
X25021Y-43821D02*
X24850Y-43821D01*
X24935Y-43821D02*
X24935Y-43521D01*
X24907Y-43564D01*
X24878Y-43592D01*
X24850Y-43607D01*
X23142Y-31785D02*
X23157Y-31800D01*
X23171Y-31842D01*
X23171Y-31871D01*
X23157Y-31914D01*
X23128Y-31942D01*
X23100Y-31957D01*
X23042Y-31971D01*
X23000Y-31971D01*
X22942Y-31957D01*
X22914Y-31942D01*
X22885Y-31914D01*
X22871Y-31871D01*
X22871Y-31842D01*
X22885Y-31800D01*
X22900Y-31785D01*
X22871Y-31685D02*
X22871Y-31500D01*
X22985Y-31600D01*
X22985Y-31557D01*
X23000Y-31528D01*
X23014Y-31514D01*
X23042Y-31500D01*
X23114Y-31500D01*
X23142Y-31514D01*
X23157Y-31528D01*
X23171Y-31557D01*
X23171Y-31642D01*
X23157Y-31671D01*
X23142Y-31685D01*
X22871Y-31314D02*
X22871Y-31285D01*
X22885Y-31257D01*
X22900Y-31242D01*
X22928Y-31228D01*
X22985Y-31214D01*
X23057Y-31214D01*
X23114Y-31228D01*
X23142Y-31242D01*
X23157Y-31257D01*
X23171Y-31285D01*
X23171Y-31314D01*
X23157Y-31342D01*
X23142Y-31357D01*
X23114Y-31371D01*
X23057Y-31385D01*
X22985Y-31385D01*
X22928Y-31371D01*
X22900Y-31357D01*
X22885Y-31342D01*
X22871Y-31314D01*
X22871Y-30942D02*
X22871Y-31085D01*
X23014Y-31100D01*
X23000Y-31085D01*
X22985Y-31057D01*
X22985Y-30985D01*
X23000Y-30957D01*
X23014Y-30942D01*
X23042Y-30928D01*
X23114Y-30928D01*
X23142Y-30942D01*
X23157Y-30957D01*
X23171Y-30985D01*
X23171Y-31057D01*
X23157Y-31085D01*
X23142Y-31100D01*
X20589Y-32217D02*
X20603Y-32231D01*
X20617Y-32274D01*
X20617Y-32302D01*
X20603Y-32345D01*
X20575Y-32374D01*
X20546Y-32388D01*
X20489Y-32402D01*
X20446Y-32402D01*
X20389Y-32388D01*
X20360Y-32374D01*
X20332Y-32345D01*
X20317Y-32302D01*
X20317Y-32274D01*
X20332Y-32231D01*
X20346Y-32217D01*
X20317Y-32117D02*
X20317Y-31931D01*
X20432Y-32031D01*
X20432Y-31988D01*
X20446Y-31960D01*
X20460Y-31945D01*
X20489Y-31931D01*
X20560Y-31931D01*
X20589Y-31945D01*
X20603Y-31960D01*
X20617Y-31988D01*
X20617Y-32074D01*
X20603Y-32102D01*
X20589Y-32117D01*
X20317Y-31745D02*
X20317Y-31717D01*
X20332Y-31688D01*
X20346Y-31674D01*
X20375Y-31660D01*
X20432Y-31645D01*
X20503Y-31645D01*
X20560Y-31660D01*
X20589Y-31674D01*
X20603Y-31688D01*
X20617Y-31717D01*
X20617Y-31745D01*
X20603Y-31774D01*
X20589Y-31788D01*
X20560Y-31802D01*
X20503Y-31817D01*
X20432Y-31817D01*
X20375Y-31802D01*
X20346Y-31788D01*
X20332Y-31774D01*
X20317Y-31745D01*
X20317Y-31388D02*
X20317Y-31445D01*
X20332Y-31474D01*
X20346Y-31488D01*
X20389Y-31517D01*
X20446Y-31531D01*
X20560Y-31531D01*
X20589Y-31517D01*
X20603Y-31502D01*
X20617Y-31474D01*
X20617Y-31417D01*
X20603Y-31388D01*
X20589Y-31374D01*
X20560Y-31360D01*
X20489Y-31360D01*
X20460Y-31374D01*
X20446Y-31388D01*
X20432Y-31417D01*
X20432Y-31474D01*
X20446Y-31502D01*
X20460Y-31517D01*
X20489Y-31531D01*
X26492Y-32285D02*
X26507Y-32300D01*
X26521Y-32342D01*
X26521Y-32371D01*
X26507Y-32414D01*
X26478Y-32442D01*
X26450Y-32457D01*
X26392Y-32471D01*
X26350Y-32471D01*
X26292Y-32457D01*
X26264Y-32442D01*
X26235Y-32414D01*
X26221Y-32371D01*
X26221Y-32342D01*
X26235Y-32300D01*
X26250Y-32285D01*
X26221Y-32185D02*
X26221Y-32000D01*
X26335Y-32100D01*
X26335Y-32057D01*
X26350Y-32028D01*
X26364Y-32014D01*
X26392Y-32000D01*
X26464Y-32000D01*
X26492Y-32014D01*
X26507Y-32028D01*
X26521Y-32057D01*
X26521Y-32142D01*
X26507Y-32171D01*
X26492Y-32185D01*
X26221Y-31814D02*
X26221Y-31785D01*
X26235Y-31757D01*
X26250Y-31742D01*
X26278Y-31728D01*
X26335Y-31714D01*
X26407Y-31714D01*
X26464Y-31728D01*
X26492Y-31742D01*
X26507Y-31757D01*
X26521Y-31785D01*
X26521Y-31814D01*
X26507Y-31842D01*
X26492Y-31857D01*
X26464Y-31871D01*
X26407Y-31885D01*
X26335Y-31885D01*
X26278Y-31871D01*
X26250Y-31857D01*
X26235Y-31842D01*
X26221Y-31814D01*
X26221Y-31614D02*
X26221Y-31414D01*
X26521Y-31542D01*
X24842Y-31735D02*
X24857Y-31750D01*
X24871Y-31792D01*
X24871Y-31821D01*
X24857Y-31864D01*
X24828Y-31892D01*
X24800Y-31907D01*
X24742Y-31921D01*
X24700Y-31921D01*
X24642Y-31907D01*
X24614Y-31892D01*
X24585Y-31864D01*
X24571Y-31821D01*
X24571Y-31792D01*
X24585Y-31750D01*
X24600Y-31735D01*
X24571Y-31635D02*
X24571Y-31450D01*
X24685Y-31550D01*
X24685Y-31507D01*
X24700Y-31478D01*
X24714Y-31464D01*
X24742Y-31450D01*
X24814Y-31450D01*
X24842Y-31464D01*
X24857Y-31478D01*
X24871Y-31507D01*
X24871Y-31592D01*
X24857Y-31621D01*
X24842Y-31635D01*
X24571Y-31264D02*
X24571Y-31235D01*
X24585Y-31207D01*
X24600Y-31192D01*
X24628Y-31178D01*
X24685Y-31164D01*
X24757Y-31164D01*
X24814Y-31178D01*
X24842Y-31192D01*
X24857Y-31207D01*
X24871Y-31235D01*
X24871Y-31264D01*
X24857Y-31292D01*
X24842Y-31307D01*
X24814Y-31321D01*
X24757Y-31335D01*
X24685Y-31335D01*
X24628Y-31321D01*
X24600Y-31307D01*
X24585Y-31292D01*
X24571Y-31264D01*
X24700Y-30992D02*
X24685Y-31021D01*
X24671Y-31035D01*
X24642Y-31050D01*
X24628Y-31050D01*
X24600Y-31035D01*
X24585Y-31021D01*
X24571Y-30992D01*
X24571Y-30935D01*
X24585Y-30907D01*
X24600Y-30892D01*
X24628Y-30878D01*
X24642Y-30878D01*
X24671Y-30892D01*
X24685Y-30907D01*
X24700Y-30935D01*
X24700Y-30992D01*
X24714Y-31021D01*
X24728Y-31035D01*
X24757Y-31050D01*
X24814Y-31050D01*
X24842Y-31035D01*
X24857Y-31021D01*
X24871Y-30992D01*
X24871Y-30935D01*
X24857Y-30907D01*
X24842Y-30892D01*
X24814Y-30878D01*
X24757Y-30878D01*
X24728Y-30892D01*
X24714Y-30907D01*
X24700Y-30935D01*
X17992Y-39785D02*
X18007Y-39800D01*
X18021Y-39842D01*
X18021Y-39871D01*
X18007Y-39914D01*
X17978Y-39942D01*
X17950Y-39957D01*
X17892Y-39971D01*
X17850Y-39971D01*
X17792Y-39957D01*
X17764Y-39942D01*
X17735Y-39914D01*
X17721Y-39871D01*
X17721Y-39842D01*
X17735Y-39800D01*
X17750Y-39785D01*
X17721Y-39685D02*
X17721Y-39500D01*
X17835Y-39600D01*
X17835Y-39557D01*
X17850Y-39528D01*
X17864Y-39514D01*
X17892Y-39500D01*
X17964Y-39500D01*
X17992Y-39514D01*
X18007Y-39528D01*
X18021Y-39557D01*
X18021Y-39642D01*
X18007Y-39671D01*
X17992Y-39685D01*
X17721Y-39314D02*
X17721Y-39285D01*
X17735Y-39257D01*
X17750Y-39242D01*
X17778Y-39228D01*
X17835Y-39214D01*
X17907Y-39214D01*
X17964Y-39228D01*
X17992Y-39242D01*
X18007Y-39257D01*
X18021Y-39285D01*
X18021Y-39314D01*
X18007Y-39342D01*
X17992Y-39357D01*
X17964Y-39371D01*
X17907Y-39385D01*
X17835Y-39385D01*
X17778Y-39371D01*
X17750Y-39357D01*
X17735Y-39342D01*
X17721Y-39314D01*
X18021Y-38928D02*
X18021Y-39100D01*
X18021Y-39014D02*
X17721Y-39014D01*
X17764Y-39042D01*
X17792Y-39071D01*
X17807Y-39100D01*
X18214Y-42292D02*
X18200Y-42307D01*
X18157Y-42321D01*
X18128Y-42321D01*
X18085Y-42307D01*
X18057Y-42278D01*
X18042Y-42250D01*
X18028Y-42192D01*
X18028Y-42150D01*
X18042Y-42092D01*
X18057Y-42064D01*
X18085Y-42035D01*
X18128Y-42021D01*
X18157Y-42021D01*
X18200Y-42035D01*
X18214Y-42050D01*
X18314Y-42021D02*
X18500Y-42021D01*
X18400Y-42135D01*
X18442Y-42135D01*
X18471Y-42150D01*
X18485Y-42164D01*
X18500Y-42192D01*
X18500Y-42264D01*
X18485Y-42292D01*
X18471Y-42307D01*
X18442Y-42321D01*
X18357Y-42321D01*
X18328Y-42307D01*
X18314Y-42292D01*
X18685Y-42021D02*
X18714Y-42021D01*
X18742Y-42035D01*
X18757Y-42050D01*
X18771Y-42078D01*
X18785Y-42135D01*
X18785Y-42207D01*
X18771Y-42264D01*
X18757Y-42292D01*
X18742Y-42307D01*
X18714Y-42321D01*
X18685Y-42321D01*
X18657Y-42307D01*
X18642Y-42292D01*
X18628Y-42264D01*
X18614Y-42207D01*
X18614Y-42135D01*
X18628Y-42078D01*
X18642Y-42050D01*
X18657Y-42035D01*
X18685Y-42021D01*
X18885Y-42021D02*
X19071Y-42021D01*
X18971Y-42135D01*
X19014Y-42135D01*
X19042Y-42150D01*
X19057Y-42164D01*
X19071Y-42192D01*
X19071Y-42264D01*
X19057Y-42292D01*
X19042Y-42307D01*
X19014Y-42321D01*
X18928Y-42321D01*
X18900Y-42307D01*
X18885Y-42292D01*
X15564Y-38092D02*
X15550Y-38107D01*
X15507Y-38121D01*
X15478Y-38121D01*
X15435Y-38107D01*
X15407Y-38078D01*
X15392Y-38050D01*
X15378Y-37992D01*
X15378Y-37950D01*
X15392Y-37892D01*
X15407Y-37864D01*
X15435Y-37835D01*
X15478Y-37821D01*
X15507Y-37821D01*
X15550Y-37835D01*
X15564Y-37850D01*
X15664Y-37821D02*
X15850Y-37821D01*
X15750Y-37935D01*
X15792Y-37935D01*
X15821Y-37950D01*
X15835Y-37964D01*
X15850Y-37992D01*
X15850Y-38064D01*
X15835Y-38092D01*
X15821Y-38107D01*
X15792Y-38121D01*
X15707Y-38121D01*
X15678Y-38107D01*
X15664Y-38092D01*
X16135Y-38121D02*
X15964Y-38121D01*
X16050Y-38121D02*
X16050Y-37821D01*
X16021Y-37864D01*
X15992Y-37892D01*
X15964Y-37907D01*
X16321Y-37821D02*
X16350Y-37821D01*
X16378Y-37835D01*
X16392Y-37850D01*
X16407Y-37878D01*
X16421Y-37935D01*
X16421Y-38007D01*
X16407Y-38064D01*
X16392Y-38092D01*
X16378Y-38107D01*
X16350Y-38121D01*
X16321Y-38121D01*
X16292Y-38107D01*
X16278Y-38092D01*
X16264Y-38064D01*
X16250Y-38007D01*
X16250Y-37935D01*
X16264Y-37878D01*
X16278Y-37850D01*
X16292Y-37835D01*
X16321Y-37821D01*
X18264Y-40742D02*
X18250Y-40757D01*
X18207Y-40771D01*
X18178Y-40771D01*
X18135Y-40757D01*
X18107Y-40728D01*
X18092Y-40700D01*
X18078Y-40642D01*
X18078Y-40600D01*
X18092Y-40542D01*
X18107Y-40514D01*
X18135Y-40485D01*
X18178Y-40471D01*
X18207Y-40471D01*
X18250Y-40485D01*
X18264Y-40500D01*
X18364Y-40471D02*
X18550Y-40471D01*
X18450Y-40585D01*
X18492Y-40585D01*
X18521Y-40600D01*
X18535Y-40614D01*
X18550Y-40642D01*
X18550Y-40714D01*
X18535Y-40742D01*
X18521Y-40757D01*
X18492Y-40771D01*
X18407Y-40771D01*
X18378Y-40757D01*
X18364Y-40742D01*
X18735Y-40471D02*
X18764Y-40471D01*
X18792Y-40485D01*
X18807Y-40500D01*
X18821Y-40528D01*
X18835Y-40585D01*
X18835Y-40657D01*
X18821Y-40714D01*
X18807Y-40742D01*
X18792Y-40757D01*
X18764Y-40771D01*
X18735Y-40771D01*
X18707Y-40757D01*
X18692Y-40742D01*
X18678Y-40714D01*
X18664Y-40657D01*
X18664Y-40585D01*
X18678Y-40528D01*
X18692Y-40500D01*
X18707Y-40485D01*
X18735Y-40471D01*
X19092Y-40571D02*
X19092Y-40771D01*
X19021Y-40457D02*
X18950Y-40671D01*
X19135Y-40671D01*
X13992Y-39585D02*
X14007Y-39600D01*
X14021Y-39642D01*
X14021Y-39671D01*
X14007Y-39714D01*
X13978Y-39742D01*
X13950Y-39757D01*
X13892Y-39771D01*
X13850Y-39771D01*
X13792Y-39757D01*
X13764Y-39742D01*
X13735Y-39714D01*
X13721Y-39671D01*
X13721Y-39642D01*
X13735Y-39600D01*
X13750Y-39585D01*
X13721Y-39485D02*
X13721Y-39300D01*
X13835Y-39400D01*
X13835Y-39357D01*
X13850Y-39328D01*
X13864Y-39314D01*
X13892Y-39300D01*
X13964Y-39300D01*
X13992Y-39314D01*
X14007Y-39328D01*
X14021Y-39357D01*
X14021Y-39442D01*
X14007Y-39471D01*
X13992Y-39485D01*
X14021Y-39014D02*
X14021Y-39185D01*
X14021Y-39100D02*
X13721Y-39100D01*
X13764Y-39128D01*
X13792Y-39157D01*
X13807Y-39185D01*
X14021Y-38728D02*
X14021Y-38900D01*
X14021Y-38814D02*
X13721Y-38814D01*
X13764Y-38842D01*
X13792Y-38871D01*
X13807Y-38900D01*
X20592Y-35710D02*
X20607Y-35725D01*
X20621Y-35767D01*
X20621Y-35796D01*
X20607Y-35839D01*
X20578Y-35867D01*
X20550Y-35882D01*
X20492Y-35896D01*
X20450Y-35896D01*
X20392Y-35882D01*
X20364Y-35867D01*
X20335Y-35839D01*
X20321Y-35796D01*
X20321Y-35767D01*
X20335Y-35725D01*
X20350Y-35710D01*
X20321Y-35610D02*
X20321Y-35425D01*
X20435Y-35525D01*
X20435Y-35482D01*
X20450Y-35453D01*
X20464Y-35439D01*
X20492Y-35425D01*
X20564Y-35425D01*
X20592Y-35439D01*
X20607Y-35453D01*
X20621Y-35482D01*
X20621Y-35567D01*
X20607Y-35596D01*
X20592Y-35610D01*
X20621Y-35139D02*
X20621Y-35310D01*
X20621Y-35225D02*
X20321Y-35225D01*
X20364Y-35253D01*
X20392Y-35282D01*
X20407Y-35310D01*
X20350Y-35025D02*
X20335Y-35010D01*
X20321Y-34982D01*
X20321Y-34910D01*
X20335Y-34882D01*
X20350Y-34867D01*
X20378Y-34853D01*
X20407Y-34853D01*
X20450Y-34867D01*
X20621Y-35039D01*
X20621Y-34853D01*
X22383Y-39655D02*
X22369Y-39669D01*
X22326Y-39684D01*
X22297Y-39684D01*
X22254Y-39669D01*
X22226Y-39641D01*
X22211Y-39612D01*
X22197Y-39555D01*
X22197Y-39512D01*
X22211Y-39455D01*
X22226Y-39426D01*
X22254Y-39398D01*
X22297Y-39384D01*
X22326Y-39384D01*
X22369Y-39398D01*
X22383Y-39412D01*
X22483Y-39384D02*
X22669Y-39384D01*
X22569Y-39498D01*
X22611Y-39498D01*
X22640Y-39512D01*
X22654Y-39526D01*
X22669Y-39555D01*
X22669Y-39626D01*
X22654Y-39655D01*
X22640Y-39669D01*
X22611Y-39684D01*
X22526Y-39684D01*
X22497Y-39669D01*
X22483Y-39655D01*
X22854Y-39384D02*
X22883Y-39384D01*
X22911Y-39398D01*
X22926Y-39412D01*
X22940Y-39441D01*
X22954Y-39498D01*
X22954Y-39569D01*
X22940Y-39626D01*
X22926Y-39655D01*
X22911Y-39669D01*
X22883Y-39684D01*
X22854Y-39684D01*
X22826Y-39669D01*
X22811Y-39655D01*
X22797Y-39626D01*
X22783Y-39569D01*
X22783Y-39498D01*
X22797Y-39441D01*
X22811Y-39412D01*
X22826Y-39398D01*
X22854Y-39384D01*
X23097Y-39684D02*
X23154Y-39684D01*
X23183Y-39669D01*
X23197Y-39655D01*
X23226Y-39612D01*
X23240Y-39555D01*
X23240Y-39441D01*
X23226Y-39412D01*
X23211Y-39398D01*
X23183Y-39384D01*
X23126Y-39384D01*
X23097Y-39398D01*
X23083Y-39412D01*
X23069Y-39441D01*
X23069Y-39512D01*
X23083Y-39541D01*
X23097Y-39555D01*
X23126Y-39569D01*
X23183Y-39569D01*
X23211Y-39555D01*
X23226Y-39541D01*
X23240Y-39512D01*
X24192Y-39221D02*
X24192Y-38921D01*
X24264Y-38921D01*
X24307Y-38935D01*
X24335Y-38964D01*
X24350Y-38992D01*
X24364Y-39050D01*
X24364Y-39092D01*
X24350Y-39150D01*
X24335Y-39178D01*
X24307Y-39207D01*
X24264Y-39221D01*
X24192Y-39221D01*
X24464Y-38921D02*
X24650Y-38921D01*
X24550Y-39035D01*
X24592Y-39035D01*
X24621Y-39050D01*
X24635Y-39064D01*
X24650Y-39092D01*
X24650Y-39164D01*
X24635Y-39192D01*
X24621Y-39207D01*
X24592Y-39221D01*
X24507Y-39221D01*
X24478Y-39207D01*
X24464Y-39192D01*
X24835Y-38921D02*
X24864Y-38921D01*
X24892Y-38935D01*
X24907Y-38950D01*
X24921Y-38978D01*
X24935Y-39035D01*
X24935Y-39107D01*
X24921Y-39164D01*
X24907Y-39192D01*
X24892Y-39207D01*
X24864Y-39221D01*
X24835Y-39221D01*
X24807Y-39207D01*
X24792Y-39192D01*
X24778Y-39164D01*
X24764Y-39107D01*
X24764Y-39035D01*
X24778Y-38978D01*
X24792Y-38950D01*
X24807Y-38935D01*
X24835Y-38921D01*
X25221Y-39221D02*
X25050Y-39221D01*
X25135Y-39221D02*
X25135Y-38921D01*
X25107Y-38964D01*
X25078Y-38992D01*
X25050Y-39007D01*
G54D24*
X27071Y-43557D02*
X26771Y-43557D01*
X26771Y-43485D01*
X26785Y-43442D01*
X26814Y-43414D01*
X26842Y-43400D01*
X26900Y-43385D01*
X26942Y-43385D01*
X27000Y-43400D01*
X27028Y-43414D01*
X27057Y-43442D01*
X27071Y-43485D01*
X27071Y-43557D01*
X27071Y-43100D02*
X27071Y-43271D01*
X27071Y-43185D02*
X26771Y-43185D01*
X26814Y-43214D01*
X26842Y-43242D01*
X26857Y-43271D01*
X26771Y-42914D02*
X26771Y-42885D01*
X26785Y-42857D01*
X26800Y-42842D01*
X26828Y-42828D01*
X26885Y-42814D01*
X26957Y-42814D01*
X27014Y-42828D01*
X27042Y-42842D01*
X27057Y-42857D01*
X27071Y-42885D01*
X27071Y-42914D01*
X27057Y-42942D01*
X27042Y-42957D01*
X27014Y-42971D01*
X26957Y-42985D01*
X26885Y-42985D01*
X26828Y-42971D01*
X26800Y-42957D01*
X26785Y-42942D01*
X26771Y-42914D01*
X26800Y-42700D02*
X26785Y-42685D01*
X26771Y-42657D01*
X26771Y-42585D01*
X26785Y-42557D01*
X26800Y-42542D01*
X26828Y-42528D01*
X26857Y-42528D01*
X26900Y-42542D01*
X27071Y-42714D01*
X27071Y-42528D01*
G54D16*
X27321Y-42750D02*
X27178Y-42850D01*
X27321Y-42921D02*
X27021Y-42921D01*
X27021Y-42807D01*
X27035Y-42778D01*
X27050Y-42764D01*
X27078Y-42750D01*
X27121Y-42750D01*
X27150Y-42764D01*
X27164Y-42778D01*
X27178Y-42807D01*
X27178Y-42921D01*
X27321Y-42464D02*
X27321Y-42635D01*
X27321Y-42550D02*
X27021Y-42550D01*
X27064Y-42578D01*
X27092Y-42607D01*
X27107Y-42635D01*
X29750Y-17321D02*
X29650Y-17178D01*
X29578Y-17321D02*
X29578Y-17021D01*
X29692Y-17021D01*
X29721Y-17035D01*
X29735Y-17050D01*
X29750Y-17078D01*
X29750Y-17121D01*
X29735Y-17150D01*
X29721Y-17164D01*
X29692Y-17178D01*
X29578Y-17178D01*
X29864Y-17050D02*
X29878Y-17035D01*
X29907Y-17021D01*
X29978Y-17021D01*
X30007Y-17035D01*
X30021Y-17050D01*
X30035Y-17078D01*
X30035Y-17107D01*
X30021Y-17150D01*
X29850Y-17321D01*
X30035Y-17321D01*
X20775Y-15037D02*
X20675Y-14894D01*
X20604Y-15037D02*
X20604Y-14737D01*
X20718Y-14737D01*
X20746Y-14751D01*
X20761Y-14765D01*
X20775Y-14794D01*
X20775Y-14837D01*
X20761Y-14865D01*
X20746Y-14880D01*
X20718Y-14894D01*
X20604Y-14894D01*
X20889Y-14765D02*
X20904Y-14751D01*
X20932Y-14737D01*
X21004Y-14737D01*
X21032Y-14751D01*
X21046Y-14765D01*
X21061Y-14794D01*
X21061Y-14823D01*
X21046Y-14865D01*
X20875Y-15037D01*
X21061Y-15037D01*
X21246Y-14737D02*
X21275Y-14737D01*
X21304Y-14751D01*
X21318Y-14765D01*
X21332Y-14794D01*
X21346Y-14851D01*
X21346Y-14923D01*
X21332Y-14980D01*
X21318Y-15008D01*
X21304Y-15023D01*
X21275Y-15037D01*
X21246Y-15037D01*
X21218Y-15023D01*
X21204Y-15008D01*
X21189Y-14980D01*
X21175Y-14923D01*
X21175Y-14851D01*
X21189Y-14794D01*
X21204Y-14765D01*
X21218Y-14751D01*
X21246Y-14737D01*
X21532Y-14737D02*
X21561Y-14737D01*
X21589Y-14751D01*
X21604Y-14765D01*
X21618Y-14794D01*
X21632Y-14851D01*
X21632Y-14923D01*
X21618Y-14980D01*
X21604Y-15008D01*
X21589Y-15023D01*
X21561Y-15037D01*
X21532Y-15037D01*
X21504Y-15023D01*
X21489Y-15008D01*
X21475Y-14980D01*
X21461Y-14923D01*
X21461Y-14851D01*
X21475Y-14794D01*
X21489Y-14765D01*
X21504Y-14751D01*
X21532Y-14737D01*
G54D12*
X16378Y-11992D02*
X16378Y-12421D01*
X16349Y-12507D01*
X16292Y-12564D01*
X16207Y-12592D01*
X16149Y-12592D01*
X16978Y-12592D02*
X16635Y-12592D01*
X16807Y-12592D02*
X16807Y-11992D01*
X16749Y-12078D01*
X16692Y-12135D01*
X16635Y-12164D01*
X17350Y-11992D02*
X17407Y-11992D01*
X17464Y-12021D01*
X17492Y-12050D01*
X17521Y-12107D01*
X17550Y-12221D01*
X17550Y-12364D01*
X17521Y-12478D01*
X17492Y-12535D01*
X17464Y-12564D01*
X17407Y-12592D01*
X17350Y-12592D01*
X17292Y-12564D01*
X17264Y-12535D01*
X17235Y-12478D01*
X17207Y-12364D01*
X17207Y-12221D01*
X17235Y-12107D01*
X17264Y-12050D01*
X17292Y-12021D01*
X17350Y-11992D01*
X18121Y-12592D02*
X17778Y-12592D01*
X17950Y-12592D02*
X17950Y-11992D01*
X17892Y-12078D01*
X17835Y-12135D01*
X17778Y-12164D01*
G54D16*
X16950Y-18721D02*
X16850Y-18578D01*
X16778Y-18721D02*
X16778Y-18421D01*
X16892Y-18421D01*
X16921Y-18435D01*
X16935Y-18450D01*
X16950Y-18478D01*
X16950Y-18521D01*
X16935Y-18550D01*
X16921Y-18564D01*
X16892Y-18578D01*
X16778Y-18578D01*
X17050Y-18421D02*
X17250Y-18421D01*
X17121Y-18721D01*
G54D22*
X27861Y-31733D02*
X28147Y-31733D01*
X28204Y-31752D01*
X28242Y-31790D01*
X28261Y-31847D01*
X28261Y-31885D01*
X28261Y-31333D02*
X28261Y-31561D01*
X28261Y-31447D02*
X27861Y-31447D01*
X27919Y-31485D01*
X27957Y-31523D01*
X27976Y-31561D01*
G54D25*
G54D24*
X21083Y-13483D02*
X21083Y-13883D01*
X21083Y-13683D02*
X20383Y-13683D01*
X20483Y-13750D01*
X20550Y-13816D01*
X20583Y-13883D01*
X20383Y-13250D02*
X21083Y-13083D01*
X20583Y-12950D01*
X21083Y-12816D01*
X20383Y-12650D01*
X21083Y-12383D02*
X20616Y-12383D01*
X20383Y-12383D02*
X20416Y-12416D01*
X20450Y-12383D01*
X20416Y-12350D01*
X20383Y-12383D01*
X20450Y-12383D01*
X21083Y-12050D02*
X20616Y-12050D01*
X20750Y-12050D02*
X20683Y-12016D01*
X20650Y-11983D01*
X20616Y-11916D01*
X20616Y-11850D01*
X21050Y-11349D02*
X21083Y-11416D01*
X21083Y-11549D01*
X21050Y-11616D01*
X20983Y-11649D01*
X20716Y-11649D01*
X20650Y-11616D01*
X20616Y-11549D01*
X20616Y-11416D01*
X20650Y-11349D01*
X20716Y-11316D01*
X20783Y-11316D01*
X20850Y-11649D01*
X26477Y-14595D02*
X26477Y-14285D01*
X27019Y-14440D02*
X26477Y-14440D01*
X26735Y-14104D02*
X26735Y-13923D01*
X27019Y-13846D02*
X27019Y-14104D01*
X26477Y-14104D01*
X26477Y-13846D01*
X27019Y-13355D02*
X27019Y-13613D01*
X26477Y-13613D01*
X26735Y-13174D02*
X26735Y-12993D01*
X27019Y-12916D02*
X27019Y-13174D01*
X26477Y-13174D01*
X26477Y-12916D01*
X27019Y-12683D02*
X26477Y-12683D01*
X27019Y-12425D02*
X26477Y-12425D01*
X27019Y-12115D01*
X26477Y-12115D01*
X26735Y-11676D02*
X26735Y-11857D01*
X27019Y-11857D02*
X26477Y-11857D01*
X26477Y-11598D01*
X26477Y-11288D02*
X26477Y-11185D01*
X26502Y-11133D01*
X26554Y-11082D01*
X26657Y-11056D01*
X26838Y-11056D01*
X26942Y-11082D01*
X26993Y-11133D01*
X27019Y-11185D01*
X27019Y-11288D01*
X26993Y-11340D01*
X26942Y-11392D01*
X26838Y-11417D01*
X26657Y-11417D01*
X26554Y-11392D01*
X26502Y-11340D01*
X26477Y-11288D01*
G54D20*
X25642Y-27692D02*
X25661Y-27635D01*
X25661Y-27540D01*
X25642Y-27502D01*
X25623Y-27483D01*
X25585Y-27464D01*
X25547Y-27464D01*
X25509Y-27483D01*
X25490Y-27502D01*
X25471Y-27540D01*
X25452Y-27616D01*
X25433Y-27654D01*
X25414Y-27673D01*
X25376Y-27692D01*
X25338Y-27692D01*
X25300Y-27673D01*
X25280Y-27654D01*
X25261Y-27616D01*
X25261Y-27521D01*
X25280Y-27464D01*
X25642Y-27140D02*
X25661Y-27178D01*
X25661Y-27254D01*
X25642Y-27292D01*
X25604Y-27311D01*
X25452Y-27311D01*
X25414Y-27292D01*
X25395Y-27254D01*
X25395Y-27178D01*
X25414Y-27140D01*
X25452Y-27121D01*
X25490Y-27121D01*
X25528Y-27311D01*
X25661Y-26892D02*
X25642Y-26930D01*
X25604Y-26949D01*
X25261Y-26949D01*
X25700Y-26835D02*
X25700Y-26530D01*
X25661Y-26226D02*
X25661Y-26454D01*
X25661Y-26340D02*
X25261Y-26340D01*
X25319Y-26378D01*
X25357Y-26416D01*
X25376Y-26454D01*
X25395Y-26092D02*
X25661Y-26016D01*
X25471Y-25940D01*
X25661Y-25864D01*
X25395Y-25788D01*
X22792Y-28373D02*
X22811Y-28316D01*
X22811Y-28221D01*
X22792Y-28183D01*
X22773Y-28164D01*
X22735Y-28145D01*
X22697Y-28145D01*
X22659Y-28164D01*
X22640Y-28183D01*
X22621Y-28221D01*
X22602Y-28297D01*
X22583Y-28335D01*
X22564Y-28354D01*
X22526Y-28373D01*
X22488Y-28373D01*
X22450Y-28354D01*
X22430Y-28335D01*
X22411Y-28297D01*
X22411Y-28202D01*
X22430Y-28145D01*
X22792Y-27821D02*
X22811Y-27859D01*
X22811Y-27935D01*
X22792Y-27973D01*
X22754Y-27992D01*
X22602Y-27992D01*
X22564Y-27973D01*
X22545Y-27935D01*
X22545Y-27859D01*
X22564Y-27821D01*
X22602Y-27802D01*
X22640Y-27802D01*
X22678Y-27992D01*
X22811Y-27573D02*
X22792Y-27611D01*
X22754Y-27630D01*
X22411Y-27630D01*
X22850Y-27516D02*
X22850Y-27211D01*
X22811Y-26907D02*
X22811Y-27135D01*
X22811Y-27021D02*
X22411Y-27021D01*
X22469Y-27059D01*
X22507Y-27097D01*
X22526Y-27135D01*
X22545Y-26773D02*
X22811Y-26697D01*
X22621Y-26621D01*
X22811Y-26545D01*
X22545Y-26469D01*
X22659Y-26316D02*
X22659Y-26011D01*
X22811Y-25821D02*
X22411Y-25821D01*
X22411Y-25669D01*
X22430Y-25630D01*
X22450Y-25611D01*
X22488Y-25592D01*
X22545Y-25592D01*
X22583Y-25611D01*
X22602Y-25630D01*
X22621Y-25669D01*
X22621Y-25821D01*
X22545Y-25459D02*
X22811Y-25383D01*
X22621Y-25307D01*
X22811Y-25230D01*
X22545Y-25154D01*
X22811Y-25002D02*
X22545Y-25002D01*
X22621Y-25002D02*
X22583Y-24983D01*
X22564Y-24964D01*
X22545Y-24926D01*
X22545Y-24888D01*
G54D16*
X27504Y-15450D02*
X27695Y-15450D01*
X27466Y-15570D02*
X27600Y-15150D01*
X27733Y-15570D01*
X27095Y-16770D02*
X27095Y-16350D01*
X27323Y-16770D02*
X27152Y-16530D01*
X27323Y-16350D02*
X27095Y-16590D01*
G54D24*
X17000Y-44033D02*
X17000Y-43333D01*
X17266Y-43333D01*
X17333Y-43366D01*
X17366Y-43400D01*
X17400Y-43466D01*
X17400Y-43566D01*
X17366Y-43633D01*
X17333Y-43666D01*
X17266Y-43700D01*
X17000Y-43700D01*
X17833Y-43333D02*
X17966Y-43333D01*
X18033Y-43366D01*
X18100Y-43433D01*
X18133Y-43566D01*
X18133Y-43800D01*
X18100Y-43933D01*
X18033Y-44000D01*
X17966Y-44033D01*
X17833Y-44033D01*
X17766Y-44000D01*
X17700Y-43933D01*
X17666Y-43800D01*
X17666Y-43566D01*
X17700Y-43433D01*
X17766Y-43366D01*
X17833Y-43333D01*
X18366Y-43333D02*
X18533Y-44033D01*
X18666Y-43533D01*
X18800Y-44033D01*
X18966Y-43333D01*
X19233Y-43666D02*
X19466Y-43666D01*
X19566Y-44033D02*
X19233Y-44033D01*
X19233Y-43333D01*
X19566Y-43333D01*
X20266Y-44033D02*
X20033Y-43700D01*
X19866Y-44033D02*
X19866Y-43333D01*
X20133Y-43333D01*
X20200Y-43366D01*
X20233Y-43400D01*
X20266Y-43466D01*
X20266Y-43566D01*
X20233Y-43633D01*
X20200Y-43666D01*
X20133Y-43700D01*
X19866Y-43700D01*
X20933Y-44033D02*
X20533Y-44033D01*
X20733Y-44033D02*
X20733Y-43333D01*
X20666Y-43433D01*
X20600Y-43500D01*
X20533Y-43533D01*
G54D26*
X29211Y-21700D02*
X29173Y-21680D01*
X29135Y-21642D01*
X29078Y-21585D01*
X29040Y-21566D01*
X29002Y-21566D01*
X29021Y-21661D02*
X28983Y-21642D01*
X28945Y-21604D01*
X28926Y-21528D01*
X28926Y-21395D01*
X28945Y-21319D01*
X28983Y-21280D01*
X29021Y-21261D01*
X29097Y-21261D01*
X29135Y-21280D01*
X29173Y-21319D01*
X29192Y-21395D01*
X29192Y-21528D01*
X29173Y-21604D01*
X29135Y-21642D01*
X29097Y-21661D01*
X29021Y-21661D01*
X29573Y-21661D02*
X29345Y-21661D01*
X29459Y-21661D02*
X29459Y-21261D01*
X29421Y-21319D01*
X29383Y-21357D01*
X29345Y-21376D01*
M02*
