M48
;DRILL file {Pcbnew (2013-07-07 BZR 4022)-stable} date 12/06/2018 18:14:07
;FORMAT={-:-/ absolute / metric / decimal}
FMAT,2
METRIC,TZ
T1C0.635
T2C0.813
T3C0.899
T4C1.016
T5C1.321
T6C1.400
T7C3.251
%
G90
G05
M71
T1
X53.213Y-103.759
X54.61Y-45.847
X55.88Y-48.26
X57.15Y-107.442
X57.785Y-48.895
X62.23Y-60.96
X67.31Y-47.625
T2
X63.5Y-39.37
X63.5Y-41.91
X73.66Y-38.735
X73.66Y-42.545
X74.295Y-49.53
X74.295Y-52.07
X76.835Y-49.53
T3
X39.37Y-45.085
X40.64Y-42.545
X41.91Y-45.085
X43.18Y-42.545
X44.45Y-45.085
X45.72Y-42.545
X46.99Y-45.085
X48.26Y-42.545
T4
X59.69Y-65.405
X59.69Y-67.945
X59.69Y-70.485
X62.23Y-65.405
X62.23Y-67.945
X62.23Y-70.485
X73.914Y-56.134
X73.914Y-58.674
X73.914Y-61.214
X73.914Y-63.754
X73.914Y-66.294
X73.914Y-68.834
X73.914Y-71.374
X73.914Y-73.914
X73.914Y-76.454
X73.914Y-78.994
X73.914Y-81.534
X73.914Y-84.074
X73.914Y-86.614
X73.914Y-89.154
X73.914Y-91.694
X73.914Y-94.234
X73.914Y-96.774
X73.914Y-99.314
X73.914Y-101.854
X73.914Y-104.394
X76.454Y-56.134
X76.454Y-58.674
X76.454Y-61.214
X76.454Y-63.754
X76.454Y-66.294
X76.454Y-68.834
X76.454Y-71.374
X76.454Y-73.914
X76.454Y-76.454
X76.454Y-78.994
X76.454Y-81.534
X76.454Y-84.074
X76.454Y-86.614
X76.454Y-89.154
X76.454Y-91.694
X76.454Y-94.234
X76.454Y-96.774
X76.454Y-99.314
X76.454Y-101.854
X76.454Y-104.394
T5
X38.1Y-106.045
X41.95Y-106.045
X55.8Y-33.655
X59.65Y-33.655
X63.5Y-33.655
X71.715Y-33.655
X75.565Y-33.655
T6
X36.195Y-31.115
X51.435Y-31.115
T7
X37.876Y-36.195
X49.746Y-36.195
T0
M30
