G04 (created by PCBNEW (2013-07-07 BZR 4022)-stable) date 12/06/2018 18:13:56*
%MOIN*%
G04 Gerber Fmt 3.4, Leading zero omitted, Abs format*
%FSLAX34Y34*%
G01*
G70*
G90*
G04 APERTURE LIST*
%ADD10C,0.00590551*%
%ADD11C,0.018937*%
%ADD12C,0.015*%
%ADD13R,0.08X0.06*%
%ADD14R,0.0709X0.0629*%
%ADD15R,0.0984X0.1516*%
%ADD16R,0.0236X0.0551*%
%ADD17R,0.06X0.08*%
%ADD18R,0.0787X0.0906*%
%ADD19R,0.08X0.026*%
%ADD20C,0.1437*%
%ADD21R,0.0591X0.0591*%
%ADD22C,0.0591*%
%ADD23C,0.0787402*%
%ADD24R,0.06X0.06*%
%ADD25C,0.06*%
%ADD26O,0.078X0.156*%
%ADD27R,0.09X0.062*%
%ADD28O,0.09X0.062*%
%ADD29R,0.055X0.055*%
%ADD30C,0.055*%
%ADD31C,0.035*%
%ADD32C,0.02*%
%ADD33C,0.011811*%
%ADD34C,0.005*%
%ADD35C,0.01*%
G04 APERTURE END LIST*
G54D10*
G54D11*
X15047Y-19800D02*
G75*
G03X15047Y-19800I-447J0D01*
G74*
G01*
X16647Y-35800D02*
G75*
G03X16647Y-35800I-447J0D01*
G74*
G01*
X27647Y-29200D02*
G75*
G03X27647Y-29200I-447J0D01*
G74*
G01*
G54D12*
X13250Y-10600D02*
X13250Y-10550D01*
X31200Y-10850D02*
X13250Y-10850D01*
X13250Y-44450D02*
X31250Y-44450D01*
X31212Y-10629D02*
X31212Y-44488D01*
X13492Y-44438D02*
X13492Y-10579D01*
G54D13*
X21500Y-21400D03*
X21500Y-20100D03*
X29100Y-42150D03*
X29100Y-43450D03*
G54D14*
X30300Y-43459D03*
X30300Y-42341D03*
G54D15*
X24054Y-37628D03*
X25236Y-37628D03*
X25236Y-33710D03*
X24054Y-33710D03*
G54D16*
X21694Y-42073D03*
X21694Y-39973D03*
X21194Y-42073D03*
X20694Y-42073D03*
X20194Y-42073D03*
X21194Y-39973D03*
X20694Y-39973D03*
X20194Y-39973D03*
G54D17*
X20925Y-38287D03*
X19625Y-38287D03*
G54D13*
X18503Y-38346D03*
X18503Y-37046D03*
G54D17*
X23857Y-41732D03*
X25157Y-41732D03*
X19625Y-37204D03*
X20925Y-37204D03*
X19646Y-36023D03*
X18346Y-36023D03*
X21200Y-43208D03*
X22500Y-43208D03*
X23857Y-42913D03*
X25157Y-42913D03*
G54D13*
X23750Y-32150D03*
X23750Y-30850D03*
X21350Y-32550D03*
X21350Y-31250D03*
X27100Y-32650D03*
X27100Y-31350D03*
X25500Y-32150D03*
X25500Y-30850D03*
X17125Y-39921D03*
X17125Y-38621D03*
G54D17*
X17952Y-42814D03*
X19252Y-42814D03*
G54D13*
X15944Y-39921D03*
X15944Y-38621D03*
G54D17*
X17952Y-41535D03*
X19252Y-41535D03*
G54D13*
X14665Y-39921D03*
X14665Y-38621D03*
X21300Y-34750D03*
X21300Y-36050D03*
X22775Y-41550D03*
X22775Y-40250D03*
G54D18*
X25570Y-39921D03*
X23878Y-39921D03*
G54D14*
X27600Y-43359D03*
X27600Y-42241D03*
G54D13*
X26400Y-42050D03*
X26400Y-43350D03*
G54D17*
X30400Y-17800D03*
X29100Y-17800D03*
G54D19*
X19210Y-21500D03*
X19210Y-21000D03*
X19210Y-20500D03*
X19210Y-20000D03*
X16790Y-20000D03*
X16790Y-20500D03*
X16790Y-21000D03*
X16790Y-21500D03*
G54D17*
X23400Y-15000D03*
X22100Y-15000D03*
G54D20*
X14912Y-14250D03*
X19585Y-14250D03*
G54D21*
X19000Y-16750D03*
G54D22*
X18500Y-17750D03*
X18000Y-16750D03*
X17500Y-17750D03*
X17000Y-16750D03*
X16500Y-17750D03*
X16000Y-16750D03*
X15500Y-17750D03*
G54D23*
X20250Y-12250D03*
X14250Y-12250D03*
G54D17*
X16350Y-19000D03*
X17650Y-19000D03*
G54D24*
X30100Y-41100D03*
G54D25*
X29100Y-41100D03*
X30100Y-36100D03*
X29100Y-40100D03*
X30100Y-35100D03*
X29100Y-39100D03*
X30100Y-34100D03*
X29100Y-38100D03*
X30100Y-33100D03*
X29100Y-37100D03*
X30100Y-32100D03*
X29100Y-36100D03*
X30100Y-31100D03*
X29100Y-35100D03*
X30100Y-30100D03*
X29100Y-34100D03*
X30100Y-29100D03*
X29100Y-33100D03*
X30100Y-28100D03*
X29100Y-32100D03*
X30100Y-27100D03*
X29100Y-31100D03*
X30100Y-26100D03*
X29100Y-30100D03*
X29100Y-29100D03*
X30100Y-25100D03*
X29100Y-28100D03*
X29100Y-26100D03*
X29100Y-25100D03*
X29100Y-24100D03*
X29100Y-23100D03*
X30100Y-24100D03*
X30100Y-23100D03*
X30100Y-40100D03*
X30100Y-39100D03*
X30100Y-38100D03*
X30100Y-37100D03*
X30100Y-22100D03*
X29100Y-22100D03*
X29100Y-27100D03*
G54D26*
X25000Y-13250D03*
X23484Y-13250D03*
X21968Y-13250D03*
X29750Y-13250D03*
X28234Y-13250D03*
G54D24*
X24500Y-27750D03*
G54D25*
X24500Y-26750D03*
X24500Y-25750D03*
G54D24*
X23500Y-27750D03*
G54D25*
X23500Y-26750D03*
X23500Y-25750D03*
G54D27*
X29000Y-15250D03*
G54D28*
X29000Y-16750D03*
X25000Y-16500D03*
X25000Y-15500D03*
G54D26*
X15000Y-41750D03*
X16515Y-41750D03*
G54D29*
X30250Y-19500D03*
G54D30*
X29250Y-19500D03*
X29250Y-20500D03*
G54D31*
X22750Y-19250D03*
X24500Y-24000D03*
X26500Y-18750D03*
X22500Y-42300D03*
X20950Y-40850D03*
X22000Y-19000D03*
X21500Y-18050D03*
G54D32*
X16350Y-19000D02*
X16200Y-19000D01*
X16200Y-19000D02*
X15500Y-18300D01*
X15500Y-18300D02*
X15500Y-17750D01*
X15500Y-18300D02*
X15500Y-17750D01*
X15500Y-17750D02*
X15500Y-17250D01*
X15500Y-17250D02*
X16000Y-16750D01*
X29100Y-41100D02*
X26800Y-41100D01*
X26400Y-41500D02*
X26400Y-42050D01*
X26800Y-41100D02*
X26400Y-41500D01*
X29100Y-40100D02*
X28900Y-40100D01*
X27400Y-32950D02*
X27100Y-32650D01*
X27400Y-38600D02*
X27400Y-32950D01*
X28900Y-40100D02*
X27400Y-38600D01*
X29100Y-41100D02*
X29100Y-40100D01*
X19210Y-21500D02*
X21400Y-21500D01*
X21400Y-21500D02*
X21500Y-21400D01*
X20925Y-37204D02*
X21870Y-37204D01*
X21875Y-34750D02*
X21300Y-34750D01*
X22450Y-35325D02*
X21875Y-34750D01*
X22450Y-36625D02*
X22450Y-35325D01*
X21870Y-37204D02*
X22450Y-36625D01*
X23500Y-27750D02*
X15775Y-27750D01*
X15775Y-27750D02*
X15500Y-27475D01*
X15500Y-22050D02*
X15500Y-27475D01*
X15500Y-27475D02*
X15500Y-31775D01*
X16275Y-32550D02*
X21350Y-32550D01*
X15500Y-31775D02*
X16275Y-32550D01*
X15500Y-17250D02*
X15500Y-18300D01*
X15500Y-18300D02*
X15500Y-22050D01*
X15500Y-22050D02*
X15500Y-22425D01*
X18260Y-22450D02*
X18280Y-22430D01*
X18280Y-22430D02*
X19210Y-21500D01*
X15525Y-22450D02*
X18260Y-22450D01*
X15500Y-22425D02*
X15525Y-22450D01*
G54D33*
X19800Y-21000D02*
X20700Y-21000D01*
X20950Y-20750D02*
X21100Y-20750D01*
X20700Y-21000D02*
X20950Y-20750D01*
X19210Y-21000D02*
X19800Y-21000D01*
X21100Y-20750D02*
X22000Y-20750D01*
X22500Y-19750D02*
X22500Y-20100D01*
X22750Y-19250D02*
X22500Y-19750D01*
X22500Y-20100D02*
X22500Y-20250D01*
X22500Y-20250D02*
X22000Y-20750D01*
G54D32*
X23500Y-25000D02*
X23500Y-25750D01*
X24500Y-24000D02*
X23500Y-25000D01*
X26000Y-15500D02*
X25000Y-15500D01*
X26500Y-16000D02*
X26000Y-15500D01*
X26500Y-18750D02*
X26500Y-16000D01*
G54D33*
X30800Y-41400D02*
X30800Y-41500D01*
X29550Y-41700D02*
X29100Y-42150D01*
X30600Y-41700D02*
X29550Y-41700D01*
X30800Y-41500D02*
X30600Y-41700D01*
X30800Y-41400D02*
X30800Y-36800D01*
X30800Y-36800D02*
X30100Y-36100D01*
X26400Y-43350D02*
X27591Y-43350D01*
X27591Y-43350D02*
X27600Y-43359D01*
X22100Y-15000D02*
X22100Y-12831D01*
X22100Y-12831D02*
X22018Y-12750D01*
X22018Y-16250D02*
X22018Y-15081D01*
X22018Y-15081D02*
X22100Y-15000D01*
X22018Y-16250D02*
X22018Y-16518D01*
X23400Y-17900D02*
X23400Y-19400D01*
X22018Y-16518D02*
X23400Y-17900D01*
X23500Y-26750D02*
X22700Y-26750D01*
X23400Y-23450D02*
X23400Y-19400D01*
X22350Y-24500D02*
X23400Y-23450D01*
X22350Y-26400D02*
X22350Y-24500D01*
X22700Y-26750D02*
X22350Y-26400D01*
X24500Y-26750D02*
X25000Y-26750D01*
X25000Y-26750D02*
X25250Y-26500D01*
X25250Y-26500D02*
X25250Y-24000D01*
X25250Y-24000D02*
X24200Y-22950D01*
X23534Y-12750D02*
X23534Y-14865D01*
X23534Y-14865D02*
X23400Y-15000D01*
X23400Y-15000D02*
X23750Y-15000D01*
X23750Y-15000D02*
X24200Y-15450D01*
X24200Y-22950D02*
X24200Y-15450D01*
X25000Y-26750D02*
X25250Y-26500D01*
X29100Y-43450D02*
X30291Y-43450D01*
X30291Y-43450D02*
X30300Y-43459D01*
X25000Y-18750D02*
X25500Y-19250D01*
X25000Y-16500D02*
X25000Y-18750D01*
X30250Y-19250D02*
X30250Y-19500D01*
X29750Y-18750D02*
X30250Y-19250D01*
X28500Y-18750D02*
X29750Y-18750D01*
X28000Y-19250D02*
X28500Y-18750D01*
X25500Y-19250D02*
X28000Y-19250D01*
X30400Y-17800D02*
X30400Y-19350D01*
X30400Y-19350D02*
X30250Y-19500D01*
X20694Y-39973D02*
X20694Y-38518D01*
X20694Y-38518D02*
X20925Y-38287D01*
X21525Y-40850D02*
X23527Y-40850D01*
X23527Y-40850D02*
X23857Y-41180D01*
X23857Y-41180D02*
X23857Y-41732D01*
X20694Y-42073D02*
X20694Y-41630D01*
X21475Y-40850D02*
X21525Y-40850D01*
X20694Y-41630D02*
X21475Y-40850D01*
X23857Y-41180D02*
X23857Y-41732D01*
X21694Y-42073D02*
X21694Y-41730D01*
X21875Y-41550D02*
X22775Y-41550D01*
X21694Y-41730D02*
X21875Y-41550D01*
X19625Y-37204D02*
X20078Y-37204D01*
X20194Y-37320D02*
X20194Y-39973D01*
X20078Y-37204D02*
X20194Y-37320D01*
X19646Y-36023D02*
X19646Y-37184D01*
X19646Y-37184D02*
X19625Y-37204D01*
X18503Y-38346D02*
X19566Y-38346D01*
X19566Y-38346D02*
X19625Y-38287D01*
X22500Y-42300D02*
X22500Y-43208D01*
X22500Y-42300D02*
X22500Y-42300D01*
X21194Y-39973D02*
X21194Y-40605D01*
X21194Y-40605D02*
X20950Y-40850D01*
X23857Y-42913D02*
X22795Y-42913D01*
X22795Y-42913D02*
X22500Y-43208D01*
X18000Y-16750D02*
X18000Y-16250D01*
X18000Y-16250D02*
X18500Y-15750D01*
X18500Y-15750D02*
X20750Y-15750D01*
X22000Y-17000D02*
X22000Y-19000D01*
X20750Y-15750D02*
X22000Y-17000D01*
X21500Y-20100D02*
X21500Y-19500D01*
X21500Y-19500D02*
X22000Y-19000D01*
X19210Y-20000D02*
X21400Y-20000D01*
X21400Y-20000D02*
X21500Y-20100D01*
X19000Y-16750D02*
X19250Y-17000D01*
X19250Y-17000D02*
X19250Y-17500D01*
X19225Y-18025D02*
X21475Y-18025D01*
X21475Y-18025D02*
X21500Y-18050D01*
X16790Y-20000D02*
X17200Y-20000D01*
X17650Y-19550D02*
X17650Y-18750D01*
X17200Y-20000D02*
X17650Y-19550D01*
X17650Y-18750D02*
X18500Y-18750D01*
X18500Y-18750D02*
X19225Y-18025D01*
X19225Y-18025D02*
X19250Y-18000D01*
X19250Y-18000D02*
X19250Y-17500D01*
X29100Y-37100D02*
X28850Y-37100D01*
X28525Y-36775D02*
X28525Y-21225D01*
X28850Y-37100D02*
X28525Y-36775D01*
X28525Y-21225D02*
X29250Y-20500D01*
X28525Y-21225D02*
X29250Y-20500D01*
X24054Y-37628D02*
X25236Y-37628D01*
X22611Y-40086D02*
X22775Y-40250D01*
G54D32*
X23662Y-40137D02*
X23878Y-39921D01*
G54D10*
G36*
X31012Y-44250D02*
X30984Y-44250D01*
X30984Y-41500D01*
X30984Y-41400D01*
X30984Y-36800D01*
X30984Y-36799D01*
X30970Y-36729D01*
X30930Y-36669D01*
X30930Y-36669D01*
X30825Y-36564D01*
X30825Y-18175D01*
X30825Y-17375D01*
X30806Y-17329D01*
X30770Y-17294D01*
X30724Y-17275D01*
X30675Y-17274D01*
X30265Y-17274D01*
X30265Y-13657D01*
X30265Y-12842D01*
X30225Y-12645D01*
X30114Y-12478D01*
X29947Y-12366D01*
X29750Y-12327D01*
X29552Y-12366D01*
X29385Y-12478D01*
X29274Y-12645D01*
X29235Y-12842D01*
X29235Y-13657D01*
X29274Y-13854D01*
X29385Y-14021D01*
X29552Y-14133D01*
X29750Y-14172D01*
X29947Y-14133D01*
X30114Y-14021D01*
X30225Y-13854D01*
X30265Y-13657D01*
X30265Y-17274D01*
X30075Y-17274D01*
X30029Y-17293D01*
X29994Y-17329D01*
X29975Y-17375D01*
X29974Y-17424D01*
X29974Y-18224D01*
X29993Y-18270D01*
X30029Y-18305D01*
X30075Y-18324D01*
X30124Y-18325D01*
X30215Y-18325D01*
X30215Y-18955D01*
X29880Y-18619D01*
X29820Y-18579D01*
X29750Y-18565D01*
X29586Y-18565D01*
X29586Y-16750D01*
X29575Y-16693D01*
X29575Y-15535D01*
X29575Y-14915D01*
X29556Y-14869D01*
X29520Y-14834D01*
X29474Y-14815D01*
X29425Y-14814D01*
X28749Y-14814D01*
X28749Y-13657D01*
X28749Y-12842D01*
X28710Y-12645D01*
X28598Y-12478D01*
X28431Y-12366D01*
X28234Y-12327D01*
X28037Y-12366D01*
X27870Y-12478D01*
X27758Y-12645D01*
X27719Y-12842D01*
X27719Y-13657D01*
X27758Y-13854D01*
X27870Y-14021D01*
X28037Y-14133D01*
X28234Y-14172D01*
X28431Y-14133D01*
X28598Y-14021D01*
X28710Y-13854D01*
X28749Y-13657D01*
X28749Y-14814D01*
X28525Y-14814D01*
X28479Y-14833D01*
X28444Y-14869D01*
X28425Y-14915D01*
X28424Y-14964D01*
X28424Y-15584D01*
X28443Y-15630D01*
X28479Y-15665D01*
X28525Y-15684D01*
X28574Y-15685D01*
X29474Y-15685D01*
X29520Y-15666D01*
X29555Y-15630D01*
X29574Y-15584D01*
X29575Y-15535D01*
X29575Y-16693D01*
X29553Y-16583D01*
X29458Y-16442D01*
X29317Y-16348D01*
X29151Y-16315D01*
X28848Y-16315D01*
X28682Y-16348D01*
X28541Y-16442D01*
X28446Y-16583D01*
X28413Y-16750D01*
X28446Y-16916D01*
X28541Y-17057D01*
X28682Y-17151D01*
X28848Y-17185D01*
X29151Y-17185D01*
X29317Y-17151D01*
X29458Y-17057D01*
X29553Y-16916D01*
X29586Y-16750D01*
X29586Y-18565D01*
X29475Y-18565D01*
X29475Y-18185D01*
X29475Y-17414D01*
X29474Y-17385D01*
X29463Y-17357D01*
X29442Y-17336D01*
X29414Y-17324D01*
X29268Y-17325D01*
X29250Y-17343D01*
X29250Y-17600D01*
X29456Y-17600D01*
X29475Y-17581D01*
X29475Y-17414D01*
X29475Y-18185D01*
X29475Y-18018D01*
X29456Y-18000D01*
X29250Y-18000D01*
X29250Y-18256D01*
X29268Y-18275D01*
X29414Y-18275D01*
X29442Y-18263D01*
X29463Y-18242D01*
X29474Y-18214D01*
X29475Y-18185D01*
X29475Y-18565D01*
X28950Y-18565D01*
X28950Y-18256D01*
X28950Y-18000D01*
X28950Y-17600D01*
X28950Y-17343D01*
X28931Y-17325D01*
X28785Y-17324D01*
X28757Y-17336D01*
X28736Y-17357D01*
X28725Y-17385D01*
X28724Y-17414D01*
X28725Y-17581D01*
X28743Y-17600D01*
X28950Y-17600D01*
X28950Y-18000D01*
X28743Y-18000D01*
X28725Y-18018D01*
X28724Y-18185D01*
X28725Y-18214D01*
X28736Y-18242D01*
X28757Y-18263D01*
X28785Y-18275D01*
X28931Y-18275D01*
X28950Y-18256D01*
X28950Y-18565D01*
X28500Y-18565D01*
X28429Y-18579D01*
X28369Y-18619D01*
X27923Y-19065D01*
X26749Y-19065D01*
X26838Y-18976D01*
X26899Y-18829D01*
X26900Y-18670D01*
X26839Y-18523D01*
X26825Y-18509D01*
X26825Y-16000D01*
X26800Y-15875D01*
X26800Y-15875D01*
X26772Y-15833D01*
X26729Y-15770D01*
X26729Y-15770D01*
X26229Y-15270D01*
X26124Y-15199D01*
X26000Y-15175D01*
X25567Y-15175D01*
X25531Y-15121D01*
X25522Y-15115D01*
X25522Y-13555D01*
X25522Y-12944D01*
X25515Y-12737D01*
X25429Y-12549D01*
X25258Y-12473D01*
X25195Y-12458D01*
X25195Y-13025D01*
X25484Y-13025D01*
X25522Y-12944D01*
X25522Y-13555D01*
X25484Y-13475D01*
X25195Y-13475D01*
X25195Y-14041D01*
X25258Y-14026D01*
X25429Y-13950D01*
X25515Y-13762D01*
X25522Y-13555D01*
X25522Y-15115D01*
X25357Y-15005D01*
X25153Y-14965D01*
X24846Y-14965D01*
X24805Y-14973D01*
X24805Y-14041D01*
X24805Y-13475D01*
X24805Y-13025D01*
X24805Y-12458D01*
X24741Y-12473D01*
X24570Y-12549D01*
X24484Y-12737D01*
X24477Y-12944D01*
X24515Y-13025D01*
X24805Y-13025D01*
X24805Y-13475D01*
X24515Y-13475D01*
X24477Y-13555D01*
X24484Y-13762D01*
X24570Y-13950D01*
X24741Y-14026D01*
X24805Y-14041D01*
X24805Y-14973D01*
X24642Y-15005D01*
X24468Y-15121D01*
X24352Y-15295D01*
X24343Y-15339D01*
X24330Y-15319D01*
X23880Y-14869D01*
X23825Y-14833D01*
X23825Y-14833D01*
X23825Y-14575D01*
X23806Y-14529D01*
X23770Y-14494D01*
X23724Y-14475D01*
X23718Y-14475D01*
X23718Y-14108D01*
X23848Y-14021D01*
X23960Y-13854D01*
X23999Y-13657D01*
X23999Y-12842D01*
X23960Y-12645D01*
X23848Y-12478D01*
X23681Y-12366D01*
X23484Y-12327D01*
X23287Y-12366D01*
X23120Y-12478D01*
X23008Y-12645D01*
X22969Y-12842D01*
X22969Y-13657D01*
X23008Y-13854D01*
X23120Y-14021D01*
X23287Y-14133D01*
X23350Y-14146D01*
X23350Y-14474D01*
X23075Y-14474D01*
X23029Y-14493D01*
X22994Y-14529D01*
X22975Y-14575D01*
X22974Y-14624D01*
X22974Y-15424D01*
X22993Y-15470D01*
X23029Y-15505D01*
X23075Y-15524D01*
X23124Y-15525D01*
X23724Y-15525D01*
X23770Y-15506D01*
X23805Y-15470D01*
X23824Y-15424D01*
X23825Y-15375D01*
X23825Y-15335D01*
X24015Y-15526D01*
X24015Y-22950D01*
X24029Y-23020D01*
X24069Y-23080D01*
X24596Y-23607D01*
X24579Y-23600D01*
X24420Y-23599D01*
X24273Y-23660D01*
X24161Y-23773D01*
X24100Y-23920D01*
X24100Y-23940D01*
X23270Y-24770D01*
X23199Y-24875D01*
X23175Y-25000D01*
X23175Y-25332D01*
X23055Y-25452D01*
X22975Y-25645D01*
X22974Y-25853D01*
X23054Y-26047D01*
X23202Y-26194D01*
X23395Y-26274D01*
X23603Y-26275D01*
X23797Y-26195D01*
X23944Y-26047D01*
X24024Y-25854D01*
X24025Y-25646D01*
X23945Y-25453D01*
X23825Y-25332D01*
X23825Y-25134D01*
X24559Y-24400D01*
X24579Y-24400D01*
X24726Y-24339D01*
X24838Y-24226D01*
X24899Y-24079D01*
X24900Y-23920D01*
X24892Y-23903D01*
X25065Y-24076D01*
X25065Y-26423D01*
X24925Y-26564D01*
X24925Y-25665D01*
X24860Y-25509D01*
X24741Y-25389D01*
X24584Y-25325D01*
X24415Y-25324D01*
X24259Y-25389D01*
X24139Y-25508D01*
X24075Y-25665D01*
X24074Y-25834D01*
X24139Y-25990D01*
X24258Y-26110D01*
X24415Y-26174D01*
X24584Y-26175D01*
X24740Y-26110D01*
X24860Y-25991D01*
X24924Y-25834D01*
X24925Y-25665D01*
X24925Y-26564D01*
X24923Y-26565D01*
X24883Y-26565D01*
X24860Y-26509D01*
X24741Y-26389D01*
X24584Y-26325D01*
X24415Y-26324D01*
X24259Y-26389D01*
X24139Y-26508D01*
X24075Y-26665D01*
X24074Y-26834D01*
X24139Y-26990D01*
X24258Y-27110D01*
X24415Y-27174D01*
X24584Y-27175D01*
X24740Y-27110D01*
X24860Y-26991D01*
X24883Y-26934D01*
X25000Y-26934D01*
X25000Y-26934D01*
X25070Y-26920D01*
X25070Y-26920D01*
X25130Y-26880D01*
X25380Y-26630D01*
X25380Y-26630D01*
X25420Y-26570D01*
X25434Y-26500D01*
X25434Y-26500D01*
X25434Y-24000D01*
X25420Y-23929D01*
X25380Y-23869D01*
X25380Y-23869D01*
X24384Y-22873D01*
X24384Y-15751D01*
X24468Y-15878D01*
X24642Y-15994D01*
X24846Y-16035D01*
X25153Y-16035D01*
X25357Y-15994D01*
X25531Y-15878D01*
X25567Y-15825D01*
X25865Y-15825D01*
X26175Y-16134D01*
X26175Y-18509D01*
X26161Y-18523D01*
X26100Y-18670D01*
X26099Y-18829D01*
X26160Y-18976D01*
X26250Y-19065D01*
X25576Y-19065D01*
X25184Y-18673D01*
X25184Y-16928D01*
X25317Y-16901D01*
X25458Y-16807D01*
X25553Y-16666D01*
X25586Y-16500D01*
X25553Y-16333D01*
X25458Y-16192D01*
X25317Y-16098D01*
X25151Y-16065D01*
X24848Y-16065D01*
X24682Y-16098D01*
X24541Y-16192D01*
X24446Y-16333D01*
X24413Y-16500D01*
X24446Y-16666D01*
X24541Y-16807D01*
X24682Y-16901D01*
X24815Y-16928D01*
X24815Y-18750D01*
X24829Y-18820D01*
X24869Y-18880D01*
X25369Y-19380D01*
X25369Y-19380D01*
X25429Y-19420D01*
X25500Y-19434D01*
X28000Y-19434D01*
X28000Y-19434D01*
X28070Y-19420D01*
X28070Y-19420D01*
X28130Y-19380D01*
X28576Y-18934D01*
X29673Y-18934D01*
X29881Y-19141D01*
X29869Y-19154D01*
X29850Y-19200D01*
X29849Y-19249D01*
X29849Y-19799D01*
X29868Y-19845D01*
X29904Y-19880D01*
X29950Y-19899D01*
X29999Y-19900D01*
X30549Y-19900D01*
X30595Y-19881D01*
X30630Y-19845D01*
X30649Y-19799D01*
X30650Y-19750D01*
X30650Y-19200D01*
X30631Y-19154D01*
X30595Y-19119D01*
X30584Y-19114D01*
X30584Y-18325D01*
X30724Y-18325D01*
X30770Y-18306D01*
X30805Y-18270D01*
X30824Y-18224D01*
X30825Y-18175D01*
X30825Y-36564D01*
X30501Y-36241D01*
X30524Y-36184D01*
X30525Y-36015D01*
X30525Y-35015D01*
X30525Y-34015D01*
X30525Y-33015D01*
X30525Y-32015D01*
X30525Y-31015D01*
X30525Y-30015D01*
X30525Y-29015D01*
X30525Y-28015D01*
X30525Y-27015D01*
X30525Y-26015D01*
X30525Y-25015D01*
X30525Y-24015D01*
X30525Y-23015D01*
X30525Y-22015D01*
X30460Y-21859D01*
X30341Y-21739D01*
X30184Y-21675D01*
X30015Y-21674D01*
X29859Y-21739D01*
X29739Y-21858D01*
X29675Y-22015D01*
X29674Y-22184D01*
X29739Y-22340D01*
X29858Y-22460D01*
X30015Y-22524D01*
X30184Y-22525D01*
X30340Y-22460D01*
X30460Y-22341D01*
X30524Y-22184D01*
X30525Y-22015D01*
X30525Y-23015D01*
X30460Y-22859D01*
X30341Y-22739D01*
X30184Y-22675D01*
X30015Y-22674D01*
X29859Y-22739D01*
X29739Y-22858D01*
X29675Y-23015D01*
X29674Y-23184D01*
X29739Y-23340D01*
X29858Y-23460D01*
X30015Y-23524D01*
X30184Y-23525D01*
X30340Y-23460D01*
X30460Y-23341D01*
X30524Y-23184D01*
X30525Y-23015D01*
X30525Y-24015D01*
X30460Y-23859D01*
X30341Y-23739D01*
X30184Y-23675D01*
X30015Y-23674D01*
X29859Y-23739D01*
X29739Y-23858D01*
X29675Y-24015D01*
X29674Y-24184D01*
X29739Y-24340D01*
X29858Y-24460D01*
X30015Y-24524D01*
X30184Y-24525D01*
X30340Y-24460D01*
X30460Y-24341D01*
X30524Y-24184D01*
X30525Y-24015D01*
X30525Y-25015D01*
X30460Y-24859D01*
X30341Y-24739D01*
X30184Y-24675D01*
X30015Y-24674D01*
X29859Y-24739D01*
X29739Y-24858D01*
X29675Y-25015D01*
X29674Y-25184D01*
X29739Y-25340D01*
X29858Y-25460D01*
X30015Y-25524D01*
X30184Y-25525D01*
X30340Y-25460D01*
X30460Y-25341D01*
X30524Y-25184D01*
X30525Y-25015D01*
X30525Y-26015D01*
X30460Y-25859D01*
X30341Y-25739D01*
X30184Y-25675D01*
X30015Y-25674D01*
X29859Y-25739D01*
X29739Y-25858D01*
X29675Y-26015D01*
X29674Y-26184D01*
X29739Y-26340D01*
X29858Y-26460D01*
X30015Y-26524D01*
X30184Y-26525D01*
X30340Y-26460D01*
X30460Y-26341D01*
X30524Y-26184D01*
X30525Y-26015D01*
X30525Y-27015D01*
X30460Y-26859D01*
X30341Y-26739D01*
X30184Y-26675D01*
X30015Y-26674D01*
X29859Y-26739D01*
X29739Y-26858D01*
X29675Y-27015D01*
X29674Y-27184D01*
X29739Y-27340D01*
X29858Y-27460D01*
X30015Y-27524D01*
X30184Y-27525D01*
X30340Y-27460D01*
X30460Y-27341D01*
X30524Y-27184D01*
X30525Y-27015D01*
X30525Y-28015D01*
X30460Y-27859D01*
X30341Y-27739D01*
X30184Y-27675D01*
X30015Y-27674D01*
X29859Y-27739D01*
X29739Y-27858D01*
X29675Y-28015D01*
X29674Y-28184D01*
X29739Y-28340D01*
X29858Y-28460D01*
X30015Y-28524D01*
X30184Y-28525D01*
X30340Y-28460D01*
X30460Y-28341D01*
X30524Y-28184D01*
X30525Y-28015D01*
X30525Y-29015D01*
X30460Y-28859D01*
X30341Y-28739D01*
X30184Y-28675D01*
X30015Y-28674D01*
X29859Y-28739D01*
X29739Y-28858D01*
X29675Y-29015D01*
X29674Y-29184D01*
X29739Y-29340D01*
X29858Y-29460D01*
X30015Y-29524D01*
X30184Y-29525D01*
X30340Y-29460D01*
X30460Y-29341D01*
X30524Y-29184D01*
X30525Y-29015D01*
X30525Y-30015D01*
X30460Y-29859D01*
X30341Y-29739D01*
X30184Y-29675D01*
X30015Y-29674D01*
X29859Y-29739D01*
X29739Y-29858D01*
X29675Y-30015D01*
X29674Y-30184D01*
X29739Y-30340D01*
X29858Y-30460D01*
X30015Y-30524D01*
X30184Y-30525D01*
X30340Y-30460D01*
X30460Y-30341D01*
X30524Y-30184D01*
X30525Y-30015D01*
X30525Y-31015D01*
X30460Y-30859D01*
X30341Y-30739D01*
X30184Y-30675D01*
X30015Y-30674D01*
X29859Y-30739D01*
X29739Y-30858D01*
X29675Y-31015D01*
X29674Y-31184D01*
X29739Y-31340D01*
X29858Y-31460D01*
X30015Y-31524D01*
X30184Y-31525D01*
X30340Y-31460D01*
X30460Y-31341D01*
X30524Y-31184D01*
X30525Y-31015D01*
X30525Y-32015D01*
X30460Y-31859D01*
X30341Y-31739D01*
X30184Y-31675D01*
X30015Y-31674D01*
X29859Y-31739D01*
X29739Y-31858D01*
X29675Y-32015D01*
X29674Y-32184D01*
X29739Y-32340D01*
X29858Y-32460D01*
X30015Y-32524D01*
X30184Y-32525D01*
X30340Y-32460D01*
X30460Y-32341D01*
X30524Y-32184D01*
X30525Y-32015D01*
X30525Y-33015D01*
X30460Y-32859D01*
X30341Y-32739D01*
X30184Y-32675D01*
X30015Y-32674D01*
X29859Y-32739D01*
X29739Y-32858D01*
X29675Y-33015D01*
X29674Y-33184D01*
X29739Y-33340D01*
X29858Y-33460D01*
X30015Y-33524D01*
X30184Y-33525D01*
X30340Y-33460D01*
X30460Y-33341D01*
X30524Y-33184D01*
X30525Y-33015D01*
X30525Y-34015D01*
X30460Y-33859D01*
X30341Y-33739D01*
X30184Y-33675D01*
X30015Y-33674D01*
X29859Y-33739D01*
X29739Y-33858D01*
X29675Y-34015D01*
X29674Y-34184D01*
X29739Y-34340D01*
X29858Y-34460D01*
X30015Y-34524D01*
X30184Y-34525D01*
X30340Y-34460D01*
X30460Y-34341D01*
X30524Y-34184D01*
X30525Y-34015D01*
X30525Y-35015D01*
X30460Y-34859D01*
X30341Y-34739D01*
X30184Y-34675D01*
X30015Y-34674D01*
X29859Y-34739D01*
X29739Y-34858D01*
X29675Y-35015D01*
X29674Y-35184D01*
X29739Y-35340D01*
X29858Y-35460D01*
X30015Y-35524D01*
X30184Y-35525D01*
X30340Y-35460D01*
X30460Y-35341D01*
X30524Y-35184D01*
X30525Y-35015D01*
X30525Y-36015D01*
X30460Y-35859D01*
X30341Y-35739D01*
X30184Y-35675D01*
X30015Y-35674D01*
X29859Y-35739D01*
X29739Y-35858D01*
X29675Y-36015D01*
X29674Y-36184D01*
X29739Y-36340D01*
X29858Y-36460D01*
X30015Y-36524D01*
X30184Y-36525D01*
X30241Y-36501D01*
X30615Y-36876D01*
X30615Y-40733D01*
X30590Y-40672D01*
X30527Y-40609D01*
X30525Y-40608D01*
X30525Y-40015D01*
X30525Y-39015D01*
X30525Y-38015D01*
X30476Y-37899D01*
X30476Y-37036D01*
X30472Y-37014D01*
X30440Y-36971D01*
X30312Y-37100D01*
X30440Y-37228D01*
X30472Y-37185D01*
X30476Y-37036D01*
X30476Y-37899D01*
X30460Y-37859D01*
X30341Y-37739D01*
X30228Y-37693D01*
X30228Y-37440D01*
X30228Y-36759D01*
X30185Y-36727D01*
X30036Y-36723D01*
X30014Y-36727D01*
X29971Y-36759D01*
X30100Y-36887D01*
X30228Y-36759D01*
X30228Y-37440D01*
X30100Y-37312D01*
X29971Y-37440D01*
X30014Y-37472D01*
X30163Y-37476D01*
X30185Y-37472D01*
X30228Y-37440D01*
X30228Y-37693D01*
X30184Y-37675D01*
X30015Y-37674D01*
X29887Y-37727D01*
X29887Y-37100D01*
X29759Y-36971D01*
X29727Y-37014D01*
X29723Y-37163D01*
X29727Y-37185D01*
X29759Y-37228D01*
X29887Y-37100D01*
X29887Y-37727D01*
X29859Y-37739D01*
X29739Y-37858D01*
X29675Y-38015D01*
X29674Y-38184D01*
X29739Y-38340D01*
X29858Y-38460D01*
X30015Y-38524D01*
X30184Y-38525D01*
X30340Y-38460D01*
X30460Y-38341D01*
X30524Y-38184D01*
X30525Y-38015D01*
X30525Y-39015D01*
X30460Y-38859D01*
X30341Y-38739D01*
X30184Y-38675D01*
X30015Y-38674D01*
X29859Y-38739D01*
X29739Y-38858D01*
X29675Y-39015D01*
X29674Y-39184D01*
X29739Y-39340D01*
X29858Y-39460D01*
X30015Y-39524D01*
X30184Y-39525D01*
X30340Y-39460D01*
X30460Y-39341D01*
X30524Y-39184D01*
X30525Y-39015D01*
X30525Y-40015D01*
X30460Y-39859D01*
X30341Y-39739D01*
X30184Y-39675D01*
X30015Y-39674D01*
X29859Y-39739D01*
X29739Y-39858D01*
X29675Y-40015D01*
X29674Y-40184D01*
X29739Y-40340D01*
X29858Y-40460D01*
X30015Y-40524D01*
X30184Y-40525D01*
X30340Y-40460D01*
X30460Y-40341D01*
X30524Y-40184D01*
X30525Y-40015D01*
X30525Y-40608D01*
X30444Y-40575D01*
X30355Y-40574D01*
X29755Y-40574D01*
X29672Y-40609D01*
X29650Y-40631D01*
X29650Y-20420D01*
X29602Y-20305D01*
X29602Y-19443D01*
X29597Y-19417D01*
X29565Y-19378D01*
X29444Y-19500D01*
X29565Y-19621D01*
X29597Y-19582D01*
X29602Y-19443D01*
X29602Y-20305D01*
X29589Y-20273D01*
X29476Y-20161D01*
X29371Y-20117D01*
X29371Y-19815D01*
X29371Y-19184D01*
X29332Y-19152D01*
X29193Y-19147D01*
X29167Y-19152D01*
X29128Y-19184D01*
X29250Y-19305D01*
X29371Y-19184D01*
X29371Y-19815D01*
X29250Y-19694D01*
X29128Y-19815D01*
X29167Y-19847D01*
X29306Y-19852D01*
X29332Y-19847D01*
X29371Y-19815D01*
X29371Y-20117D01*
X29329Y-20100D01*
X29170Y-20099D01*
X29055Y-20147D01*
X29055Y-19500D01*
X28934Y-19378D01*
X28902Y-19417D01*
X28897Y-19556D01*
X28902Y-19582D01*
X28934Y-19621D01*
X29055Y-19500D01*
X29055Y-20147D01*
X29023Y-20160D01*
X28911Y-20273D01*
X28850Y-20420D01*
X28849Y-20579D01*
X28867Y-20622D01*
X28394Y-21094D01*
X28354Y-21154D01*
X28340Y-21225D01*
X28340Y-36775D01*
X28354Y-36845D01*
X28394Y-36905D01*
X28675Y-37185D01*
X28739Y-37340D01*
X28858Y-37460D01*
X29015Y-37524D01*
X29184Y-37525D01*
X29340Y-37460D01*
X29460Y-37341D01*
X29524Y-37184D01*
X29525Y-37015D01*
X29460Y-36859D01*
X29341Y-36739D01*
X29184Y-36675D01*
X29015Y-36674D01*
X28859Y-36739D01*
X28804Y-36794D01*
X28709Y-36698D01*
X28709Y-36266D01*
X28739Y-36340D01*
X28858Y-36460D01*
X29015Y-36524D01*
X29184Y-36525D01*
X29340Y-36460D01*
X29460Y-36341D01*
X29524Y-36184D01*
X29525Y-36015D01*
X29460Y-35859D01*
X29341Y-35739D01*
X29184Y-35675D01*
X29015Y-35674D01*
X28859Y-35739D01*
X28739Y-35858D01*
X28709Y-35933D01*
X28709Y-35266D01*
X28739Y-35340D01*
X28858Y-35460D01*
X29015Y-35524D01*
X29184Y-35525D01*
X29340Y-35460D01*
X29460Y-35341D01*
X29524Y-35184D01*
X29525Y-35015D01*
X29460Y-34859D01*
X29341Y-34739D01*
X29184Y-34675D01*
X29015Y-34674D01*
X28859Y-34739D01*
X28739Y-34858D01*
X28709Y-34933D01*
X28709Y-34266D01*
X28739Y-34340D01*
X28858Y-34460D01*
X29015Y-34524D01*
X29184Y-34525D01*
X29340Y-34460D01*
X29460Y-34341D01*
X29524Y-34184D01*
X29525Y-34015D01*
X29460Y-33859D01*
X29341Y-33739D01*
X29184Y-33675D01*
X29015Y-33674D01*
X28859Y-33739D01*
X28739Y-33858D01*
X28709Y-33933D01*
X28709Y-33266D01*
X28739Y-33340D01*
X28858Y-33460D01*
X29015Y-33524D01*
X29184Y-33525D01*
X29340Y-33460D01*
X29460Y-33341D01*
X29524Y-33184D01*
X29525Y-33015D01*
X29460Y-32859D01*
X29341Y-32739D01*
X29184Y-32675D01*
X29015Y-32674D01*
X28859Y-32739D01*
X28739Y-32858D01*
X28709Y-32933D01*
X28709Y-32266D01*
X28739Y-32340D01*
X28858Y-32460D01*
X29015Y-32524D01*
X29184Y-32525D01*
X29340Y-32460D01*
X29460Y-32341D01*
X29524Y-32184D01*
X29525Y-32015D01*
X29460Y-31859D01*
X29341Y-31739D01*
X29184Y-31675D01*
X29015Y-31674D01*
X28859Y-31739D01*
X28739Y-31858D01*
X28709Y-31933D01*
X28709Y-31266D01*
X28739Y-31340D01*
X28858Y-31460D01*
X29015Y-31524D01*
X29184Y-31525D01*
X29340Y-31460D01*
X29460Y-31341D01*
X29524Y-31184D01*
X29525Y-31015D01*
X29460Y-30859D01*
X29341Y-30739D01*
X29184Y-30675D01*
X29015Y-30674D01*
X28859Y-30739D01*
X28739Y-30858D01*
X28709Y-30933D01*
X28709Y-30266D01*
X28739Y-30340D01*
X28858Y-30460D01*
X29015Y-30524D01*
X29184Y-30525D01*
X29340Y-30460D01*
X29460Y-30341D01*
X29524Y-30184D01*
X29525Y-30015D01*
X29460Y-29859D01*
X29341Y-29739D01*
X29184Y-29675D01*
X29015Y-29674D01*
X28859Y-29739D01*
X28739Y-29858D01*
X28709Y-29933D01*
X28709Y-29266D01*
X28739Y-29340D01*
X28858Y-29460D01*
X29015Y-29524D01*
X29184Y-29525D01*
X29340Y-29460D01*
X29460Y-29341D01*
X29524Y-29184D01*
X29525Y-29015D01*
X29460Y-28859D01*
X29341Y-28739D01*
X29184Y-28675D01*
X29015Y-28674D01*
X28859Y-28739D01*
X28739Y-28858D01*
X28709Y-28933D01*
X28709Y-28266D01*
X28739Y-28340D01*
X28858Y-28460D01*
X29015Y-28524D01*
X29184Y-28525D01*
X29340Y-28460D01*
X29460Y-28341D01*
X29524Y-28184D01*
X29525Y-28015D01*
X29460Y-27859D01*
X29341Y-27739D01*
X29184Y-27675D01*
X29015Y-27674D01*
X28859Y-27739D01*
X28739Y-27858D01*
X28709Y-27933D01*
X28709Y-27266D01*
X28739Y-27340D01*
X28858Y-27460D01*
X29015Y-27524D01*
X29184Y-27525D01*
X29340Y-27460D01*
X29460Y-27341D01*
X29524Y-27184D01*
X29525Y-27015D01*
X29460Y-26859D01*
X29341Y-26739D01*
X29184Y-26675D01*
X29015Y-26674D01*
X28859Y-26739D01*
X28739Y-26858D01*
X28709Y-26933D01*
X28709Y-26266D01*
X28739Y-26340D01*
X28858Y-26460D01*
X29015Y-26524D01*
X29184Y-26525D01*
X29340Y-26460D01*
X29460Y-26341D01*
X29524Y-26184D01*
X29525Y-26015D01*
X29460Y-25859D01*
X29341Y-25739D01*
X29184Y-25675D01*
X29015Y-25674D01*
X28859Y-25739D01*
X28739Y-25858D01*
X28709Y-25933D01*
X28709Y-25266D01*
X28739Y-25340D01*
X28858Y-25460D01*
X29015Y-25524D01*
X29184Y-25525D01*
X29340Y-25460D01*
X29460Y-25341D01*
X29524Y-25184D01*
X29525Y-25015D01*
X29460Y-24859D01*
X29341Y-24739D01*
X29184Y-24675D01*
X29015Y-24674D01*
X28859Y-24739D01*
X28739Y-24858D01*
X28709Y-24933D01*
X28709Y-24266D01*
X28739Y-24340D01*
X28858Y-24460D01*
X29015Y-24524D01*
X29184Y-24525D01*
X29340Y-24460D01*
X29460Y-24341D01*
X29524Y-24184D01*
X29525Y-24015D01*
X29460Y-23859D01*
X29341Y-23739D01*
X29184Y-23675D01*
X29015Y-23674D01*
X28859Y-23739D01*
X28739Y-23858D01*
X28709Y-23933D01*
X28709Y-23266D01*
X28739Y-23340D01*
X28858Y-23460D01*
X29015Y-23524D01*
X29184Y-23525D01*
X29340Y-23460D01*
X29460Y-23341D01*
X29524Y-23184D01*
X29525Y-23015D01*
X29460Y-22859D01*
X29341Y-22739D01*
X29184Y-22675D01*
X29015Y-22674D01*
X28859Y-22739D01*
X28739Y-22858D01*
X28709Y-22933D01*
X28709Y-22266D01*
X28739Y-22340D01*
X28858Y-22460D01*
X29015Y-22524D01*
X29184Y-22525D01*
X29340Y-22460D01*
X29460Y-22341D01*
X29524Y-22184D01*
X29525Y-22015D01*
X29460Y-21859D01*
X29341Y-21739D01*
X29184Y-21675D01*
X29015Y-21674D01*
X28859Y-21739D01*
X28739Y-21858D01*
X28709Y-21933D01*
X28709Y-21301D01*
X29127Y-20882D01*
X29170Y-20899D01*
X29329Y-20900D01*
X29476Y-20839D01*
X29588Y-20726D01*
X29649Y-20579D01*
X29650Y-20420D01*
X29650Y-40631D01*
X29609Y-40672D01*
X29575Y-40755D01*
X29574Y-40844D01*
X29574Y-40874D01*
X29545Y-40803D01*
X29425Y-40682D01*
X29425Y-40517D01*
X29544Y-40397D01*
X29624Y-40204D01*
X29625Y-39996D01*
X29545Y-39803D01*
X29525Y-39782D01*
X29525Y-38015D01*
X29460Y-37859D01*
X29341Y-37739D01*
X29184Y-37675D01*
X29015Y-37674D01*
X28859Y-37739D01*
X28739Y-37858D01*
X28675Y-38015D01*
X28674Y-38184D01*
X28739Y-38340D01*
X28858Y-38460D01*
X29015Y-38524D01*
X29184Y-38525D01*
X29340Y-38460D01*
X29460Y-38341D01*
X29524Y-38184D01*
X29525Y-38015D01*
X29525Y-39782D01*
X29476Y-39734D01*
X29476Y-39036D01*
X29472Y-39014D01*
X29440Y-38971D01*
X29312Y-39100D01*
X29440Y-39228D01*
X29472Y-39185D01*
X29476Y-39036D01*
X29476Y-39734D01*
X29397Y-39655D01*
X29228Y-39584D01*
X29228Y-39440D01*
X29228Y-38759D01*
X29185Y-38727D01*
X29036Y-38723D01*
X29014Y-38727D01*
X28971Y-38759D01*
X29100Y-38887D01*
X29228Y-38759D01*
X29228Y-39440D01*
X29100Y-39312D01*
X28971Y-39440D01*
X29014Y-39472D01*
X29163Y-39476D01*
X29185Y-39472D01*
X29228Y-39440D01*
X29228Y-39584D01*
X29204Y-39575D01*
X28996Y-39574D01*
X28887Y-39619D01*
X28887Y-39100D01*
X28759Y-38971D01*
X28727Y-39014D01*
X28723Y-39163D01*
X28727Y-39185D01*
X28759Y-39228D01*
X28887Y-39100D01*
X28887Y-39619D01*
X28881Y-39622D01*
X28025Y-38765D01*
X27725Y-38465D01*
X27725Y-35625D01*
X28025Y-35625D01*
X28025Y-31774D01*
X27864Y-31775D01*
X27864Y-29195D01*
X27858Y-29110D01*
X27857Y-29109D01*
X27811Y-28942D01*
X27773Y-28865D01*
X27773Y-28865D01*
X27666Y-28727D01*
X27601Y-28671D01*
X27601Y-28671D01*
X27450Y-28584D01*
X27368Y-28557D01*
X27368Y-28557D01*
X27195Y-28535D01*
X27110Y-28542D01*
X27110Y-28542D01*
X26942Y-28588D01*
X26865Y-28626D01*
X26865Y-28626D01*
X26727Y-28733D01*
X26671Y-28798D01*
X26671Y-28798D01*
X26584Y-28949D01*
X26557Y-29031D01*
X26557Y-29031D01*
X26535Y-29204D01*
X26542Y-29289D01*
X26588Y-29457D01*
X26626Y-29534D01*
X26626Y-29534D01*
X26733Y-29672D01*
X26798Y-29728D01*
X26798Y-29728D01*
X26949Y-29815D01*
X27031Y-29842D01*
X27031Y-29842D01*
X27204Y-29864D01*
X27289Y-29858D01*
X27289Y-29857D01*
X27457Y-29811D01*
X27534Y-29773D01*
X27534Y-29773D01*
X27672Y-29666D01*
X27728Y-29601D01*
X27728Y-29601D01*
X27815Y-29450D01*
X27842Y-29368D01*
X27842Y-29368D01*
X27864Y-29195D01*
X27864Y-31775D01*
X27575Y-31778D01*
X27575Y-31664D01*
X27575Y-31035D01*
X27563Y-31007D01*
X27542Y-30986D01*
X27514Y-30975D01*
X27485Y-30974D01*
X27318Y-30975D01*
X27300Y-30993D01*
X27300Y-31200D01*
X27556Y-31200D01*
X27575Y-31181D01*
X27575Y-31035D01*
X27575Y-31664D01*
X27575Y-31518D01*
X27556Y-31500D01*
X27300Y-31500D01*
X27300Y-31706D01*
X27318Y-31725D01*
X27485Y-31725D01*
X27514Y-31724D01*
X27542Y-31713D01*
X27563Y-31692D01*
X27575Y-31664D01*
X27575Y-31778D01*
X26900Y-31782D01*
X26900Y-31706D01*
X26900Y-31500D01*
X26900Y-31200D01*
X26900Y-30993D01*
X26881Y-30975D01*
X26714Y-30974D01*
X26685Y-30975D01*
X26657Y-30986D01*
X26636Y-31007D01*
X26624Y-31035D01*
X26625Y-31181D01*
X26643Y-31200D01*
X26900Y-31200D01*
X26900Y-31500D01*
X26643Y-31500D01*
X26625Y-31518D01*
X26624Y-31664D01*
X26636Y-31692D01*
X26657Y-31713D01*
X26685Y-31724D01*
X26714Y-31725D01*
X26881Y-31725D01*
X26900Y-31706D01*
X26900Y-31782D01*
X26481Y-31785D01*
X26481Y-31313D01*
X25975Y-31313D01*
X25975Y-31164D01*
X25975Y-30535D01*
X25963Y-30507D01*
X25942Y-30486D01*
X25914Y-30475D01*
X25885Y-30474D01*
X25718Y-30475D01*
X25700Y-30493D01*
X25700Y-30700D01*
X25956Y-30700D01*
X25975Y-30681D01*
X25975Y-30535D01*
X25975Y-31164D01*
X25975Y-31018D01*
X25956Y-31000D01*
X25700Y-31000D01*
X25700Y-31206D01*
X25718Y-31225D01*
X25885Y-31225D01*
X25914Y-31224D01*
X25942Y-31213D01*
X25963Y-31192D01*
X25975Y-31164D01*
X25975Y-31313D01*
X25300Y-31313D01*
X25300Y-31206D01*
X25300Y-31000D01*
X25300Y-30700D01*
X25300Y-30493D01*
X25281Y-30475D01*
X25114Y-30474D01*
X25085Y-30475D01*
X25057Y-30486D01*
X25036Y-30507D01*
X25024Y-30535D01*
X25025Y-30681D01*
X25043Y-30700D01*
X25300Y-30700D01*
X25300Y-31000D01*
X25043Y-31000D01*
X25025Y-31018D01*
X25024Y-31164D01*
X25036Y-31192D01*
X25057Y-31213D01*
X25085Y-31224D01*
X25114Y-31225D01*
X25281Y-31225D01*
X25300Y-31206D01*
X25300Y-31313D01*
X24925Y-31313D01*
X24925Y-28025D01*
X24925Y-27425D01*
X24906Y-27379D01*
X24870Y-27344D01*
X24824Y-27325D01*
X24775Y-27324D01*
X24175Y-27324D01*
X24129Y-27343D01*
X24094Y-27379D01*
X24075Y-27425D01*
X24074Y-27474D01*
X24074Y-28074D01*
X24093Y-28120D01*
X24129Y-28155D01*
X24175Y-28174D01*
X24224Y-28175D01*
X24824Y-28175D01*
X24870Y-28156D01*
X24905Y-28120D01*
X24924Y-28074D01*
X24925Y-28025D01*
X24925Y-31313D01*
X24225Y-31313D01*
X24225Y-31164D01*
X24225Y-30535D01*
X24213Y-30507D01*
X24192Y-30486D01*
X24164Y-30475D01*
X24135Y-30474D01*
X23968Y-30475D01*
X23950Y-30493D01*
X23950Y-30700D01*
X24206Y-30700D01*
X24225Y-30681D01*
X24225Y-30535D01*
X24225Y-31164D01*
X24225Y-31018D01*
X24206Y-31000D01*
X23950Y-31000D01*
X23950Y-31206D01*
X23968Y-31225D01*
X24135Y-31225D01*
X24164Y-31224D01*
X24192Y-31213D01*
X24213Y-31192D01*
X24225Y-31164D01*
X24225Y-31313D01*
X23550Y-31313D01*
X23550Y-31206D01*
X23550Y-31000D01*
X23550Y-30700D01*
X23550Y-30493D01*
X23531Y-30475D01*
X23364Y-30474D01*
X23335Y-30475D01*
X23307Y-30486D01*
X23286Y-30507D01*
X23274Y-30535D01*
X23275Y-30681D01*
X23293Y-30700D01*
X23550Y-30700D01*
X23550Y-31000D01*
X23293Y-31000D01*
X23275Y-31018D01*
X23274Y-31164D01*
X23286Y-31192D01*
X23307Y-31213D01*
X23335Y-31224D01*
X23364Y-31225D01*
X23531Y-31225D01*
X23550Y-31206D01*
X23550Y-31313D01*
X22730Y-31313D01*
X22730Y-31628D01*
X21825Y-31627D01*
X21825Y-31564D01*
X21825Y-30935D01*
X21813Y-30907D01*
X21792Y-30886D01*
X21764Y-30875D01*
X21735Y-30874D01*
X21568Y-30875D01*
X21550Y-30893D01*
X21550Y-31100D01*
X21806Y-31100D01*
X21825Y-31081D01*
X21825Y-30935D01*
X21825Y-31564D01*
X21825Y-31418D01*
X21806Y-31400D01*
X21550Y-31400D01*
X21550Y-31606D01*
X21568Y-31625D01*
X21735Y-31625D01*
X21764Y-31624D01*
X21792Y-31613D01*
X21813Y-31592D01*
X21825Y-31564D01*
X21825Y-31627D01*
X21150Y-31626D01*
X21150Y-31606D01*
X21150Y-31400D01*
X21150Y-31100D01*
X21150Y-30893D01*
X21131Y-30875D01*
X20964Y-30874D01*
X20935Y-30875D01*
X20907Y-30886D01*
X20886Y-30907D01*
X20874Y-30935D01*
X20875Y-31081D01*
X20893Y-31100D01*
X21150Y-31100D01*
X21150Y-31400D01*
X20893Y-31400D01*
X20875Y-31418D01*
X20874Y-31564D01*
X20886Y-31592D01*
X20907Y-31613D01*
X20935Y-31624D01*
X20964Y-31625D01*
X21131Y-31625D01*
X21150Y-31606D01*
X21150Y-31626D01*
X20275Y-31624D01*
X20275Y-32225D01*
X16409Y-32225D01*
X15825Y-31640D01*
X15825Y-28075D01*
X22974Y-28075D01*
X22974Y-28094D01*
X23009Y-28177D01*
X23072Y-28240D01*
X23155Y-28274D01*
X23244Y-28275D01*
X23844Y-28275D01*
X23927Y-28240D01*
X23990Y-28177D01*
X24024Y-28094D01*
X24025Y-28005D01*
X24025Y-27405D01*
X23990Y-27322D01*
X23927Y-27259D01*
X23925Y-27258D01*
X23925Y-26665D01*
X23860Y-26509D01*
X23741Y-26389D01*
X23584Y-26325D01*
X23415Y-26324D01*
X23259Y-26389D01*
X23139Y-26508D01*
X23116Y-26565D01*
X22776Y-26565D01*
X22534Y-26323D01*
X22534Y-24576D01*
X23530Y-23580D01*
X23530Y-23580D01*
X23570Y-23520D01*
X23584Y-23450D01*
X23584Y-23450D01*
X23584Y-19400D01*
X23584Y-17900D01*
X23570Y-17829D01*
X23530Y-17769D01*
X23530Y-17769D01*
X22202Y-16442D01*
X22202Y-16250D01*
X22202Y-15525D01*
X22424Y-15525D01*
X22470Y-15506D01*
X22505Y-15470D01*
X22524Y-15424D01*
X22525Y-15375D01*
X22525Y-14575D01*
X22506Y-14529D01*
X22470Y-14494D01*
X22424Y-14475D01*
X22375Y-14474D01*
X22284Y-14474D01*
X22284Y-14054D01*
X22332Y-14021D01*
X22444Y-13854D01*
X22483Y-13657D01*
X22483Y-12842D01*
X22444Y-12645D01*
X22332Y-12478D01*
X22165Y-12366D01*
X21968Y-12327D01*
X21771Y-12366D01*
X21604Y-12478D01*
X21492Y-12645D01*
X21453Y-12842D01*
X21453Y-13657D01*
X21492Y-13854D01*
X21604Y-14021D01*
X21771Y-14133D01*
X21915Y-14162D01*
X21915Y-14474D01*
X21775Y-14474D01*
X21729Y-14493D01*
X21694Y-14529D01*
X21675Y-14575D01*
X21674Y-14624D01*
X21674Y-15424D01*
X21693Y-15470D01*
X21729Y-15505D01*
X21775Y-15524D01*
X21824Y-15525D01*
X21834Y-15525D01*
X21834Y-16250D01*
X21834Y-16518D01*
X21848Y-16587D01*
X20880Y-15619D01*
X20820Y-15579D01*
X20750Y-15565D01*
X20719Y-15565D01*
X20719Y-12160D01*
X20717Y-12153D01*
X20682Y-12095D01*
X20528Y-12250D01*
X20682Y-12404D01*
X20717Y-12346D01*
X20719Y-12160D01*
X20719Y-15565D01*
X20428Y-15565D01*
X20428Y-14082D01*
X20404Y-14023D01*
X20404Y-12682D01*
X20404Y-11817D01*
X20346Y-11782D01*
X20160Y-11780D01*
X20153Y-11782D01*
X20095Y-11817D01*
X20250Y-11971D01*
X20404Y-11817D01*
X20404Y-12682D01*
X20250Y-12528D01*
X20095Y-12682D01*
X20153Y-12717D01*
X20339Y-12719D01*
X20346Y-12717D01*
X20404Y-12682D01*
X20404Y-14023D01*
X20300Y-13772D01*
X20063Y-13535D01*
X19971Y-13497D01*
X19971Y-12250D01*
X19817Y-12095D01*
X19782Y-12153D01*
X19780Y-12339D01*
X19782Y-12346D01*
X19817Y-12404D01*
X19971Y-12250D01*
X19971Y-13497D01*
X19753Y-13406D01*
X19417Y-13406D01*
X19107Y-13534D01*
X18870Y-13771D01*
X18741Y-14081D01*
X18741Y-14417D01*
X18869Y-14727D01*
X19106Y-14964D01*
X19416Y-15093D01*
X19752Y-15093D01*
X20062Y-14965D01*
X20299Y-14728D01*
X20428Y-14418D01*
X20428Y-14082D01*
X20428Y-15565D01*
X18500Y-15565D01*
X18429Y-15579D01*
X18369Y-15619D01*
X17869Y-16119D01*
X17829Y-16179D01*
X17815Y-16250D01*
X17815Y-16371D01*
X17762Y-16393D01*
X17643Y-16511D01*
X17579Y-16665D01*
X17579Y-16833D01*
X17643Y-16987D01*
X17761Y-17106D01*
X17915Y-17170D01*
X18083Y-17170D01*
X18237Y-17106D01*
X18356Y-16988D01*
X18420Y-16834D01*
X18420Y-16666D01*
X18356Y-16512D01*
X18238Y-16393D01*
X18184Y-16371D01*
X18184Y-16326D01*
X18576Y-15934D01*
X20673Y-15934D01*
X21815Y-17076D01*
X21815Y-18759D01*
X21800Y-18775D01*
X21800Y-17990D01*
X21754Y-17880D01*
X21670Y-17795D01*
X21559Y-17750D01*
X21440Y-17749D01*
X21330Y-17795D01*
X21284Y-17840D01*
X19434Y-17840D01*
X19434Y-17500D01*
X19434Y-17000D01*
X19420Y-16931D01*
X19420Y-16429D01*
X19401Y-16383D01*
X19366Y-16348D01*
X19320Y-16329D01*
X19270Y-16329D01*
X18679Y-16329D01*
X18633Y-16348D01*
X18598Y-16383D01*
X18579Y-16429D01*
X18579Y-16479D01*
X18579Y-17070D01*
X18598Y-17116D01*
X18633Y-17151D01*
X18679Y-17170D01*
X18729Y-17170D01*
X19065Y-17170D01*
X19065Y-17500D01*
X19065Y-17923D01*
X18872Y-18117D01*
X18872Y-17687D01*
X18868Y-17665D01*
X18835Y-17623D01*
X18708Y-17750D01*
X18835Y-17876D01*
X18868Y-17834D01*
X18872Y-17687D01*
X18872Y-18117D01*
X18626Y-18362D01*
X18626Y-18085D01*
X18626Y-17414D01*
X18584Y-17381D01*
X18437Y-17377D01*
X18415Y-17381D01*
X18373Y-17414D01*
X18500Y-17541D01*
X18626Y-17414D01*
X18626Y-18085D01*
X18500Y-17958D01*
X18373Y-18085D01*
X18415Y-18118D01*
X18562Y-18122D01*
X18584Y-18118D01*
X18626Y-18085D01*
X18626Y-18362D01*
X18423Y-18565D01*
X18291Y-18565D01*
X18291Y-17750D01*
X18164Y-17623D01*
X18131Y-17665D01*
X18127Y-17812D01*
X18131Y-17834D01*
X18164Y-17876D01*
X18291Y-17750D01*
X18291Y-18565D01*
X18071Y-18565D01*
X18056Y-18529D01*
X18020Y-18494D01*
X17974Y-18475D01*
X17925Y-18474D01*
X17872Y-18474D01*
X17872Y-17687D01*
X17868Y-17665D01*
X17835Y-17623D01*
X17708Y-17750D01*
X17835Y-17876D01*
X17868Y-17834D01*
X17872Y-17687D01*
X17872Y-18474D01*
X17626Y-18474D01*
X17626Y-18085D01*
X17626Y-17414D01*
X17584Y-17381D01*
X17437Y-17377D01*
X17420Y-17380D01*
X17420Y-16666D01*
X17356Y-16512D01*
X17238Y-16393D01*
X17084Y-16329D01*
X16916Y-16329D01*
X16762Y-16393D01*
X16643Y-16511D01*
X16579Y-16665D01*
X16579Y-16833D01*
X16643Y-16987D01*
X16761Y-17106D01*
X16915Y-17170D01*
X17083Y-17170D01*
X17237Y-17106D01*
X17356Y-16988D01*
X17420Y-16834D01*
X17420Y-16666D01*
X17420Y-17380D01*
X17415Y-17381D01*
X17373Y-17414D01*
X17500Y-17541D01*
X17626Y-17414D01*
X17626Y-18085D01*
X17500Y-17958D01*
X17373Y-18085D01*
X17415Y-18118D01*
X17562Y-18122D01*
X17584Y-18118D01*
X17626Y-18085D01*
X17626Y-18474D01*
X17325Y-18474D01*
X17291Y-18489D01*
X17291Y-17750D01*
X17164Y-17623D01*
X17131Y-17665D01*
X17127Y-17812D01*
X17131Y-17834D01*
X17164Y-17876D01*
X17291Y-17750D01*
X17291Y-18489D01*
X17279Y-18493D01*
X17244Y-18529D01*
X17225Y-18575D01*
X17224Y-18624D01*
X17224Y-19424D01*
X17243Y-19470D01*
X17279Y-19505D01*
X17325Y-19524D01*
X17374Y-19525D01*
X17414Y-19525D01*
X17194Y-19745D01*
X17165Y-19744D01*
X16365Y-19744D01*
X16319Y-19763D01*
X16284Y-19799D01*
X16265Y-19845D01*
X16264Y-19894D01*
X16264Y-20154D01*
X16283Y-20200D01*
X16319Y-20235D01*
X16353Y-20250D01*
X16319Y-20263D01*
X16284Y-20299D01*
X16265Y-20345D01*
X16264Y-20394D01*
X16264Y-20654D01*
X16283Y-20700D01*
X16319Y-20735D01*
X16365Y-20754D01*
X16414Y-20755D01*
X17214Y-20755D01*
X17260Y-20736D01*
X17295Y-20700D01*
X17314Y-20654D01*
X17315Y-20605D01*
X17315Y-20345D01*
X17296Y-20299D01*
X17260Y-20264D01*
X17226Y-20249D01*
X17260Y-20236D01*
X17295Y-20200D01*
X17314Y-20154D01*
X17314Y-20140D01*
X17330Y-20130D01*
X17780Y-19680D01*
X17820Y-19620D01*
X17820Y-19620D01*
X17834Y-19550D01*
X17834Y-19550D01*
X17834Y-19525D01*
X17974Y-19525D01*
X18020Y-19506D01*
X18055Y-19470D01*
X18074Y-19424D01*
X18075Y-19375D01*
X18075Y-18934D01*
X18500Y-18934D01*
X18500Y-18934D01*
X18570Y-18920D01*
X18570Y-18920D01*
X18630Y-18880D01*
X19301Y-18209D01*
X21241Y-18209D01*
X21245Y-18219D01*
X21329Y-18304D01*
X21440Y-18349D01*
X21559Y-18350D01*
X21669Y-18304D01*
X21754Y-18220D01*
X21799Y-18109D01*
X21800Y-17990D01*
X21800Y-18775D01*
X21745Y-18829D01*
X21700Y-18940D01*
X21699Y-19039D01*
X21369Y-19369D01*
X21329Y-19429D01*
X21315Y-19500D01*
X21315Y-19674D01*
X21075Y-19674D01*
X21029Y-19693D01*
X20994Y-19729D01*
X20975Y-19775D01*
X20974Y-19815D01*
X19722Y-19815D01*
X19716Y-19799D01*
X19680Y-19764D01*
X19634Y-19745D01*
X19585Y-19744D01*
X18785Y-19744D01*
X18739Y-19763D01*
X18704Y-19799D01*
X18685Y-19845D01*
X18684Y-19894D01*
X18684Y-20154D01*
X18703Y-20200D01*
X18739Y-20235D01*
X18785Y-20254D01*
X18834Y-20255D01*
X19634Y-20255D01*
X19680Y-20236D01*
X19715Y-20200D01*
X19722Y-20184D01*
X20974Y-20184D01*
X20974Y-20424D01*
X20993Y-20470D01*
X21029Y-20505D01*
X21075Y-20524D01*
X21124Y-20525D01*
X21924Y-20525D01*
X21970Y-20506D01*
X22005Y-20470D01*
X22024Y-20424D01*
X22025Y-20375D01*
X22025Y-19775D01*
X22006Y-19729D01*
X21970Y-19694D01*
X21924Y-19675D01*
X21875Y-19674D01*
X21684Y-19674D01*
X21684Y-19576D01*
X21960Y-19299D01*
X22059Y-19300D01*
X22169Y-19254D01*
X22254Y-19170D01*
X22299Y-19059D01*
X22300Y-18940D01*
X22254Y-18830D01*
X22184Y-18759D01*
X22184Y-17000D01*
X22170Y-16930D01*
X23215Y-17976D01*
X23215Y-19400D01*
X23215Y-23373D01*
X22219Y-24369D01*
X22179Y-24429D01*
X22165Y-24500D01*
X22165Y-26400D01*
X22179Y-26470D01*
X22219Y-26530D01*
X22569Y-26880D01*
X22569Y-26880D01*
X22629Y-26920D01*
X22699Y-26934D01*
X22700Y-26934D01*
X23116Y-26934D01*
X23139Y-26990D01*
X23258Y-27110D01*
X23415Y-27174D01*
X23584Y-27175D01*
X23740Y-27110D01*
X23860Y-26991D01*
X23924Y-26834D01*
X23925Y-26665D01*
X23925Y-27258D01*
X23844Y-27225D01*
X23755Y-27224D01*
X23155Y-27224D01*
X23072Y-27259D01*
X23009Y-27322D01*
X22975Y-27405D01*
X22975Y-27425D01*
X15909Y-27425D01*
X15825Y-27340D01*
X15825Y-22775D01*
X18260Y-22775D01*
X18384Y-22750D01*
X18384Y-22750D01*
X18489Y-22679D01*
X18509Y-22659D01*
X19314Y-21855D01*
X19654Y-21855D01*
X19727Y-21825D01*
X20908Y-21825D01*
X20909Y-21827D01*
X20972Y-21890D01*
X21055Y-21924D01*
X21144Y-21925D01*
X21944Y-21925D01*
X22027Y-21890D01*
X22090Y-21827D01*
X22124Y-21744D01*
X22125Y-21655D01*
X22125Y-21055D01*
X22090Y-20972D01*
X22043Y-20925D01*
X22070Y-20920D01*
X22070Y-20920D01*
X22130Y-20880D01*
X22630Y-20380D01*
X22630Y-20380D01*
X22670Y-20320D01*
X22684Y-20250D01*
X22684Y-20250D01*
X22684Y-20100D01*
X22684Y-19793D01*
X22805Y-19550D01*
X22809Y-19550D01*
X22919Y-19504D01*
X23004Y-19420D01*
X23049Y-19309D01*
X23050Y-19190D01*
X23004Y-19080D01*
X22920Y-18995D01*
X22809Y-18950D01*
X22690Y-18949D01*
X22580Y-18995D01*
X22495Y-19079D01*
X22450Y-19190D01*
X22449Y-19309D01*
X22479Y-19380D01*
X22335Y-19667D01*
X22333Y-19674D01*
X22329Y-19679D01*
X22324Y-19708D01*
X22316Y-19736D01*
X22317Y-19743D01*
X22315Y-19750D01*
X22315Y-20100D01*
X22315Y-20173D01*
X21923Y-20565D01*
X21100Y-20565D01*
X20950Y-20565D01*
X20879Y-20579D01*
X20819Y-20619D01*
X20623Y-20815D01*
X19800Y-20815D01*
X19722Y-20815D01*
X19716Y-20799D01*
X19685Y-20768D01*
X19685Y-20644D01*
X19685Y-20355D01*
X19673Y-20327D01*
X19652Y-20306D01*
X19624Y-20295D01*
X19595Y-20294D01*
X19428Y-20295D01*
X19410Y-20313D01*
X19410Y-20435D01*
X19666Y-20435D01*
X19685Y-20416D01*
X19685Y-20355D01*
X19685Y-20644D01*
X19685Y-20583D01*
X19666Y-20565D01*
X19410Y-20565D01*
X19410Y-20686D01*
X19428Y-20705D01*
X19595Y-20705D01*
X19624Y-20704D01*
X19652Y-20693D01*
X19673Y-20672D01*
X19685Y-20644D01*
X19685Y-20768D01*
X19680Y-20764D01*
X19634Y-20745D01*
X19585Y-20744D01*
X19010Y-20744D01*
X19010Y-20686D01*
X19010Y-20565D01*
X19010Y-20435D01*
X19010Y-20313D01*
X18991Y-20295D01*
X18824Y-20294D01*
X18795Y-20295D01*
X18767Y-20306D01*
X18746Y-20327D01*
X18734Y-20355D01*
X18735Y-20416D01*
X18753Y-20435D01*
X19010Y-20435D01*
X19010Y-20565D01*
X18753Y-20565D01*
X18735Y-20583D01*
X18734Y-20644D01*
X18746Y-20672D01*
X18767Y-20693D01*
X18795Y-20704D01*
X18824Y-20705D01*
X18991Y-20705D01*
X19010Y-20686D01*
X19010Y-20744D01*
X18785Y-20744D01*
X18739Y-20763D01*
X18704Y-20799D01*
X18685Y-20845D01*
X18684Y-20894D01*
X18684Y-21154D01*
X18693Y-21174D01*
X18682Y-21179D01*
X18619Y-21242D01*
X18585Y-21325D01*
X18584Y-21414D01*
X18584Y-21665D01*
X18125Y-22125D01*
X17265Y-22125D01*
X17265Y-21644D01*
X17265Y-21355D01*
X17265Y-21144D01*
X17265Y-20855D01*
X17253Y-20827D01*
X17232Y-20806D01*
X17204Y-20795D01*
X17175Y-20794D01*
X17008Y-20795D01*
X16990Y-20813D01*
X16990Y-20935D01*
X17246Y-20935D01*
X17265Y-20916D01*
X17265Y-20855D01*
X17265Y-21144D01*
X17265Y-21083D01*
X17246Y-21065D01*
X16990Y-21065D01*
X16990Y-21186D01*
X17008Y-21205D01*
X17175Y-21205D01*
X17204Y-21204D01*
X17232Y-21193D01*
X17253Y-21172D01*
X17265Y-21144D01*
X17265Y-21355D01*
X17253Y-21327D01*
X17232Y-21306D01*
X17204Y-21295D01*
X17175Y-21294D01*
X17008Y-21295D01*
X16990Y-21313D01*
X16990Y-21435D01*
X17246Y-21435D01*
X17265Y-21416D01*
X17265Y-21355D01*
X17265Y-21644D01*
X17265Y-21583D01*
X17246Y-21565D01*
X16990Y-21565D01*
X16990Y-21686D01*
X17008Y-21705D01*
X17175Y-21705D01*
X17204Y-21704D01*
X17232Y-21693D01*
X17253Y-21672D01*
X17265Y-21644D01*
X17265Y-22125D01*
X16590Y-22125D01*
X16590Y-21686D01*
X16590Y-21565D01*
X16590Y-21435D01*
X16590Y-21313D01*
X16590Y-21186D01*
X16590Y-21065D01*
X16590Y-20935D01*
X16590Y-20813D01*
X16571Y-20795D01*
X16404Y-20794D01*
X16375Y-20795D01*
X16347Y-20806D01*
X16326Y-20827D01*
X16314Y-20855D01*
X16315Y-20916D01*
X16333Y-20935D01*
X16590Y-20935D01*
X16590Y-21065D01*
X16333Y-21065D01*
X16315Y-21083D01*
X16314Y-21144D01*
X16326Y-21172D01*
X16347Y-21193D01*
X16375Y-21204D01*
X16404Y-21205D01*
X16571Y-21205D01*
X16590Y-21186D01*
X16590Y-21313D01*
X16571Y-21295D01*
X16404Y-21294D01*
X16375Y-21295D01*
X16347Y-21306D01*
X16326Y-21327D01*
X16314Y-21355D01*
X16315Y-21416D01*
X16333Y-21435D01*
X16590Y-21435D01*
X16590Y-21565D01*
X16333Y-21565D01*
X16315Y-21583D01*
X16314Y-21644D01*
X16326Y-21672D01*
X16347Y-21693D01*
X16375Y-21704D01*
X16404Y-21705D01*
X16571Y-21705D01*
X16590Y-21686D01*
X16590Y-22125D01*
X15825Y-22125D01*
X15825Y-22050D01*
X15825Y-19444D01*
X15859Y-19527D01*
X15922Y-19590D01*
X16005Y-19624D01*
X16094Y-19625D01*
X16694Y-19625D01*
X16777Y-19590D01*
X16840Y-19527D01*
X16874Y-19444D01*
X16875Y-19355D01*
X16875Y-18555D01*
X16872Y-18549D01*
X16872Y-17687D01*
X16868Y-17665D01*
X16835Y-17623D01*
X16708Y-17750D01*
X16835Y-17876D01*
X16868Y-17834D01*
X16872Y-17687D01*
X16872Y-18549D01*
X16840Y-18472D01*
X16777Y-18409D01*
X16694Y-18375D01*
X16626Y-18374D01*
X16626Y-18085D01*
X16626Y-17414D01*
X16584Y-17381D01*
X16437Y-17377D01*
X16415Y-17381D01*
X16373Y-17414D01*
X16500Y-17541D01*
X16626Y-17414D01*
X16626Y-18085D01*
X16500Y-17958D01*
X16373Y-18085D01*
X16415Y-18118D01*
X16562Y-18122D01*
X16584Y-18118D01*
X16626Y-18085D01*
X16626Y-18374D01*
X16605Y-18374D01*
X16291Y-18374D01*
X16291Y-17750D01*
X16164Y-17623D01*
X16131Y-17665D01*
X16127Y-17812D01*
X16131Y-17834D01*
X16164Y-17876D01*
X16291Y-17750D01*
X16291Y-18374D01*
X16034Y-18374D01*
X15825Y-18165D01*
X15825Y-18161D01*
X15941Y-18045D01*
X16020Y-17853D01*
X16020Y-17646D01*
X15941Y-17455D01*
X15847Y-17361D01*
X15939Y-17270D01*
X16103Y-17270D01*
X16294Y-17191D01*
X16441Y-17045D01*
X16520Y-16853D01*
X16520Y-16646D01*
X16441Y-16455D01*
X16295Y-16308D01*
X16103Y-16229D01*
X15896Y-16229D01*
X15755Y-16287D01*
X15755Y-14082D01*
X15627Y-13772D01*
X15390Y-13535D01*
X15080Y-13406D01*
X14744Y-13406D01*
X14719Y-13416D01*
X14719Y-12160D01*
X14717Y-12153D01*
X14682Y-12095D01*
X14528Y-12250D01*
X14682Y-12404D01*
X14717Y-12346D01*
X14719Y-12160D01*
X14719Y-13416D01*
X14434Y-13534D01*
X14404Y-13565D01*
X14404Y-12682D01*
X14404Y-11817D01*
X14346Y-11782D01*
X14160Y-11780D01*
X14153Y-11782D01*
X14095Y-11817D01*
X14250Y-11971D01*
X14404Y-11817D01*
X14404Y-12682D01*
X14250Y-12528D01*
X14095Y-12682D01*
X14153Y-12717D01*
X14339Y-12719D01*
X14346Y-12717D01*
X14404Y-12682D01*
X14404Y-13565D01*
X14197Y-13771D01*
X14068Y-14081D01*
X14068Y-14417D01*
X14196Y-14727D01*
X14433Y-14964D01*
X14743Y-15093D01*
X15079Y-15093D01*
X15389Y-14965D01*
X15626Y-14728D01*
X15755Y-14418D01*
X15755Y-14082D01*
X15755Y-16287D01*
X15705Y-16308D01*
X15558Y-16454D01*
X15479Y-16646D01*
X15479Y-16810D01*
X15270Y-17020D01*
X15199Y-17125D01*
X15175Y-17250D01*
X15175Y-17338D01*
X15058Y-17454D01*
X14979Y-17646D01*
X14979Y-17853D01*
X15058Y-18044D01*
X15175Y-18161D01*
X15175Y-18300D01*
X15175Y-19479D01*
X15128Y-19398D01*
X15128Y-19398D01*
X15072Y-19333D01*
X14934Y-19226D01*
X14934Y-19226D01*
X14857Y-19188D01*
X14689Y-19142D01*
X14689Y-19141D01*
X14604Y-19135D01*
X14431Y-19157D01*
X14431Y-19157D01*
X14349Y-19184D01*
X14198Y-19271D01*
X14198Y-19271D01*
X14133Y-19327D01*
X14026Y-19465D01*
X14026Y-19465D01*
X13988Y-19542D01*
X13971Y-19602D01*
X13971Y-12250D01*
X13817Y-12095D01*
X13782Y-12153D01*
X13780Y-12339D01*
X13782Y-12346D01*
X13817Y-12404D01*
X13971Y-12250D01*
X13971Y-19602D01*
X13942Y-19710D01*
X13935Y-19795D01*
X13957Y-19968D01*
X13957Y-19968D01*
X13984Y-20050D01*
X14071Y-20201D01*
X14071Y-20201D01*
X14127Y-20266D01*
X14265Y-20373D01*
X14265Y-20373D01*
X14342Y-20411D01*
X14510Y-20457D01*
X14510Y-20457D01*
X14595Y-20464D01*
X14768Y-20442D01*
X14768Y-20442D01*
X14850Y-20415D01*
X15001Y-20328D01*
X15001Y-20328D01*
X15066Y-20272D01*
X15173Y-20134D01*
X15173Y-20134D01*
X15175Y-20131D01*
X15175Y-22050D01*
X15175Y-22425D01*
X15175Y-27475D01*
X15175Y-31775D01*
X15199Y-31899D01*
X15270Y-32004D01*
X16045Y-32779D01*
X16045Y-32779D01*
X16150Y-32850D01*
X16150Y-32850D01*
X16275Y-32875D01*
X20275Y-32875D01*
X20275Y-34200D01*
X20275Y-34850D01*
X20275Y-35625D01*
X22125Y-35625D01*
X22125Y-36490D01*
X21775Y-36840D01*
X21775Y-36364D01*
X21775Y-35735D01*
X21763Y-35707D01*
X21742Y-35686D01*
X21714Y-35675D01*
X21685Y-35674D01*
X21518Y-35675D01*
X21500Y-35693D01*
X21500Y-35900D01*
X21756Y-35900D01*
X21775Y-35881D01*
X21775Y-35735D01*
X21775Y-36364D01*
X21775Y-36218D01*
X21756Y-36200D01*
X21500Y-36200D01*
X21500Y-36406D01*
X21518Y-36425D01*
X21685Y-36425D01*
X21714Y-36424D01*
X21742Y-36413D01*
X21763Y-36392D01*
X21775Y-36364D01*
X21775Y-36840D01*
X21735Y-36879D01*
X21450Y-36879D01*
X21450Y-36760D01*
X21416Y-36677D01*
X21353Y-36614D01*
X21270Y-36579D01*
X21181Y-36579D01*
X21100Y-36579D01*
X21100Y-36406D01*
X21100Y-36200D01*
X21100Y-35900D01*
X21100Y-35693D01*
X21081Y-35675D01*
X20914Y-35674D01*
X20885Y-35675D01*
X20857Y-35686D01*
X20836Y-35707D01*
X20824Y-35735D01*
X20825Y-35881D01*
X20843Y-35900D01*
X21100Y-35900D01*
X21100Y-36200D01*
X20843Y-36200D01*
X20825Y-36218D01*
X20824Y-36364D01*
X20836Y-36392D01*
X20857Y-36413D01*
X20885Y-36424D01*
X20914Y-36425D01*
X21081Y-36425D01*
X21100Y-36406D01*
X21100Y-36579D01*
X20581Y-36579D01*
X20498Y-36613D01*
X20434Y-36677D01*
X20400Y-36759D01*
X20400Y-36849D01*
X20400Y-37649D01*
X20434Y-37732D01*
X20497Y-37795D01*
X20528Y-37807D01*
X20519Y-37816D01*
X20500Y-37862D01*
X20500Y-37912D01*
X20500Y-38712D01*
X20510Y-38736D01*
X20510Y-39590D01*
X20506Y-39592D01*
X20470Y-39627D01*
X20451Y-39673D01*
X20451Y-39722D01*
X20451Y-40273D01*
X20470Y-40319D01*
X20505Y-40355D01*
X20551Y-40374D01*
X20601Y-40374D01*
X20837Y-40374D01*
X20883Y-40355D01*
X20918Y-40320D01*
X20937Y-40274D01*
X20937Y-40224D01*
X20937Y-39673D01*
X20918Y-39627D01*
X20883Y-39592D01*
X20878Y-39590D01*
X20878Y-38812D01*
X21250Y-38812D01*
X21296Y-38793D01*
X21331Y-38758D01*
X21350Y-38712D01*
X21350Y-38662D01*
X21350Y-37862D01*
X21331Y-37816D01*
X21322Y-37807D01*
X21352Y-37795D01*
X21416Y-37732D01*
X21450Y-37649D01*
X21450Y-37560D01*
X21450Y-37529D01*
X21870Y-37529D01*
X21994Y-37504D01*
X21994Y-37504D01*
X22100Y-37434D01*
X22679Y-36854D01*
X22679Y-36854D01*
X22679Y-36854D01*
X22750Y-36749D01*
X22750Y-36749D01*
X22775Y-36625D01*
X22775Y-35625D01*
X27075Y-35625D01*
X27075Y-38600D01*
X27099Y-38724D01*
X27170Y-38829D01*
X28025Y-39684D01*
X28596Y-40256D01*
X28654Y-40397D01*
X28775Y-40517D01*
X28775Y-40682D01*
X28682Y-40775D01*
X28025Y-40775D01*
X26800Y-40775D01*
X26799Y-40775D01*
X26775Y-40779D01*
X26675Y-40799D01*
X26570Y-40870D01*
X26570Y-40870D01*
X26481Y-40958D01*
X26481Y-39080D01*
X26481Y-36274D01*
X22888Y-36274D01*
X22888Y-39030D01*
X21234Y-39030D01*
X21234Y-39573D01*
X21052Y-39573D01*
X21006Y-39592D01*
X20970Y-39627D01*
X20951Y-39673D01*
X20951Y-39722D01*
X20951Y-40273D01*
X20970Y-40319D01*
X21005Y-40355D01*
X21010Y-40357D01*
X21010Y-40528D01*
X20989Y-40550D01*
X20890Y-40549D01*
X20780Y-40595D01*
X20695Y-40679D01*
X20650Y-40790D01*
X20649Y-40909D01*
X20695Y-41019D01*
X20779Y-41104D01*
X20890Y-41149D01*
X20914Y-41149D01*
X20751Y-41313D01*
X20437Y-41313D01*
X20437Y-40224D01*
X20437Y-39673D01*
X20418Y-39627D01*
X20383Y-39592D01*
X20378Y-39590D01*
X20378Y-37320D01*
X20364Y-37250D01*
X20364Y-37250D01*
X20325Y-37190D01*
X20208Y-37074D01*
X20149Y-37034D01*
X20078Y-37020D01*
X20050Y-37020D01*
X20050Y-36779D01*
X20031Y-36734D01*
X19996Y-36698D01*
X19950Y-36679D01*
X19900Y-36679D01*
X19830Y-36679D01*
X19830Y-36548D01*
X19970Y-36548D01*
X20016Y-36529D01*
X20051Y-36494D01*
X20071Y-36448D01*
X20071Y-36398D01*
X20071Y-35598D01*
X20052Y-35552D01*
X20016Y-35517D01*
X19971Y-35498D01*
X19921Y-35498D01*
X19321Y-35498D01*
X19275Y-35517D01*
X19240Y-35552D01*
X19221Y-35598D01*
X19221Y-35648D01*
X19221Y-36448D01*
X19240Y-36494D01*
X19275Y-36529D01*
X19321Y-36548D01*
X19370Y-36548D01*
X19462Y-36548D01*
X19462Y-36679D01*
X19300Y-36679D01*
X19254Y-36698D01*
X19219Y-36733D01*
X19200Y-36779D01*
X19200Y-36829D01*
X19200Y-37629D01*
X19219Y-37675D01*
X19254Y-37710D01*
X19300Y-37729D01*
X19350Y-37729D01*
X19950Y-37729D01*
X19996Y-37710D01*
X20010Y-37696D01*
X20010Y-37795D01*
X19996Y-37781D01*
X19950Y-37762D01*
X19900Y-37762D01*
X19300Y-37762D01*
X19254Y-37781D01*
X19219Y-37816D01*
X19200Y-37862D01*
X19200Y-37912D01*
X19200Y-38162D01*
X19028Y-38162D01*
X19028Y-38022D01*
X19009Y-37976D01*
X18978Y-37945D01*
X18978Y-37361D01*
X18978Y-36731D01*
X18967Y-36704D01*
X18946Y-36683D01*
X18918Y-36671D01*
X18889Y-36671D01*
X18722Y-36671D01*
X18721Y-36673D01*
X18721Y-36408D01*
X18721Y-35638D01*
X18721Y-35608D01*
X18709Y-35581D01*
X18688Y-35560D01*
X18660Y-35548D01*
X18514Y-35548D01*
X18496Y-35567D01*
X18496Y-35823D01*
X18702Y-35823D01*
X18721Y-35804D01*
X18721Y-35638D01*
X18721Y-36408D01*
X18721Y-36242D01*
X18702Y-36223D01*
X18496Y-36223D01*
X18496Y-36479D01*
X18514Y-36498D01*
X18660Y-36498D01*
X18688Y-36487D01*
X18709Y-36466D01*
X18721Y-36438D01*
X18721Y-36408D01*
X18721Y-36673D01*
X18703Y-36690D01*
X18703Y-36896D01*
X18960Y-36896D01*
X18978Y-36878D01*
X18978Y-36731D01*
X18978Y-37361D01*
X18978Y-37215D01*
X18960Y-37196D01*
X18703Y-37196D01*
X18703Y-37403D01*
X18722Y-37421D01*
X18889Y-37421D01*
X18918Y-37421D01*
X18946Y-37410D01*
X18967Y-37389D01*
X18978Y-37361D01*
X18978Y-37945D01*
X18974Y-37940D01*
X18928Y-37921D01*
X18879Y-37921D01*
X18303Y-37921D01*
X18303Y-37403D01*
X18303Y-37196D01*
X18303Y-36896D01*
X18303Y-36690D01*
X18285Y-36671D01*
X18196Y-36671D01*
X18196Y-36479D01*
X18196Y-36223D01*
X18196Y-35823D01*
X18196Y-35567D01*
X18177Y-35548D01*
X18031Y-35548D01*
X18003Y-35560D01*
X17982Y-35581D01*
X17971Y-35608D01*
X17971Y-35638D01*
X17971Y-35804D01*
X17989Y-35823D01*
X18196Y-35823D01*
X18196Y-36223D01*
X17989Y-36223D01*
X17971Y-36242D01*
X17971Y-36408D01*
X17971Y-36438D01*
X17982Y-36466D01*
X18003Y-36487D01*
X18031Y-36498D01*
X18177Y-36498D01*
X18196Y-36479D01*
X18196Y-36671D01*
X18118Y-36671D01*
X18088Y-36671D01*
X18061Y-36683D01*
X18040Y-36704D01*
X18028Y-36731D01*
X18028Y-36878D01*
X18047Y-36896D01*
X18303Y-36896D01*
X18303Y-37196D01*
X18047Y-37196D01*
X18028Y-37215D01*
X18028Y-37361D01*
X18040Y-37389D01*
X18061Y-37410D01*
X18088Y-37421D01*
X18118Y-37421D01*
X18285Y-37421D01*
X18303Y-37403D01*
X18303Y-37921D01*
X18079Y-37921D01*
X18033Y-37940D01*
X17998Y-37975D01*
X17978Y-38021D01*
X17978Y-38071D01*
X17978Y-38671D01*
X17997Y-38717D01*
X18033Y-38752D01*
X18078Y-38771D01*
X18128Y-38771D01*
X18928Y-38771D01*
X18974Y-38752D01*
X19009Y-38717D01*
X19028Y-38671D01*
X19028Y-38622D01*
X19028Y-38530D01*
X19200Y-38530D01*
X19200Y-38712D01*
X19219Y-38758D01*
X19254Y-38793D01*
X19300Y-38812D01*
X19350Y-38812D01*
X19950Y-38812D01*
X19996Y-38793D01*
X20010Y-38778D01*
X20010Y-39590D01*
X20006Y-39592D01*
X19970Y-39627D01*
X19951Y-39673D01*
X19951Y-39722D01*
X19951Y-40273D01*
X19970Y-40319D01*
X20005Y-40355D01*
X20051Y-40374D01*
X20101Y-40374D01*
X20337Y-40374D01*
X20383Y-40355D01*
X20418Y-40320D01*
X20437Y-40274D01*
X20437Y-40224D01*
X20437Y-41313D01*
X20349Y-41313D01*
X20349Y-41731D01*
X20327Y-41723D01*
X20272Y-41723D01*
X20253Y-41741D01*
X20253Y-41935D01*
X20312Y-41935D01*
X20312Y-42211D01*
X20253Y-42211D01*
X20253Y-42405D01*
X20272Y-42424D01*
X20327Y-42424D01*
X20349Y-42415D01*
X20349Y-43282D01*
X20135Y-43282D01*
X20135Y-42405D01*
X20135Y-42211D01*
X20135Y-41935D01*
X20135Y-41741D01*
X20117Y-41723D01*
X20062Y-41723D01*
X20034Y-41734D01*
X20013Y-41755D01*
X20001Y-41783D01*
X20001Y-41812D01*
X20001Y-41917D01*
X20020Y-41935D01*
X20135Y-41935D01*
X20135Y-42211D01*
X20020Y-42211D01*
X20001Y-42230D01*
X20001Y-42334D01*
X20001Y-42364D01*
X20013Y-42391D01*
X20034Y-42412D01*
X20062Y-42424D01*
X20117Y-42424D01*
X20135Y-42405D01*
X20135Y-43282D01*
X19586Y-43282D01*
X19594Y-43278D01*
X19615Y-43257D01*
X19627Y-43229D01*
X19627Y-43200D01*
X19627Y-42429D01*
X19627Y-41920D01*
X19627Y-41150D01*
X19627Y-41120D01*
X19615Y-41092D01*
X19594Y-41071D01*
X19567Y-41060D01*
X19421Y-41060D01*
X19402Y-41079D01*
X19402Y-41335D01*
X19608Y-41335D01*
X19627Y-41316D01*
X19627Y-41150D01*
X19627Y-41920D01*
X19627Y-41754D01*
X19608Y-41735D01*
X19402Y-41735D01*
X19402Y-41991D01*
X19421Y-42010D01*
X19567Y-42010D01*
X19594Y-41999D01*
X19615Y-41977D01*
X19627Y-41950D01*
X19627Y-41920D01*
X19627Y-42429D01*
X19627Y-42399D01*
X19615Y-42372D01*
X19594Y-42351D01*
X19567Y-42339D01*
X19421Y-42339D01*
X19402Y-42358D01*
X19402Y-42614D01*
X19608Y-42614D01*
X19627Y-42596D01*
X19627Y-42429D01*
X19627Y-43200D01*
X19627Y-43033D01*
X19608Y-43014D01*
X19402Y-43014D01*
X19402Y-43047D01*
X19102Y-43047D01*
X19102Y-43014D01*
X19102Y-42614D01*
X19102Y-42358D01*
X19102Y-41991D01*
X19102Y-41735D01*
X19102Y-41335D01*
X19102Y-41079D01*
X19083Y-41060D01*
X18937Y-41060D01*
X18909Y-41071D01*
X18888Y-41092D01*
X18877Y-41120D01*
X18877Y-41150D01*
X18877Y-41316D01*
X18896Y-41335D01*
X19102Y-41335D01*
X19102Y-41735D01*
X18896Y-41735D01*
X18877Y-41754D01*
X18877Y-41920D01*
X18877Y-41950D01*
X18888Y-41977D01*
X18909Y-41999D01*
X18937Y-42010D01*
X19083Y-42010D01*
X19102Y-41991D01*
X19102Y-42358D01*
X19083Y-42339D01*
X18937Y-42339D01*
X18909Y-42351D01*
X18888Y-42372D01*
X18877Y-42399D01*
X18877Y-42429D01*
X18877Y-42596D01*
X18896Y-42614D01*
X19102Y-42614D01*
X19102Y-43014D01*
X18896Y-43014D01*
X18877Y-43033D01*
X18877Y-43200D01*
X18877Y-43229D01*
X18888Y-43257D01*
X18909Y-43278D01*
X18918Y-43282D01*
X18897Y-43282D01*
X18824Y-43282D01*
X18824Y-39049D01*
X17600Y-39049D01*
X17600Y-38936D01*
X17600Y-38306D01*
X17589Y-38279D01*
X17568Y-38258D01*
X17540Y-38246D01*
X17511Y-38246D01*
X17344Y-38246D01*
X17325Y-38265D01*
X17325Y-38471D01*
X17582Y-38471D01*
X17600Y-38452D01*
X17600Y-38306D01*
X17600Y-38936D01*
X17600Y-38790D01*
X17582Y-38771D01*
X17325Y-38771D01*
X17325Y-38977D01*
X17344Y-38996D01*
X17511Y-38996D01*
X17540Y-38996D01*
X17568Y-38985D01*
X17589Y-38964D01*
X17600Y-38936D01*
X17600Y-39049D01*
X16925Y-39049D01*
X16925Y-38977D01*
X16925Y-38771D01*
X16925Y-38471D01*
X16925Y-38265D01*
X16907Y-38246D01*
X16864Y-38246D01*
X16864Y-35804D01*
X16842Y-35631D01*
X16842Y-35631D01*
X16815Y-35549D01*
X16728Y-35398D01*
X16728Y-35398D01*
X16672Y-35333D01*
X16534Y-35226D01*
X16534Y-35226D01*
X16457Y-35188D01*
X16289Y-35142D01*
X16289Y-35141D01*
X16204Y-35135D01*
X16031Y-35157D01*
X16031Y-35157D01*
X15949Y-35184D01*
X15798Y-35271D01*
X15798Y-35271D01*
X15733Y-35327D01*
X15626Y-35465D01*
X15626Y-35465D01*
X15588Y-35542D01*
X15542Y-35710D01*
X15535Y-35795D01*
X15557Y-35968D01*
X15557Y-35968D01*
X15584Y-36050D01*
X15671Y-36201D01*
X15671Y-36201D01*
X15727Y-36266D01*
X15865Y-36373D01*
X15865Y-36373D01*
X15942Y-36411D01*
X16110Y-36457D01*
X16110Y-36457D01*
X16195Y-36464D01*
X16368Y-36442D01*
X16368Y-36442D01*
X16450Y-36415D01*
X16601Y-36328D01*
X16601Y-36328D01*
X16666Y-36272D01*
X16773Y-36134D01*
X16773Y-36134D01*
X16811Y-36057D01*
X16857Y-35890D01*
X16858Y-35889D01*
X16864Y-35804D01*
X16864Y-38246D01*
X16740Y-38246D01*
X16711Y-38246D01*
X16683Y-38258D01*
X16662Y-38279D01*
X16650Y-38306D01*
X16650Y-38452D01*
X16669Y-38471D01*
X16925Y-38471D01*
X16925Y-38771D01*
X16669Y-38771D01*
X16650Y-38790D01*
X16650Y-38936D01*
X16662Y-38964D01*
X16683Y-38985D01*
X16711Y-38996D01*
X16740Y-38996D01*
X16907Y-38996D01*
X16925Y-38977D01*
X16925Y-39049D01*
X16419Y-39049D01*
X16419Y-38936D01*
X16419Y-38306D01*
X16408Y-38279D01*
X16387Y-38258D01*
X16359Y-38246D01*
X16330Y-38246D01*
X16163Y-38246D01*
X16144Y-38265D01*
X16144Y-38471D01*
X16401Y-38471D01*
X16419Y-38452D01*
X16419Y-38306D01*
X16419Y-38936D01*
X16419Y-38790D01*
X16401Y-38771D01*
X16144Y-38771D01*
X16144Y-38977D01*
X16163Y-38996D01*
X16330Y-38996D01*
X16359Y-38996D01*
X16387Y-38985D01*
X16408Y-38964D01*
X16419Y-38936D01*
X16419Y-39049D01*
X15744Y-39049D01*
X15744Y-38977D01*
X15744Y-38771D01*
X15744Y-38471D01*
X15744Y-38265D01*
X15726Y-38246D01*
X15559Y-38246D01*
X15529Y-38246D01*
X15502Y-38258D01*
X15481Y-38279D01*
X15469Y-38306D01*
X15469Y-38452D01*
X15488Y-38471D01*
X15744Y-38471D01*
X15744Y-38771D01*
X15488Y-38771D01*
X15469Y-38790D01*
X15469Y-38936D01*
X15481Y-38964D01*
X15502Y-38985D01*
X15529Y-38996D01*
X15559Y-38996D01*
X15726Y-38996D01*
X15744Y-38977D01*
X15744Y-39049D01*
X15140Y-39049D01*
X15140Y-38936D01*
X15140Y-38306D01*
X15128Y-38279D01*
X15107Y-38258D01*
X15080Y-38246D01*
X15050Y-38246D01*
X14884Y-38246D01*
X14865Y-38265D01*
X14865Y-38471D01*
X15121Y-38471D01*
X15140Y-38452D01*
X15140Y-38306D01*
X15140Y-38936D01*
X15140Y-38790D01*
X15121Y-38771D01*
X14865Y-38771D01*
X14865Y-38977D01*
X14884Y-38996D01*
X15050Y-38996D01*
X15080Y-38996D01*
X15107Y-38985D01*
X15128Y-38964D01*
X15140Y-38936D01*
X15140Y-39049D01*
X14465Y-39049D01*
X14465Y-38977D01*
X14465Y-38771D01*
X14465Y-38471D01*
X14465Y-38265D01*
X14446Y-38246D01*
X14280Y-38246D01*
X14250Y-38246D01*
X14222Y-38258D01*
X14201Y-38279D01*
X14190Y-38306D01*
X14190Y-38452D01*
X14209Y-38471D01*
X14465Y-38471D01*
X14465Y-38771D01*
X14209Y-38771D01*
X14190Y-38790D01*
X14190Y-38936D01*
X14201Y-38964D01*
X14222Y-38985D01*
X14250Y-38996D01*
X14280Y-38996D01*
X14446Y-38996D01*
X14465Y-38977D01*
X14465Y-39049D01*
X14173Y-39049D01*
X13754Y-39049D01*
X13754Y-40748D01*
X13775Y-43375D01*
X15975Y-43375D01*
X15975Y-40725D01*
X17125Y-40725D01*
X17125Y-44150D01*
X22075Y-44150D01*
X22072Y-42421D01*
X22072Y-41734D01*
X22249Y-41734D01*
X22249Y-41874D01*
X22268Y-41920D01*
X22304Y-41955D01*
X22350Y-41974D01*
X22399Y-41975D01*
X23199Y-41975D01*
X23245Y-41956D01*
X23280Y-41920D01*
X23299Y-41874D01*
X23300Y-41825D01*
X23300Y-41225D01*
X23281Y-41179D01*
X23245Y-41144D01*
X23199Y-41125D01*
X23150Y-41124D01*
X22350Y-41124D01*
X22304Y-41143D01*
X22269Y-41179D01*
X22250Y-41225D01*
X22249Y-41274D01*
X22249Y-41365D01*
X22072Y-41365D01*
X22072Y-41313D01*
X21271Y-41313D01*
X21551Y-41034D01*
X23450Y-41034D01*
X23624Y-41207D01*
X23533Y-41207D01*
X23487Y-41226D01*
X23451Y-41261D01*
X23432Y-41307D01*
X23432Y-41357D01*
X23432Y-42157D01*
X23451Y-42202D01*
X23486Y-42238D01*
X23532Y-42257D01*
X23582Y-42257D01*
X24182Y-42257D01*
X24228Y-42238D01*
X24263Y-42203D01*
X24282Y-42157D01*
X24282Y-42107D01*
X24282Y-41307D01*
X24263Y-41261D01*
X24228Y-41226D01*
X24182Y-41207D01*
X24133Y-41207D01*
X24041Y-41207D01*
X24041Y-41180D01*
X24027Y-41110D01*
X23988Y-41050D01*
X23988Y-41050D01*
X23907Y-40969D01*
X24906Y-40969D01*
X24906Y-39080D01*
X26481Y-39080D01*
X26481Y-40958D01*
X26170Y-41270D01*
X26099Y-41375D01*
X26075Y-41500D01*
X26075Y-41524D01*
X26038Y-41524D01*
X26038Y-40359D01*
X26038Y-39483D01*
X26038Y-39453D01*
X26027Y-39425D01*
X26006Y-39404D01*
X25978Y-39393D01*
X25785Y-39393D01*
X25767Y-39412D01*
X25767Y-39696D01*
X26020Y-39696D01*
X26038Y-39677D01*
X26038Y-39483D01*
X26038Y-40359D01*
X26038Y-40165D01*
X26020Y-40146D01*
X25767Y-40146D01*
X25767Y-40430D01*
X25785Y-40449D01*
X25978Y-40449D01*
X26006Y-40437D01*
X26027Y-40416D01*
X26038Y-40389D01*
X26038Y-40359D01*
X26038Y-41524D01*
X25955Y-41524D01*
X25872Y-41559D01*
X25809Y-41622D01*
X25775Y-41705D01*
X25774Y-41794D01*
X25774Y-42394D01*
X25809Y-42477D01*
X25872Y-42540D01*
X25955Y-42574D01*
X26044Y-42575D01*
X26481Y-42575D01*
X26844Y-42575D01*
X26927Y-42540D01*
X26990Y-42477D01*
X27024Y-42394D01*
X27025Y-42305D01*
X27025Y-41705D01*
X26990Y-41622D01*
X26927Y-41559D01*
X26844Y-41525D01*
X26834Y-41525D01*
X26934Y-41425D01*
X28025Y-41425D01*
X28682Y-41425D01*
X28802Y-41544D01*
X28995Y-41624D01*
X29203Y-41625D01*
X29397Y-41545D01*
X29544Y-41397D01*
X29574Y-41325D01*
X29574Y-41444D01*
X29604Y-41515D01*
X29550Y-41515D01*
X29479Y-41529D01*
X29419Y-41569D01*
X29264Y-41724D01*
X28675Y-41724D01*
X28629Y-41743D01*
X28594Y-41779D01*
X28575Y-41825D01*
X28574Y-41874D01*
X28574Y-42474D01*
X28593Y-42520D01*
X28629Y-42555D01*
X28675Y-42574D01*
X28724Y-42575D01*
X29524Y-42575D01*
X29570Y-42556D01*
X29605Y-42520D01*
X29624Y-42474D01*
X29625Y-42425D01*
X29625Y-41885D01*
X29626Y-41884D01*
X30600Y-41884D01*
X30600Y-41884D01*
X30670Y-41870D01*
X30670Y-41870D01*
X30730Y-41830D01*
X30930Y-41630D01*
X30930Y-41630D01*
X30970Y-41570D01*
X30984Y-41500D01*
X30984Y-41500D01*
X30984Y-44250D01*
X30779Y-44250D01*
X30779Y-43748D01*
X30779Y-43119D01*
X30760Y-43073D01*
X30729Y-43042D01*
X30729Y-42670D01*
X30729Y-42011D01*
X30718Y-41984D01*
X30697Y-41962D01*
X30669Y-41951D01*
X30639Y-41951D01*
X30496Y-41951D01*
X30477Y-41970D01*
X30477Y-42183D01*
X30710Y-42183D01*
X30729Y-42165D01*
X30729Y-42011D01*
X30729Y-42670D01*
X30729Y-42517D01*
X30710Y-42498D01*
X30477Y-42498D01*
X30477Y-42711D01*
X30496Y-42730D01*
X30639Y-42730D01*
X30669Y-42730D01*
X30697Y-42719D01*
X30718Y-42697D01*
X30729Y-42670D01*
X30729Y-43042D01*
X30725Y-43038D01*
X30679Y-43019D01*
X30629Y-43019D01*
X30122Y-43019D01*
X30122Y-42711D01*
X30122Y-42498D01*
X30122Y-42183D01*
X30122Y-41970D01*
X30104Y-41951D01*
X29960Y-41951D01*
X29930Y-41951D01*
X29902Y-41962D01*
X29881Y-41984D01*
X29870Y-42011D01*
X29870Y-42165D01*
X29889Y-42183D01*
X30122Y-42183D01*
X30122Y-42498D01*
X29889Y-42498D01*
X29870Y-42517D01*
X29870Y-42670D01*
X29881Y-42697D01*
X29902Y-42719D01*
X29930Y-42730D01*
X29960Y-42730D01*
X30104Y-42730D01*
X30122Y-42711D01*
X30122Y-43019D01*
X29920Y-43019D01*
X29874Y-43038D01*
X29839Y-43073D01*
X29820Y-43119D01*
X29820Y-43169D01*
X29820Y-43265D01*
X29625Y-43265D01*
X29625Y-43125D01*
X29606Y-43079D01*
X29570Y-43044D01*
X29524Y-43025D01*
X29475Y-43024D01*
X28675Y-43024D01*
X28629Y-43043D01*
X28594Y-43079D01*
X28575Y-43125D01*
X28574Y-43174D01*
X28574Y-43774D01*
X28593Y-43820D01*
X28629Y-43855D01*
X28675Y-43874D01*
X28724Y-43875D01*
X29524Y-43875D01*
X29570Y-43856D01*
X29605Y-43820D01*
X29624Y-43774D01*
X29625Y-43725D01*
X29625Y-43634D01*
X29820Y-43634D01*
X29820Y-43798D01*
X29839Y-43844D01*
X29874Y-43879D01*
X29920Y-43898D01*
X29970Y-43898D01*
X30679Y-43898D01*
X30725Y-43879D01*
X30760Y-43844D01*
X30779Y-43798D01*
X30779Y-43748D01*
X30779Y-44250D01*
X28079Y-44250D01*
X28079Y-43648D01*
X28079Y-43019D01*
X28060Y-42973D01*
X28029Y-42942D01*
X28029Y-42570D01*
X28029Y-41911D01*
X28025Y-41900D01*
X28018Y-41884D01*
X27997Y-41862D01*
X27969Y-41851D01*
X27939Y-41851D01*
X27796Y-41851D01*
X27777Y-41870D01*
X27777Y-42083D01*
X28010Y-42083D01*
X28025Y-42069D01*
X28029Y-42065D01*
X28029Y-41911D01*
X28029Y-42570D01*
X28029Y-42417D01*
X28025Y-42412D01*
X28010Y-42398D01*
X27777Y-42398D01*
X27777Y-42611D01*
X27796Y-42630D01*
X27939Y-42630D01*
X27969Y-42630D01*
X27997Y-42619D01*
X28018Y-42597D01*
X28025Y-42581D01*
X28029Y-42570D01*
X28029Y-42942D01*
X28025Y-42938D01*
X28025Y-42938D01*
X27979Y-42919D01*
X27929Y-42919D01*
X27422Y-42919D01*
X27422Y-42611D01*
X27422Y-42398D01*
X27422Y-42083D01*
X27422Y-41870D01*
X27404Y-41851D01*
X27260Y-41851D01*
X27230Y-41851D01*
X27202Y-41862D01*
X27181Y-41884D01*
X27170Y-41911D01*
X27170Y-42065D01*
X27189Y-42083D01*
X27422Y-42083D01*
X27422Y-42398D01*
X27189Y-42398D01*
X27170Y-42417D01*
X27170Y-42570D01*
X27181Y-42597D01*
X27202Y-42619D01*
X27230Y-42630D01*
X27260Y-42630D01*
X27404Y-42630D01*
X27422Y-42611D01*
X27422Y-42919D01*
X27220Y-42919D01*
X27174Y-42938D01*
X27139Y-42973D01*
X27120Y-43019D01*
X27120Y-43069D01*
X27120Y-43165D01*
X26925Y-43165D01*
X26925Y-43025D01*
X26906Y-42979D01*
X26870Y-42944D01*
X26824Y-42925D01*
X26775Y-42924D01*
X26481Y-42924D01*
X25975Y-42924D01*
X25929Y-42943D01*
X25894Y-42979D01*
X25875Y-43025D01*
X25874Y-43074D01*
X25874Y-43674D01*
X25893Y-43720D01*
X25929Y-43755D01*
X25975Y-43774D01*
X26024Y-43775D01*
X26481Y-43775D01*
X26824Y-43775D01*
X26870Y-43756D01*
X26905Y-43720D01*
X26924Y-43674D01*
X26925Y-43625D01*
X26925Y-43534D01*
X27120Y-43534D01*
X27120Y-43698D01*
X27139Y-43744D01*
X27174Y-43779D01*
X27220Y-43798D01*
X27270Y-43798D01*
X27979Y-43798D01*
X28025Y-43779D01*
X28025Y-43779D01*
X28060Y-43744D01*
X28079Y-43698D01*
X28079Y-43648D01*
X28079Y-44250D01*
X28025Y-44250D01*
X26481Y-44250D01*
X25532Y-44250D01*
X25532Y-43298D01*
X25532Y-42528D01*
X25532Y-42117D01*
X25532Y-41347D01*
X25532Y-41317D01*
X25521Y-41289D01*
X25500Y-41268D01*
X25472Y-41257D01*
X25373Y-41257D01*
X25373Y-40430D01*
X25373Y-40146D01*
X25373Y-39696D01*
X25373Y-39412D01*
X25354Y-39393D01*
X25162Y-39393D01*
X25134Y-39404D01*
X25113Y-39425D01*
X25101Y-39453D01*
X25101Y-39483D01*
X25101Y-39677D01*
X25120Y-39696D01*
X25373Y-39696D01*
X25373Y-40146D01*
X25120Y-40146D01*
X25101Y-40165D01*
X25101Y-40359D01*
X25101Y-40389D01*
X25113Y-40416D01*
X25134Y-40437D01*
X25162Y-40449D01*
X25354Y-40449D01*
X25373Y-40430D01*
X25373Y-41257D01*
X25326Y-41257D01*
X25307Y-41276D01*
X25307Y-41532D01*
X25514Y-41532D01*
X25532Y-41513D01*
X25532Y-41347D01*
X25532Y-42117D01*
X25532Y-41951D01*
X25514Y-41932D01*
X25307Y-41932D01*
X25307Y-42188D01*
X25326Y-42207D01*
X25472Y-42207D01*
X25500Y-42195D01*
X25521Y-42174D01*
X25532Y-42147D01*
X25532Y-42117D01*
X25532Y-42528D01*
X25532Y-42498D01*
X25521Y-42470D01*
X25500Y-42449D01*
X25472Y-42438D01*
X25326Y-42438D01*
X25307Y-42457D01*
X25307Y-42713D01*
X25514Y-42713D01*
X25532Y-42694D01*
X25532Y-42528D01*
X25532Y-43298D01*
X25532Y-43132D01*
X25514Y-43113D01*
X25307Y-43113D01*
X25307Y-43369D01*
X25326Y-43388D01*
X25472Y-43388D01*
X25500Y-43377D01*
X25521Y-43355D01*
X25532Y-43328D01*
X25532Y-43298D01*
X25532Y-44250D01*
X25007Y-44250D01*
X25007Y-43369D01*
X25007Y-43113D01*
X25007Y-42713D01*
X25007Y-42457D01*
X25007Y-42188D01*
X25007Y-41932D01*
X25007Y-41532D01*
X25007Y-41276D01*
X24989Y-41257D01*
X24843Y-41257D01*
X24815Y-41268D01*
X24794Y-41289D01*
X24782Y-41317D01*
X24782Y-41347D01*
X24782Y-41513D01*
X24801Y-41532D01*
X25007Y-41532D01*
X25007Y-41932D01*
X24801Y-41932D01*
X24782Y-41951D01*
X24782Y-42117D01*
X24782Y-42147D01*
X24794Y-42174D01*
X24815Y-42195D01*
X24843Y-42207D01*
X24989Y-42207D01*
X25007Y-42188D01*
X25007Y-42457D01*
X24989Y-42438D01*
X24843Y-42438D01*
X24815Y-42449D01*
X24794Y-42470D01*
X24782Y-42498D01*
X24782Y-42528D01*
X24782Y-42694D01*
X24801Y-42713D01*
X25007Y-42713D01*
X25007Y-43113D01*
X24801Y-43113D01*
X24782Y-43132D01*
X24782Y-43298D01*
X24782Y-43328D01*
X24794Y-43355D01*
X24815Y-43377D01*
X24843Y-43388D01*
X24989Y-43388D01*
X25007Y-43369D01*
X25007Y-44250D01*
X24282Y-44250D01*
X24282Y-43288D01*
X24282Y-42488D01*
X24263Y-42442D01*
X24228Y-42407D01*
X24182Y-42388D01*
X24133Y-42388D01*
X23533Y-42388D01*
X23487Y-42407D01*
X23451Y-42442D01*
X23432Y-42488D01*
X23432Y-42538D01*
X23432Y-42729D01*
X22897Y-42729D01*
X22871Y-42702D01*
X22825Y-42683D01*
X22775Y-42683D01*
X22684Y-42683D01*
X22684Y-42539D01*
X22754Y-42470D01*
X22799Y-42359D01*
X22800Y-42240D01*
X22754Y-42130D01*
X22670Y-42045D01*
X22559Y-42000D01*
X22440Y-41999D01*
X22330Y-42045D01*
X22245Y-42129D01*
X22200Y-42240D01*
X22199Y-42359D01*
X22245Y-42469D01*
X22316Y-42540D01*
X22316Y-42683D01*
X22175Y-42683D01*
X22129Y-42702D01*
X22094Y-42737D01*
X22075Y-42783D01*
X22075Y-42833D01*
X22075Y-43633D01*
X22094Y-43679D01*
X22129Y-43714D01*
X22175Y-43733D01*
X22225Y-43733D01*
X22825Y-43733D01*
X22871Y-43714D01*
X22906Y-43679D01*
X22925Y-43633D01*
X22925Y-43583D01*
X22925Y-43097D01*
X23432Y-43097D01*
X23432Y-43338D01*
X23451Y-43384D01*
X23486Y-43419D01*
X23532Y-43438D01*
X23582Y-43438D01*
X24182Y-43438D01*
X24228Y-43419D01*
X24263Y-43384D01*
X24282Y-43338D01*
X24282Y-43288D01*
X24282Y-44250D01*
X22075Y-44250D01*
X17038Y-44250D01*
X17038Y-42055D01*
X17038Y-41444D01*
X17031Y-41237D01*
X16945Y-41049D01*
X16774Y-40973D01*
X16710Y-40958D01*
X16710Y-41525D01*
X17000Y-41525D01*
X17038Y-41444D01*
X17038Y-42055D01*
X17000Y-41975D01*
X16710Y-41975D01*
X16710Y-42541D01*
X16774Y-42526D01*
X16945Y-42450D01*
X17031Y-42262D01*
X17038Y-42055D01*
X17038Y-44250D01*
X16320Y-44250D01*
X16320Y-42541D01*
X16320Y-41975D01*
X16320Y-41525D01*
X16320Y-40958D01*
X16257Y-40973D01*
X16086Y-41049D01*
X16000Y-41237D01*
X15992Y-41444D01*
X16031Y-41525D01*
X16320Y-41525D01*
X16320Y-41975D01*
X16031Y-41975D01*
X15992Y-42055D01*
X16000Y-42262D01*
X16086Y-42450D01*
X16257Y-42526D01*
X16320Y-42541D01*
X16320Y-44250D01*
X13692Y-44250D01*
X13692Y-11050D01*
X31012Y-11050D01*
X31012Y-44250D01*
X31012Y-44250D01*
G37*
G54D34*
X31012Y-44250D02*
X30984Y-44250D01*
X30984Y-41500D01*
X30984Y-41400D01*
X30984Y-36800D01*
X30984Y-36799D01*
X30970Y-36729D01*
X30930Y-36669D01*
X30930Y-36669D01*
X30825Y-36564D01*
X30825Y-18175D01*
X30825Y-17375D01*
X30806Y-17329D01*
X30770Y-17294D01*
X30724Y-17275D01*
X30675Y-17274D01*
X30265Y-17274D01*
X30265Y-13657D01*
X30265Y-12842D01*
X30225Y-12645D01*
X30114Y-12478D01*
X29947Y-12366D01*
X29750Y-12327D01*
X29552Y-12366D01*
X29385Y-12478D01*
X29274Y-12645D01*
X29235Y-12842D01*
X29235Y-13657D01*
X29274Y-13854D01*
X29385Y-14021D01*
X29552Y-14133D01*
X29750Y-14172D01*
X29947Y-14133D01*
X30114Y-14021D01*
X30225Y-13854D01*
X30265Y-13657D01*
X30265Y-17274D01*
X30075Y-17274D01*
X30029Y-17293D01*
X29994Y-17329D01*
X29975Y-17375D01*
X29974Y-17424D01*
X29974Y-18224D01*
X29993Y-18270D01*
X30029Y-18305D01*
X30075Y-18324D01*
X30124Y-18325D01*
X30215Y-18325D01*
X30215Y-18955D01*
X29880Y-18619D01*
X29820Y-18579D01*
X29750Y-18565D01*
X29586Y-18565D01*
X29586Y-16750D01*
X29575Y-16693D01*
X29575Y-15535D01*
X29575Y-14915D01*
X29556Y-14869D01*
X29520Y-14834D01*
X29474Y-14815D01*
X29425Y-14814D01*
X28749Y-14814D01*
X28749Y-13657D01*
X28749Y-12842D01*
X28710Y-12645D01*
X28598Y-12478D01*
X28431Y-12366D01*
X28234Y-12327D01*
X28037Y-12366D01*
X27870Y-12478D01*
X27758Y-12645D01*
X27719Y-12842D01*
X27719Y-13657D01*
X27758Y-13854D01*
X27870Y-14021D01*
X28037Y-14133D01*
X28234Y-14172D01*
X28431Y-14133D01*
X28598Y-14021D01*
X28710Y-13854D01*
X28749Y-13657D01*
X28749Y-14814D01*
X28525Y-14814D01*
X28479Y-14833D01*
X28444Y-14869D01*
X28425Y-14915D01*
X28424Y-14964D01*
X28424Y-15584D01*
X28443Y-15630D01*
X28479Y-15665D01*
X28525Y-15684D01*
X28574Y-15685D01*
X29474Y-15685D01*
X29520Y-15666D01*
X29555Y-15630D01*
X29574Y-15584D01*
X29575Y-15535D01*
X29575Y-16693D01*
X29553Y-16583D01*
X29458Y-16442D01*
X29317Y-16348D01*
X29151Y-16315D01*
X28848Y-16315D01*
X28682Y-16348D01*
X28541Y-16442D01*
X28446Y-16583D01*
X28413Y-16750D01*
X28446Y-16916D01*
X28541Y-17057D01*
X28682Y-17151D01*
X28848Y-17185D01*
X29151Y-17185D01*
X29317Y-17151D01*
X29458Y-17057D01*
X29553Y-16916D01*
X29586Y-16750D01*
X29586Y-18565D01*
X29475Y-18565D01*
X29475Y-18185D01*
X29475Y-17414D01*
X29474Y-17385D01*
X29463Y-17357D01*
X29442Y-17336D01*
X29414Y-17324D01*
X29268Y-17325D01*
X29250Y-17343D01*
X29250Y-17600D01*
X29456Y-17600D01*
X29475Y-17581D01*
X29475Y-17414D01*
X29475Y-18185D01*
X29475Y-18018D01*
X29456Y-18000D01*
X29250Y-18000D01*
X29250Y-18256D01*
X29268Y-18275D01*
X29414Y-18275D01*
X29442Y-18263D01*
X29463Y-18242D01*
X29474Y-18214D01*
X29475Y-18185D01*
X29475Y-18565D01*
X28950Y-18565D01*
X28950Y-18256D01*
X28950Y-18000D01*
X28950Y-17600D01*
X28950Y-17343D01*
X28931Y-17325D01*
X28785Y-17324D01*
X28757Y-17336D01*
X28736Y-17357D01*
X28725Y-17385D01*
X28724Y-17414D01*
X28725Y-17581D01*
X28743Y-17600D01*
X28950Y-17600D01*
X28950Y-18000D01*
X28743Y-18000D01*
X28725Y-18018D01*
X28724Y-18185D01*
X28725Y-18214D01*
X28736Y-18242D01*
X28757Y-18263D01*
X28785Y-18275D01*
X28931Y-18275D01*
X28950Y-18256D01*
X28950Y-18565D01*
X28500Y-18565D01*
X28429Y-18579D01*
X28369Y-18619D01*
X27923Y-19065D01*
X26749Y-19065D01*
X26838Y-18976D01*
X26899Y-18829D01*
X26900Y-18670D01*
X26839Y-18523D01*
X26825Y-18509D01*
X26825Y-16000D01*
X26800Y-15875D01*
X26800Y-15875D01*
X26772Y-15833D01*
X26729Y-15770D01*
X26729Y-15770D01*
X26229Y-15270D01*
X26124Y-15199D01*
X26000Y-15175D01*
X25567Y-15175D01*
X25531Y-15121D01*
X25522Y-15115D01*
X25522Y-13555D01*
X25522Y-12944D01*
X25515Y-12737D01*
X25429Y-12549D01*
X25258Y-12473D01*
X25195Y-12458D01*
X25195Y-13025D01*
X25484Y-13025D01*
X25522Y-12944D01*
X25522Y-13555D01*
X25484Y-13475D01*
X25195Y-13475D01*
X25195Y-14041D01*
X25258Y-14026D01*
X25429Y-13950D01*
X25515Y-13762D01*
X25522Y-13555D01*
X25522Y-15115D01*
X25357Y-15005D01*
X25153Y-14965D01*
X24846Y-14965D01*
X24805Y-14973D01*
X24805Y-14041D01*
X24805Y-13475D01*
X24805Y-13025D01*
X24805Y-12458D01*
X24741Y-12473D01*
X24570Y-12549D01*
X24484Y-12737D01*
X24477Y-12944D01*
X24515Y-13025D01*
X24805Y-13025D01*
X24805Y-13475D01*
X24515Y-13475D01*
X24477Y-13555D01*
X24484Y-13762D01*
X24570Y-13950D01*
X24741Y-14026D01*
X24805Y-14041D01*
X24805Y-14973D01*
X24642Y-15005D01*
X24468Y-15121D01*
X24352Y-15295D01*
X24343Y-15339D01*
X24330Y-15319D01*
X23880Y-14869D01*
X23825Y-14833D01*
X23825Y-14833D01*
X23825Y-14575D01*
X23806Y-14529D01*
X23770Y-14494D01*
X23724Y-14475D01*
X23718Y-14475D01*
X23718Y-14108D01*
X23848Y-14021D01*
X23960Y-13854D01*
X23999Y-13657D01*
X23999Y-12842D01*
X23960Y-12645D01*
X23848Y-12478D01*
X23681Y-12366D01*
X23484Y-12327D01*
X23287Y-12366D01*
X23120Y-12478D01*
X23008Y-12645D01*
X22969Y-12842D01*
X22969Y-13657D01*
X23008Y-13854D01*
X23120Y-14021D01*
X23287Y-14133D01*
X23350Y-14146D01*
X23350Y-14474D01*
X23075Y-14474D01*
X23029Y-14493D01*
X22994Y-14529D01*
X22975Y-14575D01*
X22974Y-14624D01*
X22974Y-15424D01*
X22993Y-15470D01*
X23029Y-15505D01*
X23075Y-15524D01*
X23124Y-15525D01*
X23724Y-15525D01*
X23770Y-15506D01*
X23805Y-15470D01*
X23824Y-15424D01*
X23825Y-15375D01*
X23825Y-15335D01*
X24015Y-15526D01*
X24015Y-22950D01*
X24029Y-23020D01*
X24069Y-23080D01*
X24596Y-23607D01*
X24579Y-23600D01*
X24420Y-23599D01*
X24273Y-23660D01*
X24161Y-23773D01*
X24100Y-23920D01*
X24100Y-23940D01*
X23270Y-24770D01*
X23199Y-24875D01*
X23175Y-25000D01*
X23175Y-25332D01*
X23055Y-25452D01*
X22975Y-25645D01*
X22974Y-25853D01*
X23054Y-26047D01*
X23202Y-26194D01*
X23395Y-26274D01*
X23603Y-26275D01*
X23797Y-26195D01*
X23944Y-26047D01*
X24024Y-25854D01*
X24025Y-25646D01*
X23945Y-25453D01*
X23825Y-25332D01*
X23825Y-25134D01*
X24559Y-24400D01*
X24579Y-24400D01*
X24726Y-24339D01*
X24838Y-24226D01*
X24899Y-24079D01*
X24900Y-23920D01*
X24892Y-23903D01*
X25065Y-24076D01*
X25065Y-26423D01*
X24925Y-26564D01*
X24925Y-25665D01*
X24860Y-25509D01*
X24741Y-25389D01*
X24584Y-25325D01*
X24415Y-25324D01*
X24259Y-25389D01*
X24139Y-25508D01*
X24075Y-25665D01*
X24074Y-25834D01*
X24139Y-25990D01*
X24258Y-26110D01*
X24415Y-26174D01*
X24584Y-26175D01*
X24740Y-26110D01*
X24860Y-25991D01*
X24924Y-25834D01*
X24925Y-25665D01*
X24925Y-26564D01*
X24923Y-26565D01*
X24883Y-26565D01*
X24860Y-26509D01*
X24741Y-26389D01*
X24584Y-26325D01*
X24415Y-26324D01*
X24259Y-26389D01*
X24139Y-26508D01*
X24075Y-26665D01*
X24074Y-26834D01*
X24139Y-26990D01*
X24258Y-27110D01*
X24415Y-27174D01*
X24584Y-27175D01*
X24740Y-27110D01*
X24860Y-26991D01*
X24883Y-26934D01*
X25000Y-26934D01*
X25000Y-26934D01*
X25070Y-26920D01*
X25070Y-26920D01*
X25130Y-26880D01*
X25380Y-26630D01*
X25380Y-26630D01*
X25420Y-26570D01*
X25434Y-26500D01*
X25434Y-26500D01*
X25434Y-24000D01*
X25420Y-23929D01*
X25380Y-23869D01*
X25380Y-23869D01*
X24384Y-22873D01*
X24384Y-15751D01*
X24468Y-15878D01*
X24642Y-15994D01*
X24846Y-16035D01*
X25153Y-16035D01*
X25357Y-15994D01*
X25531Y-15878D01*
X25567Y-15825D01*
X25865Y-15825D01*
X26175Y-16134D01*
X26175Y-18509D01*
X26161Y-18523D01*
X26100Y-18670D01*
X26099Y-18829D01*
X26160Y-18976D01*
X26250Y-19065D01*
X25576Y-19065D01*
X25184Y-18673D01*
X25184Y-16928D01*
X25317Y-16901D01*
X25458Y-16807D01*
X25553Y-16666D01*
X25586Y-16500D01*
X25553Y-16333D01*
X25458Y-16192D01*
X25317Y-16098D01*
X25151Y-16065D01*
X24848Y-16065D01*
X24682Y-16098D01*
X24541Y-16192D01*
X24446Y-16333D01*
X24413Y-16500D01*
X24446Y-16666D01*
X24541Y-16807D01*
X24682Y-16901D01*
X24815Y-16928D01*
X24815Y-18750D01*
X24829Y-18820D01*
X24869Y-18880D01*
X25369Y-19380D01*
X25369Y-19380D01*
X25429Y-19420D01*
X25500Y-19434D01*
X28000Y-19434D01*
X28000Y-19434D01*
X28070Y-19420D01*
X28070Y-19420D01*
X28130Y-19380D01*
X28576Y-18934D01*
X29673Y-18934D01*
X29881Y-19141D01*
X29869Y-19154D01*
X29850Y-19200D01*
X29849Y-19249D01*
X29849Y-19799D01*
X29868Y-19845D01*
X29904Y-19880D01*
X29950Y-19899D01*
X29999Y-19900D01*
X30549Y-19900D01*
X30595Y-19881D01*
X30630Y-19845D01*
X30649Y-19799D01*
X30650Y-19750D01*
X30650Y-19200D01*
X30631Y-19154D01*
X30595Y-19119D01*
X30584Y-19114D01*
X30584Y-18325D01*
X30724Y-18325D01*
X30770Y-18306D01*
X30805Y-18270D01*
X30824Y-18224D01*
X30825Y-18175D01*
X30825Y-36564D01*
X30501Y-36241D01*
X30524Y-36184D01*
X30525Y-36015D01*
X30525Y-35015D01*
X30525Y-34015D01*
X30525Y-33015D01*
X30525Y-32015D01*
X30525Y-31015D01*
X30525Y-30015D01*
X30525Y-29015D01*
X30525Y-28015D01*
X30525Y-27015D01*
X30525Y-26015D01*
X30525Y-25015D01*
X30525Y-24015D01*
X30525Y-23015D01*
X30525Y-22015D01*
X30460Y-21859D01*
X30341Y-21739D01*
X30184Y-21675D01*
X30015Y-21674D01*
X29859Y-21739D01*
X29739Y-21858D01*
X29675Y-22015D01*
X29674Y-22184D01*
X29739Y-22340D01*
X29858Y-22460D01*
X30015Y-22524D01*
X30184Y-22525D01*
X30340Y-22460D01*
X30460Y-22341D01*
X30524Y-22184D01*
X30525Y-22015D01*
X30525Y-23015D01*
X30460Y-22859D01*
X30341Y-22739D01*
X30184Y-22675D01*
X30015Y-22674D01*
X29859Y-22739D01*
X29739Y-22858D01*
X29675Y-23015D01*
X29674Y-23184D01*
X29739Y-23340D01*
X29858Y-23460D01*
X30015Y-23524D01*
X30184Y-23525D01*
X30340Y-23460D01*
X30460Y-23341D01*
X30524Y-23184D01*
X30525Y-23015D01*
X30525Y-24015D01*
X30460Y-23859D01*
X30341Y-23739D01*
X30184Y-23675D01*
X30015Y-23674D01*
X29859Y-23739D01*
X29739Y-23858D01*
X29675Y-24015D01*
X29674Y-24184D01*
X29739Y-24340D01*
X29858Y-24460D01*
X30015Y-24524D01*
X30184Y-24525D01*
X30340Y-24460D01*
X30460Y-24341D01*
X30524Y-24184D01*
X30525Y-24015D01*
X30525Y-25015D01*
X30460Y-24859D01*
X30341Y-24739D01*
X30184Y-24675D01*
X30015Y-24674D01*
X29859Y-24739D01*
X29739Y-24858D01*
X29675Y-25015D01*
X29674Y-25184D01*
X29739Y-25340D01*
X29858Y-25460D01*
X30015Y-25524D01*
X30184Y-25525D01*
X30340Y-25460D01*
X30460Y-25341D01*
X30524Y-25184D01*
X30525Y-25015D01*
X30525Y-26015D01*
X30460Y-25859D01*
X30341Y-25739D01*
X30184Y-25675D01*
X30015Y-25674D01*
X29859Y-25739D01*
X29739Y-25858D01*
X29675Y-26015D01*
X29674Y-26184D01*
X29739Y-26340D01*
X29858Y-26460D01*
X30015Y-26524D01*
X30184Y-26525D01*
X30340Y-26460D01*
X30460Y-26341D01*
X30524Y-26184D01*
X30525Y-26015D01*
X30525Y-27015D01*
X30460Y-26859D01*
X30341Y-26739D01*
X30184Y-26675D01*
X30015Y-26674D01*
X29859Y-26739D01*
X29739Y-26858D01*
X29675Y-27015D01*
X29674Y-27184D01*
X29739Y-27340D01*
X29858Y-27460D01*
X30015Y-27524D01*
X30184Y-27525D01*
X30340Y-27460D01*
X30460Y-27341D01*
X30524Y-27184D01*
X30525Y-27015D01*
X30525Y-28015D01*
X30460Y-27859D01*
X30341Y-27739D01*
X30184Y-27675D01*
X30015Y-27674D01*
X29859Y-27739D01*
X29739Y-27858D01*
X29675Y-28015D01*
X29674Y-28184D01*
X29739Y-28340D01*
X29858Y-28460D01*
X30015Y-28524D01*
X30184Y-28525D01*
X30340Y-28460D01*
X30460Y-28341D01*
X30524Y-28184D01*
X30525Y-28015D01*
X30525Y-29015D01*
X30460Y-28859D01*
X30341Y-28739D01*
X30184Y-28675D01*
X30015Y-28674D01*
X29859Y-28739D01*
X29739Y-28858D01*
X29675Y-29015D01*
X29674Y-29184D01*
X29739Y-29340D01*
X29858Y-29460D01*
X30015Y-29524D01*
X30184Y-29525D01*
X30340Y-29460D01*
X30460Y-29341D01*
X30524Y-29184D01*
X30525Y-29015D01*
X30525Y-30015D01*
X30460Y-29859D01*
X30341Y-29739D01*
X30184Y-29675D01*
X30015Y-29674D01*
X29859Y-29739D01*
X29739Y-29858D01*
X29675Y-30015D01*
X29674Y-30184D01*
X29739Y-30340D01*
X29858Y-30460D01*
X30015Y-30524D01*
X30184Y-30525D01*
X30340Y-30460D01*
X30460Y-30341D01*
X30524Y-30184D01*
X30525Y-30015D01*
X30525Y-31015D01*
X30460Y-30859D01*
X30341Y-30739D01*
X30184Y-30675D01*
X30015Y-30674D01*
X29859Y-30739D01*
X29739Y-30858D01*
X29675Y-31015D01*
X29674Y-31184D01*
X29739Y-31340D01*
X29858Y-31460D01*
X30015Y-31524D01*
X30184Y-31525D01*
X30340Y-31460D01*
X30460Y-31341D01*
X30524Y-31184D01*
X30525Y-31015D01*
X30525Y-32015D01*
X30460Y-31859D01*
X30341Y-31739D01*
X30184Y-31675D01*
X30015Y-31674D01*
X29859Y-31739D01*
X29739Y-31858D01*
X29675Y-32015D01*
X29674Y-32184D01*
X29739Y-32340D01*
X29858Y-32460D01*
X30015Y-32524D01*
X30184Y-32525D01*
X30340Y-32460D01*
X30460Y-32341D01*
X30524Y-32184D01*
X30525Y-32015D01*
X30525Y-33015D01*
X30460Y-32859D01*
X30341Y-32739D01*
X30184Y-32675D01*
X30015Y-32674D01*
X29859Y-32739D01*
X29739Y-32858D01*
X29675Y-33015D01*
X29674Y-33184D01*
X29739Y-33340D01*
X29858Y-33460D01*
X30015Y-33524D01*
X30184Y-33525D01*
X30340Y-33460D01*
X30460Y-33341D01*
X30524Y-33184D01*
X30525Y-33015D01*
X30525Y-34015D01*
X30460Y-33859D01*
X30341Y-33739D01*
X30184Y-33675D01*
X30015Y-33674D01*
X29859Y-33739D01*
X29739Y-33858D01*
X29675Y-34015D01*
X29674Y-34184D01*
X29739Y-34340D01*
X29858Y-34460D01*
X30015Y-34524D01*
X30184Y-34525D01*
X30340Y-34460D01*
X30460Y-34341D01*
X30524Y-34184D01*
X30525Y-34015D01*
X30525Y-35015D01*
X30460Y-34859D01*
X30341Y-34739D01*
X30184Y-34675D01*
X30015Y-34674D01*
X29859Y-34739D01*
X29739Y-34858D01*
X29675Y-35015D01*
X29674Y-35184D01*
X29739Y-35340D01*
X29858Y-35460D01*
X30015Y-35524D01*
X30184Y-35525D01*
X30340Y-35460D01*
X30460Y-35341D01*
X30524Y-35184D01*
X30525Y-35015D01*
X30525Y-36015D01*
X30460Y-35859D01*
X30341Y-35739D01*
X30184Y-35675D01*
X30015Y-35674D01*
X29859Y-35739D01*
X29739Y-35858D01*
X29675Y-36015D01*
X29674Y-36184D01*
X29739Y-36340D01*
X29858Y-36460D01*
X30015Y-36524D01*
X30184Y-36525D01*
X30241Y-36501D01*
X30615Y-36876D01*
X30615Y-40733D01*
X30590Y-40672D01*
X30527Y-40609D01*
X30525Y-40608D01*
X30525Y-40015D01*
X30525Y-39015D01*
X30525Y-38015D01*
X30476Y-37899D01*
X30476Y-37036D01*
X30472Y-37014D01*
X30440Y-36971D01*
X30312Y-37100D01*
X30440Y-37228D01*
X30472Y-37185D01*
X30476Y-37036D01*
X30476Y-37899D01*
X30460Y-37859D01*
X30341Y-37739D01*
X30228Y-37693D01*
X30228Y-37440D01*
X30228Y-36759D01*
X30185Y-36727D01*
X30036Y-36723D01*
X30014Y-36727D01*
X29971Y-36759D01*
X30100Y-36887D01*
X30228Y-36759D01*
X30228Y-37440D01*
X30100Y-37312D01*
X29971Y-37440D01*
X30014Y-37472D01*
X30163Y-37476D01*
X30185Y-37472D01*
X30228Y-37440D01*
X30228Y-37693D01*
X30184Y-37675D01*
X30015Y-37674D01*
X29887Y-37727D01*
X29887Y-37100D01*
X29759Y-36971D01*
X29727Y-37014D01*
X29723Y-37163D01*
X29727Y-37185D01*
X29759Y-37228D01*
X29887Y-37100D01*
X29887Y-37727D01*
X29859Y-37739D01*
X29739Y-37858D01*
X29675Y-38015D01*
X29674Y-38184D01*
X29739Y-38340D01*
X29858Y-38460D01*
X30015Y-38524D01*
X30184Y-38525D01*
X30340Y-38460D01*
X30460Y-38341D01*
X30524Y-38184D01*
X30525Y-38015D01*
X30525Y-39015D01*
X30460Y-38859D01*
X30341Y-38739D01*
X30184Y-38675D01*
X30015Y-38674D01*
X29859Y-38739D01*
X29739Y-38858D01*
X29675Y-39015D01*
X29674Y-39184D01*
X29739Y-39340D01*
X29858Y-39460D01*
X30015Y-39524D01*
X30184Y-39525D01*
X30340Y-39460D01*
X30460Y-39341D01*
X30524Y-39184D01*
X30525Y-39015D01*
X30525Y-40015D01*
X30460Y-39859D01*
X30341Y-39739D01*
X30184Y-39675D01*
X30015Y-39674D01*
X29859Y-39739D01*
X29739Y-39858D01*
X29675Y-40015D01*
X29674Y-40184D01*
X29739Y-40340D01*
X29858Y-40460D01*
X30015Y-40524D01*
X30184Y-40525D01*
X30340Y-40460D01*
X30460Y-40341D01*
X30524Y-40184D01*
X30525Y-40015D01*
X30525Y-40608D01*
X30444Y-40575D01*
X30355Y-40574D01*
X29755Y-40574D01*
X29672Y-40609D01*
X29650Y-40631D01*
X29650Y-20420D01*
X29602Y-20305D01*
X29602Y-19443D01*
X29597Y-19417D01*
X29565Y-19378D01*
X29444Y-19500D01*
X29565Y-19621D01*
X29597Y-19582D01*
X29602Y-19443D01*
X29602Y-20305D01*
X29589Y-20273D01*
X29476Y-20161D01*
X29371Y-20117D01*
X29371Y-19815D01*
X29371Y-19184D01*
X29332Y-19152D01*
X29193Y-19147D01*
X29167Y-19152D01*
X29128Y-19184D01*
X29250Y-19305D01*
X29371Y-19184D01*
X29371Y-19815D01*
X29250Y-19694D01*
X29128Y-19815D01*
X29167Y-19847D01*
X29306Y-19852D01*
X29332Y-19847D01*
X29371Y-19815D01*
X29371Y-20117D01*
X29329Y-20100D01*
X29170Y-20099D01*
X29055Y-20147D01*
X29055Y-19500D01*
X28934Y-19378D01*
X28902Y-19417D01*
X28897Y-19556D01*
X28902Y-19582D01*
X28934Y-19621D01*
X29055Y-19500D01*
X29055Y-20147D01*
X29023Y-20160D01*
X28911Y-20273D01*
X28850Y-20420D01*
X28849Y-20579D01*
X28867Y-20622D01*
X28394Y-21094D01*
X28354Y-21154D01*
X28340Y-21225D01*
X28340Y-36775D01*
X28354Y-36845D01*
X28394Y-36905D01*
X28675Y-37185D01*
X28739Y-37340D01*
X28858Y-37460D01*
X29015Y-37524D01*
X29184Y-37525D01*
X29340Y-37460D01*
X29460Y-37341D01*
X29524Y-37184D01*
X29525Y-37015D01*
X29460Y-36859D01*
X29341Y-36739D01*
X29184Y-36675D01*
X29015Y-36674D01*
X28859Y-36739D01*
X28804Y-36794D01*
X28709Y-36698D01*
X28709Y-36266D01*
X28739Y-36340D01*
X28858Y-36460D01*
X29015Y-36524D01*
X29184Y-36525D01*
X29340Y-36460D01*
X29460Y-36341D01*
X29524Y-36184D01*
X29525Y-36015D01*
X29460Y-35859D01*
X29341Y-35739D01*
X29184Y-35675D01*
X29015Y-35674D01*
X28859Y-35739D01*
X28739Y-35858D01*
X28709Y-35933D01*
X28709Y-35266D01*
X28739Y-35340D01*
X28858Y-35460D01*
X29015Y-35524D01*
X29184Y-35525D01*
X29340Y-35460D01*
X29460Y-35341D01*
X29524Y-35184D01*
X29525Y-35015D01*
X29460Y-34859D01*
X29341Y-34739D01*
X29184Y-34675D01*
X29015Y-34674D01*
X28859Y-34739D01*
X28739Y-34858D01*
X28709Y-34933D01*
X28709Y-34266D01*
X28739Y-34340D01*
X28858Y-34460D01*
X29015Y-34524D01*
X29184Y-34525D01*
X29340Y-34460D01*
X29460Y-34341D01*
X29524Y-34184D01*
X29525Y-34015D01*
X29460Y-33859D01*
X29341Y-33739D01*
X29184Y-33675D01*
X29015Y-33674D01*
X28859Y-33739D01*
X28739Y-33858D01*
X28709Y-33933D01*
X28709Y-33266D01*
X28739Y-33340D01*
X28858Y-33460D01*
X29015Y-33524D01*
X29184Y-33525D01*
X29340Y-33460D01*
X29460Y-33341D01*
X29524Y-33184D01*
X29525Y-33015D01*
X29460Y-32859D01*
X29341Y-32739D01*
X29184Y-32675D01*
X29015Y-32674D01*
X28859Y-32739D01*
X28739Y-32858D01*
X28709Y-32933D01*
X28709Y-32266D01*
X28739Y-32340D01*
X28858Y-32460D01*
X29015Y-32524D01*
X29184Y-32525D01*
X29340Y-32460D01*
X29460Y-32341D01*
X29524Y-32184D01*
X29525Y-32015D01*
X29460Y-31859D01*
X29341Y-31739D01*
X29184Y-31675D01*
X29015Y-31674D01*
X28859Y-31739D01*
X28739Y-31858D01*
X28709Y-31933D01*
X28709Y-31266D01*
X28739Y-31340D01*
X28858Y-31460D01*
X29015Y-31524D01*
X29184Y-31525D01*
X29340Y-31460D01*
X29460Y-31341D01*
X29524Y-31184D01*
X29525Y-31015D01*
X29460Y-30859D01*
X29341Y-30739D01*
X29184Y-30675D01*
X29015Y-30674D01*
X28859Y-30739D01*
X28739Y-30858D01*
X28709Y-30933D01*
X28709Y-30266D01*
X28739Y-30340D01*
X28858Y-30460D01*
X29015Y-30524D01*
X29184Y-30525D01*
X29340Y-30460D01*
X29460Y-30341D01*
X29524Y-30184D01*
X29525Y-30015D01*
X29460Y-29859D01*
X29341Y-29739D01*
X29184Y-29675D01*
X29015Y-29674D01*
X28859Y-29739D01*
X28739Y-29858D01*
X28709Y-29933D01*
X28709Y-29266D01*
X28739Y-29340D01*
X28858Y-29460D01*
X29015Y-29524D01*
X29184Y-29525D01*
X29340Y-29460D01*
X29460Y-29341D01*
X29524Y-29184D01*
X29525Y-29015D01*
X29460Y-28859D01*
X29341Y-28739D01*
X29184Y-28675D01*
X29015Y-28674D01*
X28859Y-28739D01*
X28739Y-28858D01*
X28709Y-28933D01*
X28709Y-28266D01*
X28739Y-28340D01*
X28858Y-28460D01*
X29015Y-28524D01*
X29184Y-28525D01*
X29340Y-28460D01*
X29460Y-28341D01*
X29524Y-28184D01*
X29525Y-28015D01*
X29460Y-27859D01*
X29341Y-27739D01*
X29184Y-27675D01*
X29015Y-27674D01*
X28859Y-27739D01*
X28739Y-27858D01*
X28709Y-27933D01*
X28709Y-27266D01*
X28739Y-27340D01*
X28858Y-27460D01*
X29015Y-27524D01*
X29184Y-27525D01*
X29340Y-27460D01*
X29460Y-27341D01*
X29524Y-27184D01*
X29525Y-27015D01*
X29460Y-26859D01*
X29341Y-26739D01*
X29184Y-26675D01*
X29015Y-26674D01*
X28859Y-26739D01*
X28739Y-26858D01*
X28709Y-26933D01*
X28709Y-26266D01*
X28739Y-26340D01*
X28858Y-26460D01*
X29015Y-26524D01*
X29184Y-26525D01*
X29340Y-26460D01*
X29460Y-26341D01*
X29524Y-26184D01*
X29525Y-26015D01*
X29460Y-25859D01*
X29341Y-25739D01*
X29184Y-25675D01*
X29015Y-25674D01*
X28859Y-25739D01*
X28739Y-25858D01*
X28709Y-25933D01*
X28709Y-25266D01*
X28739Y-25340D01*
X28858Y-25460D01*
X29015Y-25524D01*
X29184Y-25525D01*
X29340Y-25460D01*
X29460Y-25341D01*
X29524Y-25184D01*
X29525Y-25015D01*
X29460Y-24859D01*
X29341Y-24739D01*
X29184Y-24675D01*
X29015Y-24674D01*
X28859Y-24739D01*
X28739Y-24858D01*
X28709Y-24933D01*
X28709Y-24266D01*
X28739Y-24340D01*
X28858Y-24460D01*
X29015Y-24524D01*
X29184Y-24525D01*
X29340Y-24460D01*
X29460Y-24341D01*
X29524Y-24184D01*
X29525Y-24015D01*
X29460Y-23859D01*
X29341Y-23739D01*
X29184Y-23675D01*
X29015Y-23674D01*
X28859Y-23739D01*
X28739Y-23858D01*
X28709Y-23933D01*
X28709Y-23266D01*
X28739Y-23340D01*
X28858Y-23460D01*
X29015Y-23524D01*
X29184Y-23525D01*
X29340Y-23460D01*
X29460Y-23341D01*
X29524Y-23184D01*
X29525Y-23015D01*
X29460Y-22859D01*
X29341Y-22739D01*
X29184Y-22675D01*
X29015Y-22674D01*
X28859Y-22739D01*
X28739Y-22858D01*
X28709Y-22933D01*
X28709Y-22266D01*
X28739Y-22340D01*
X28858Y-22460D01*
X29015Y-22524D01*
X29184Y-22525D01*
X29340Y-22460D01*
X29460Y-22341D01*
X29524Y-22184D01*
X29525Y-22015D01*
X29460Y-21859D01*
X29341Y-21739D01*
X29184Y-21675D01*
X29015Y-21674D01*
X28859Y-21739D01*
X28739Y-21858D01*
X28709Y-21933D01*
X28709Y-21301D01*
X29127Y-20882D01*
X29170Y-20899D01*
X29329Y-20900D01*
X29476Y-20839D01*
X29588Y-20726D01*
X29649Y-20579D01*
X29650Y-20420D01*
X29650Y-40631D01*
X29609Y-40672D01*
X29575Y-40755D01*
X29574Y-40844D01*
X29574Y-40874D01*
X29545Y-40803D01*
X29425Y-40682D01*
X29425Y-40517D01*
X29544Y-40397D01*
X29624Y-40204D01*
X29625Y-39996D01*
X29545Y-39803D01*
X29525Y-39782D01*
X29525Y-38015D01*
X29460Y-37859D01*
X29341Y-37739D01*
X29184Y-37675D01*
X29015Y-37674D01*
X28859Y-37739D01*
X28739Y-37858D01*
X28675Y-38015D01*
X28674Y-38184D01*
X28739Y-38340D01*
X28858Y-38460D01*
X29015Y-38524D01*
X29184Y-38525D01*
X29340Y-38460D01*
X29460Y-38341D01*
X29524Y-38184D01*
X29525Y-38015D01*
X29525Y-39782D01*
X29476Y-39734D01*
X29476Y-39036D01*
X29472Y-39014D01*
X29440Y-38971D01*
X29312Y-39100D01*
X29440Y-39228D01*
X29472Y-39185D01*
X29476Y-39036D01*
X29476Y-39734D01*
X29397Y-39655D01*
X29228Y-39584D01*
X29228Y-39440D01*
X29228Y-38759D01*
X29185Y-38727D01*
X29036Y-38723D01*
X29014Y-38727D01*
X28971Y-38759D01*
X29100Y-38887D01*
X29228Y-38759D01*
X29228Y-39440D01*
X29100Y-39312D01*
X28971Y-39440D01*
X29014Y-39472D01*
X29163Y-39476D01*
X29185Y-39472D01*
X29228Y-39440D01*
X29228Y-39584D01*
X29204Y-39575D01*
X28996Y-39574D01*
X28887Y-39619D01*
X28887Y-39100D01*
X28759Y-38971D01*
X28727Y-39014D01*
X28723Y-39163D01*
X28727Y-39185D01*
X28759Y-39228D01*
X28887Y-39100D01*
X28887Y-39619D01*
X28881Y-39622D01*
X28025Y-38765D01*
X27725Y-38465D01*
X27725Y-35625D01*
X28025Y-35625D01*
X28025Y-31774D01*
X27864Y-31775D01*
X27864Y-29195D01*
X27858Y-29110D01*
X27857Y-29109D01*
X27811Y-28942D01*
X27773Y-28865D01*
X27773Y-28865D01*
X27666Y-28727D01*
X27601Y-28671D01*
X27601Y-28671D01*
X27450Y-28584D01*
X27368Y-28557D01*
X27368Y-28557D01*
X27195Y-28535D01*
X27110Y-28542D01*
X27110Y-28542D01*
X26942Y-28588D01*
X26865Y-28626D01*
X26865Y-28626D01*
X26727Y-28733D01*
X26671Y-28798D01*
X26671Y-28798D01*
X26584Y-28949D01*
X26557Y-29031D01*
X26557Y-29031D01*
X26535Y-29204D01*
X26542Y-29289D01*
X26588Y-29457D01*
X26626Y-29534D01*
X26626Y-29534D01*
X26733Y-29672D01*
X26798Y-29728D01*
X26798Y-29728D01*
X26949Y-29815D01*
X27031Y-29842D01*
X27031Y-29842D01*
X27204Y-29864D01*
X27289Y-29858D01*
X27289Y-29857D01*
X27457Y-29811D01*
X27534Y-29773D01*
X27534Y-29773D01*
X27672Y-29666D01*
X27728Y-29601D01*
X27728Y-29601D01*
X27815Y-29450D01*
X27842Y-29368D01*
X27842Y-29368D01*
X27864Y-29195D01*
X27864Y-31775D01*
X27575Y-31778D01*
X27575Y-31664D01*
X27575Y-31035D01*
X27563Y-31007D01*
X27542Y-30986D01*
X27514Y-30975D01*
X27485Y-30974D01*
X27318Y-30975D01*
X27300Y-30993D01*
X27300Y-31200D01*
X27556Y-31200D01*
X27575Y-31181D01*
X27575Y-31035D01*
X27575Y-31664D01*
X27575Y-31518D01*
X27556Y-31500D01*
X27300Y-31500D01*
X27300Y-31706D01*
X27318Y-31725D01*
X27485Y-31725D01*
X27514Y-31724D01*
X27542Y-31713D01*
X27563Y-31692D01*
X27575Y-31664D01*
X27575Y-31778D01*
X26900Y-31782D01*
X26900Y-31706D01*
X26900Y-31500D01*
X26900Y-31200D01*
X26900Y-30993D01*
X26881Y-30975D01*
X26714Y-30974D01*
X26685Y-30975D01*
X26657Y-30986D01*
X26636Y-31007D01*
X26624Y-31035D01*
X26625Y-31181D01*
X26643Y-31200D01*
X26900Y-31200D01*
X26900Y-31500D01*
X26643Y-31500D01*
X26625Y-31518D01*
X26624Y-31664D01*
X26636Y-31692D01*
X26657Y-31713D01*
X26685Y-31724D01*
X26714Y-31725D01*
X26881Y-31725D01*
X26900Y-31706D01*
X26900Y-31782D01*
X26481Y-31785D01*
X26481Y-31313D01*
X25975Y-31313D01*
X25975Y-31164D01*
X25975Y-30535D01*
X25963Y-30507D01*
X25942Y-30486D01*
X25914Y-30475D01*
X25885Y-30474D01*
X25718Y-30475D01*
X25700Y-30493D01*
X25700Y-30700D01*
X25956Y-30700D01*
X25975Y-30681D01*
X25975Y-30535D01*
X25975Y-31164D01*
X25975Y-31018D01*
X25956Y-31000D01*
X25700Y-31000D01*
X25700Y-31206D01*
X25718Y-31225D01*
X25885Y-31225D01*
X25914Y-31224D01*
X25942Y-31213D01*
X25963Y-31192D01*
X25975Y-31164D01*
X25975Y-31313D01*
X25300Y-31313D01*
X25300Y-31206D01*
X25300Y-31000D01*
X25300Y-30700D01*
X25300Y-30493D01*
X25281Y-30475D01*
X25114Y-30474D01*
X25085Y-30475D01*
X25057Y-30486D01*
X25036Y-30507D01*
X25024Y-30535D01*
X25025Y-30681D01*
X25043Y-30700D01*
X25300Y-30700D01*
X25300Y-31000D01*
X25043Y-31000D01*
X25025Y-31018D01*
X25024Y-31164D01*
X25036Y-31192D01*
X25057Y-31213D01*
X25085Y-31224D01*
X25114Y-31225D01*
X25281Y-31225D01*
X25300Y-31206D01*
X25300Y-31313D01*
X24925Y-31313D01*
X24925Y-28025D01*
X24925Y-27425D01*
X24906Y-27379D01*
X24870Y-27344D01*
X24824Y-27325D01*
X24775Y-27324D01*
X24175Y-27324D01*
X24129Y-27343D01*
X24094Y-27379D01*
X24075Y-27425D01*
X24074Y-27474D01*
X24074Y-28074D01*
X24093Y-28120D01*
X24129Y-28155D01*
X24175Y-28174D01*
X24224Y-28175D01*
X24824Y-28175D01*
X24870Y-28156D01*
X24905Y-28120D01*
X24924Y-28074D01*
X24925Y-28025D01*
X24925Y-31313D01*
X24225Y-31313D01*
X24225Y-31164D01*
X24225Y-30535D01*
X24213Y-30507D01*
X24192Y-30486D01*
X24164Y-30475D01*
X24135Y-30474D01*
X23968Y-30475D01*
X23950Y-30493D01*
X23950Y-30700D01*
X24206Y-30700D01*
X24225Y-30681D01*
X24225Y-30535D01*
X24225Y-31164D01*
X24225Y-31018D01*
X24206Y-31000D01*
X23950Y-31000D01*
X23950Y-31206D01*
X23968Y-31225D01*
X24135Y-31225D01*
X24164Y-31224D01*
X24192Y-31213D01*
X24213Y-31192D01*
X24225Y-31164D01*
X24225Y-31313D01*
X23550Y-31313D01*
X23550Y-31206D01*
X23550Y-31000D01*
X23550Y-30700D01*
X23550Y-30493D01*
X23531Y-30475D01*
X23364Y-30474D01*
X23335Y-30475D01*
X23307Y-30486D01*
X23286Y-30507D01*
X23274Y-30535D01*
X23275Y-30681D01*
X23293Y-30700D01*
X23550Y-30700D01*
X23550Y-31000D01*
X23293Y-31000D01*
X23275Y-31018D01*
X23274Y-31164D01*
X23286Y-31192D01*
X23307Y-31213D01*
X23335Y-31224D01*
X23364Y-31225D01*
X23531Y-31225D01*
X23550Y-31206D01*
X23550Y-31313D01*
X22730Y-31313D01*
X22730Y-31628D01*
X21825Y-31627D01*
X21825Y-31564D01*
X21825Y-30935D01*
X21813Y-30907D01*
X21792Y-30886D01*
X21764Y-30875D01*
X21735Y-30874D01*
X21568Y-30875D01*
X21550Y-30893D01*
X21550Y-31100D01*
X21806Y-31100D01*
X21825Y-31081D01*
X21825Y-30935D01*
X21825Y-31564D01*
X21825Y-31418D01*
X21806Y-31400D01*
X21550Y-31400D01*
X21550Y-31606D01*
X21568Y-31625D01*
X21735Y-31625D01*
X21764Y-31624D01*
X21792Y-31613D01*
X21813Y-31592D01*
X21825Y-31564D01*
X21825Y-31627D01*
X21150Y-31626D01*
X21150Y-31606D01*
X21150Y-31400D01*
X21150Y-31100D01*
X21150Y-30893D01*
X21131Y-30875D01*
X20964Y-30874D01*
X20935Y-30875D01*
X20907Y-30886D01*
X20886Y-30907D01*
X20874Y-30935D01*
X20875Y-31081D01*
X20893Y-31100D01*
X21150Y-31100D01*
X21150Y-31400D01*
X20893Y-31400D01*
X20875Y-31418D01*
X20874Y-31564D01*
X20886Y-31592D01*
X20907Y-31613D01*
X20935Y-31624D01*
X20964Y-31625D01*
X21131Y-31625D01*
X21150Y-31606D01*
X21150Y-31626D01*
X20275Y-31624D01*
X20275Y-32225D01*
X16409Y-32225D01*
X15825Y-31640D01*
X15825Y-28075D01*
X22974Y-28075D01*
X22974Y-28094D01*
X23009Y-28177D01*
X23072Y-28240D01*
X23155Y-28274D01*
X23244Y-28275D01*
X23844Y-28275D01*
X23927Y-28240D01*
X23990Y-28177D01*
X24024Y-28094D01*
X24025Y-28005D01*
X24025Y-27405D01*
X23990Y-27322D01*
X23927Y-27259D01*
X23925Y-27258D01*
X23925Y-26665D01*
X23860Y-26509D01*
X23741Y-26389D01*
X23584Y-26325D01*
X23415Y-26324D01*
X23259Y-26389D01*
X23139Y-26508D01*
X23116Y-26565D01*
X22776Y-26565D01*
X22534Y-26323D01*
X22534Y-24576D01*
X23530Y-23580D01*
X23530Y-23580D01*
X23570Y-23520D01*
X23584Y-23450D01*
X23584Y-23450D01*
X23584Y-19400D01*
X23584Y-17900D01*
X23570Y-17829D01*
X23530Y-17769D01*
X23530Y-17769D01*
X22202Y-16442D01*
X22202Y-16250D01*
X22202Y-15525D01*
X22424Y-15525D01*
X22470Y-15506D01*
X22505Y-15470D01*
X22524Y-15424D01*
X22525Y-15375D01*
X22525Y-14575D01*
X22506Y-14529D01*
X22470Y-14494D01*
X22424Y-14475D01*
X22375Y-14474D01*
X22284Y-14474D01*
X22284Y-14054D01*
X22332Y-14021D01*
X22444Y-13854D01*
X22483Y-13657D01*
X22483Y-12842D01*
X22444Y-12645D01*
X22332Y-12478D01*
X22165Y-12366D01*
X21968Y-12327D01*
X21771Y-12366D01*
X21604Y-12478D01*
X21492Y-12645D01*
X21453Y-12842D01*
X21453Y-13657D01*
X21492Y-13854D01*
X21604Y-14021D01*
X21771Y-14133D01*
X21915Y-14162D01*
X21915Y-14474D01*
X21775Y-14474D01*
X21729Y-14493D01*
X21694Y-14529D01*
X21675Y-14575D01*
X21674Y-14624D01*
X21674Y-15424D01*
X21693Y-15470D01*
X21729Y-15505D01*
X21775Y-15524D01*
X21824Y-15525D01*
X21834Y-15525D01*
X21834Y-16250D01*
X21834Y-16518D01*
X21848Y-16587D01*
X20880Y-15619D01*
X20820Y-15579D01*
X20750Y-15565D01*
X20719Y-15565D01*
X20719Y-12160D01*
X20717Y-12153D01*
X20682Y-12095D01*
X20528Y-12250D01*
X20682Y-12404D01*
X20717Y-12346D01*
X20719Y-12160D01*
X20719Y-15565D01*
X20428Y-15565D01*
X20428Y-14082D01*
X20404Y-14023D01*
X20404Y-12682D01*
X20404Y-11817D01*
X20346Y-11782D01*
X20160Y-11780D01*
X20153Y-11782D01*
X20095Y-11817D01*
X20250Y-11971D01*
X20404Y-11817D01*
X20404Y-12682D01*
X20250Y-12528D01*
X20095Y-12682D01*
X20153Y-12717D01*
X20339Y-12719D01*
X20346Y-12717D01*
X20404Y-12682D01*
X20404Y-14023D01*
X20300Y-13772D01*
X20063Y-13535D01*
X19971Y-13497D01*
X19971Y-12250D01*
X19817Y-12095D01*
X19782Y-12153D01*
X19780Y-12339D01*
X19782Y-12346D01*
X19817Y-12404D01*
X19971Y-12250D01*
X19971Y-13497D01*
X19753Y-13406D01*
X19417Y-13406D01*
X19107Y-13534D01*
X18870Y-13771D01*
X18741Y-14081D01*
X18741Y-14417D01*
X18869Y-14727D01*
X19106Y-14964D01*
X19416Y-15093D01*
X19752Y-15093D01*
X20062Y-14965D01*
X20299Y-14728D01*
X20428Y-14418D01*
X20428Y-14082D01*
X20428Y-15565D01*
X18500Y-15565D01*
X18429Y-15579D01*
X18369Y-15619D01*
X17869Y-16119D01*
X17829Y-16179D01*
X17815Y-16250D01*
X17815Y-16371D01*
X17762Y-16393D01*
X17643Y-16511D01*
X17579Y-16665D01*
X17579Y-16833D01*
X17643Y-16987D01*
X17761Y-17106D01*
X17915Y-17170D01*
X18083Y-17170D01*
X18237Y-17106D01*
X18356Y-16988D01*
X18420Y-16834D01*
X18420Y-16666D01*
X18356Y-16512D01*
X18238Y-16393D01*
X18184Y-16371D01*
X18184Y-16326D01*
X18576Y-15934D01*
X20673Y-15934D01*
X21815Y-17076D01*
X21815Y-18759D01*
X21800Y-18775D01*
X21800Y-17990D01*
X21754Y-17880D01*
X21670Y-17795D01*
X21559Y-17750D01*
X21440Y-17749D01*
X21330Y-17795D01*
X21284Y-17840D01*
X19434Y-17840D01*
X19434Y-17500D01*
X19434Y-17000D01*
X19420Y-16931D01*
X19420Y-16429D01*
X19401Y-16383D01*
X19366Y-16348D01*
X19320Y-16329D01*
X19270Y-16329D01*
X18679Y-16329D01*
X18633Y-16348D01*
X18598Y-16383D01*
X18579Y-16429D01*
X18579Y-16479D01*
X18579Y-17070D01*
X18598Y-17116D01*
X18633Y-17151D01*
X18679Y-17170D01*
X18729Y-17170D01*
X19065Y-17170D01*
X19065Y-17500D01*
X19065Y-17923D01*
X18872Y-18117D01*
X18872Y-17687D01*
X18868Y-17665D01*
X18835Y-17623D01*
X18708Y-17750D01*
X18835Y-17876D01*
X18868Y-17834D01*
X18872Y-17687D01*
X18872Y-18117D01*
X18626Y-18362D01*
X18626Y-18085D01*
X18626Y-17414D01*
X18584Y-17381D01*
X18437Y-17377D01*
X18415Y-17381D01*
X18373Y-17414D01*
X18500Y-17541D01*
X18626Y-17414D01*
X18626Y-18085D01*
X18500Y-17958D01*
X18373Y-18085D01*
X18415Y-18118D01*
X18562Y-18122D01*
X18584Y-18118D01*
X18626Y-18085D01*
X18626Y-18362D01*
X18423Y-18565D01*
X18291Y-18565D01*
X18291Y-17750D01*
X18164Y-17623D01*
X18131Y-17665D01*
X18127Y-17812D01*
X18131Y-17834D01*
X18164Y-17876D01*
X18291Y-17750D01*
X18291Y-18565D01*
X18071Y-18565D01*
X18056Y-18529D01*
X18020Y-18494D01*
X17974Y-18475D01*
X17925Y-18474D01*
X17872Y-18474D01*
X17872Y-17687D01*
X17868Y-17665D01*
X17835Y-17623D01*
X17708Y-17750D01*
X17835Y-17876D01*
X17868Y-17834D01*
X17872Y-17687D01*
X17872Y-18474D01*
X17626Y-18474D01*
X17626Y-18085D01*
X17626Y-17414D01*
X17584Y-17381D01*
X17437Y-17377D01*
X17420Y-17380D01*
X17420Y-16666D01*
X17356Y-16512D01*
X17238Y-16393D01*
X17084Y-16329D01*
X16916Y-16329D01*
X16762Y-16393D01*
X16643Y-16511D01*
X16579Y-16665D01*
X16579Y-16833D01*
X16643Y-16987D01*
X16761Y-17106D01*
X16915Y-17170D01*
X17083Y-17170D01*
X17237Y-17106D01*
X17356Y-16988D01*
X17420Y-16834D01*
X17420Y-16666D01*
X17420Y-17380D01*
X17415Y-17381D01*
X17373Y-17414D01*
X17500Y-17541D01*
X17626Y-17414D01*
X17626Y-18085D01*
X17500Y-17958D01*
X17373Y-18085D01*
X17415Y-18118D01*
X17562Y-18122D01*
X17584Y-18118D01*
X17626Y-18085D01*
X17626Y-18474D01*
X17325Y-18474D01*
X17291Y-18489D01*
X17291Y-17750D01*
X17164Y-17623D01*
X17131Y-17665D01*
X17127Y-17812D01*
X17131Y-17834D01*
X17164Y-17876D01*
X17291Y-17750D01*
X17291Y-18489D01*
X17279Y-18493D01*
X17244Y-18529D01*
X17225Y-18575D01*
X17224Y-18624D01*
X17224Y-19424D01*
X17243Y-19470D01*
X17279Y-19505D01*
X17325Y-19524D01*
X17374Y-19525D01*
X17414Y-19525D01*
X17194Y-19745D01*
X17165Y-19744D01*
X16365Y-19744D01*
X16319Y-19763D01*
X16284Y-19799D01*
X16265Y-19845D01*
X16264Y-19894D01*
X16264Y-20154D01*
X16283Y-20200D01*
X16319Y-20235D01*
X16353Y-20250D01*
X16319Y-20263D01*
X16284Y-20299D01*
X16265Y-20345D01*
X16264Y-20394D01*
X16264Y-20654D01*
X16283Y-20700D01*
X16319Y-20735D01*
X16365Y-20754D01*
X16414Y-20755D01*
X17214Y-20755D01*
X17260Y-20736D01*
X17295Y-20700D01*
X17314Y-20654D01*
X17315Y-20605D01*
X17315Y-20345D01*
X17296Y-20299D01*
X17260Y-20264D01*
X17226Y-20249D01*
X17260Y-20236D01*
X17295Y-20200D01*
X17314Y-20154D01*
X17314Y-20140D01*
X17330Y-20130D01*
X17780Y-19680D01*
X17820Y-19620D01*
X17820Y-19620D01*
X17834Y-19550D01*
X17834Y-19550D01*
X17834Y-19525D01*
X17974Y-19525D01*
X18020Y-19506D01*
X18055Y-19470D01*
X18074Y-19424D01*
X18075Y-19375D01*
X18075Y-18934D01*
X18500Y-18934D01*
X18500Y-18934D01*
X18570Y-18920D01*
X18570Y-18920D01*
X18630Y-18880D01*
X19301Y-18209D01*
X21241Y-18209D01*
X21245Y-18219D01*
X21329Y-18304D01*
X21440Y-18349D01*
X21559Y-18350D01*
X21669Y-18304D01*
X21754Y-18220D01*
X21799Y-18109D01*
X21800Y-17990D01*
X21800Y-18775D01*
X21745Y-18829D01*
X21700Y-18940D01*
X21699Y-19039D01*
X21369Y-19369D01*
X21329Y-19429D01*
X21315Y-19500D01*
X21315Y-19674D01*
X21075Y-19674D01*
X21029Y-19693D01*
X20994Y-19729D01*
X20975Y-19775D01*
X20974Y-19815D01*
X19722Y-19815D01*
X19716Y-19799D01*
X19680Y-19764D01*
X19634Y-19745D01*
X19585Y-19744D01*
X18785Y-19744D01*
X18739Y-19763D01*
X18704Y-19799D01*
X18685Y-19845D01*
X18684Y-19894D01*
X18684Y-20154D01*
X18703Y-20200D01*
X18739Y-20235D01*
X18785Y-20254D01*
X18834Y-20255D01*
X19634Y-20255D01*
X19680Y-20236D01*
X19715Y-20200D01*
X19722Y-20184D01*
X20974Y-20184D01*
X20974Y-20424D01*
X20993Y-20470D01*
X21029Y-20505D01*
X21075Y-20524D01*
X21124Y-20525D01*
X21924Y-20525D01*
X21970Y-20506D01*
X22005Y-20470D01*
X22024Y-20424D01*
X22025Y-20375D01*
X22025Y-19775D01*
X22006Y-19729D01*
X21970Y-19694D01*
X21924Y-19675D01*
X21875Y-19674D01*
X21684Y-19674D01*
X21684Y-19576D01*
X21960Y-19299D01*
X22059Y-19300D01*
X22169Y-19254D01*
X22254Y-19170D01*
X22299Y-19059D01*
X22300Y-18940D01*
X22254Y-18830D01*
X22184Y-18759D01*
X22184Y-17000D01*
X22170Y-16930D01*
X23215Y-17976D01*
X23215Y-19400D01*
X23215Y-23373D01*
X22219Y-24369D01*
X22179Y-24429D01*
X22165Y-24500D01*
X22165Y-26400D01*
X22179Y-26470D01*
X22219Y-26530D01*
X22569Y-26880D01*
X22569Y-26880D01*
X22629Y-26920D01*
X22699Y-26934D01*
X22700Y-26934D01*
X23116Y-26934D01*
X23139Y-26990D01*
X23258Y-27110D01*
X23415Y-27174D01*
X23584Y-27175D01*
X23740Y-27110D01*
X23860Y-26991D01*
X23924Y-26834D01*
X23925Y-26665D01*
X23925Y-27258D01*
X23844Y-27225D01*
X23755Y-27224D01*
X23155Y-27224D01*
X23072Y-27259D01*
X23009Y-27322D01*
X22975Y-27405D01*
X22975Y-27425D01*
X15909Y-27425D01*
X15825Y-27340D01*
X15825Y-22775D01*
X18260Y-22775D01*
X18384Y-22750D01*
X18384Y-22750D01*
X18489Y-22679D01*
X18509Y-22659D01*
X19314Y-21855D01*
X19654Y-21855D01*
X19727Y-21825D01*
X20908Y-21825D01*
X20909Y-21827D01*
X20972Y-21890D01*
X21055Y-21924D01*
X21144Y-21925D01*
X21944Y-21925D01*
X22027Y-21890D01*
X22090Y-21827D01*
X22124Y-21744D01*
X22125Y-21655D01*
X22125Y-21055D01*
X22090Y-20972D01*
X22043Y-20925D01*
X22070Y-20920D01*
X22070Y-20920D01*
X22130Y-20880D01*
X22630Y-20380D01*
X22630Y-20380D01*
X22670Y-20320D01*
X22684Y-20250D01*
X22684Y-20250D01*
X22684Y-20100D01*
X22684Y-19793D01*
X22805Y-19550D01*
X22809Y-19550D01*
X22919Y-19504D01*
X23004Y-19420D01*
X23049Y-19309D01*
X23050Y-19190D01*
X23004Y-19080D01*
X22920Y-18995D01*
X22809Y-18950D01*
X22690Y-18949D01*
X22580Y-18995D01*
X22495Y-19079D01*
X22450Y-19190D01*
X22449Y-19309D01*
X22479Y-19380D01*
X22335Y-19667D01*
X22333Y-19674D01*
X22329Y-19679D01*
X22324Y-19708D01*
X22316Y-19736D01*
X22317Y-19743D01*
X22315Y-19750D01*
X22315Y-20100D01*
X22315Y-20173D01*
X21923Y-20565D01*
X21100Y-20565D01*
X20950Y-20565D01*
X20879Y-20579D01*
X20819Y-20619D01*
X20623Y-20815D01*
X19800Y-20815D01*
X19722Y-20815D01*
X19716Y-20799D01*
X19685Y-20768D01*
X19685Y-20644D01*
X19685Y-20355D01*
X19673Y-20327D01*
X19652Y-20306D01*
X19624Y-20295D01*
X19595Y-20294D01*
X19428Y-20295D01*
X19410Y-20313D01*
X19410Y-20435D01*
X19666Y-20435D01*
X19685Y-20416D01*
X19685Y-20355D01*
X19685Y-20644D01*
X19685Y-20583D01*
X19666Y-20565D01*
X19410Y-20565D01*
X19410Y-20686D01*
X19428Y-20705D01*
X19595Y-20705D01*
X19624Y-20704D01*
X19652Y-20693D01*
X19673Y-20672D01*
X19685Y-20644D01*
X19685Y-20768D01*
X19680Y-20764D01*
X19634Y-20745D01*
X19585Y-20744D01*
X19010Y-20744D01*
X19010Y-20686D01*
X19010Y-20565D01*
X19010Y-20435D01*
X19010Y-20313D01*
X18991Y-20295D01*
X18824Y-20294D01*
X18795Y-20295D01*
X18767Y-20306D01*
X18746Y-20327D01*
X18734Y-20355D01*
X18735Y-20416D01*
X18753Y-20435D01*
X19010Y-20435D01*
X19010Y-20565D01*
X18753Y-20565D01*
X18735Y-20583D01*
X18734Y-20644D01*
X18746Y-20672D01*
X18767Y-20693D01*
X18795Y-20704D01*
X18824Y-20705D01*
X18991Y-20705D01*
X19010Y-20686D01*
X19010Y-20744D01*
X18785Y-20744D01*
X18739Y-20763D01*
X18704Y-20799D01*
X18685Y-20845D01*
X18684Y-20894D01*
X18684Y-21154D01*
X18693Y-21174D01*
X18682Y-21179D01*
X18619Y-21242D01*
X18585Y-21325D01*
X18584Y-21414D01*
X18584Y-21665D01*
X18125Y-22125D01*
X17265Y-22125D01*
X17265Y-21644D01*
X17265Y-21355D01*
X17265Y-21144D01*
X17265Y-20855D01*
X17253Y-20827D01*
X17232Y-20806D01*
X17204Y-20795D01*
X17175Y-20794D01*
X17008Y-20795D01*
X16990Y-20813D01*
X16990Y-20935D01*
X17246Y-20935D01*
X17265Y-20916D01*
X17265Y-20855D01*
X17265Y-21144D01*
X17265Y-21083D01*
X17246Y-21065D01*
X16990Y-21065D01*
X16990Y-21186D01*
X17008Y-21205D01*
X17175Y-21205D01*
X17204Y-21204D01*
X17232Y-21193D01*
X17253Y-21172D01*
X17265Y-21144D01*
X17265Y-21355D01*
X17253Y-21327D01*
X17232Y-21306D01*
X17204Y-21295D01*
X17175Y-21294D01*
X17008Y-21295D01*
X16990Y-21313D01*
X16990Y-21435D01*
X17246Y-21435D01*
X17265Y-21416D01*
X17265Y-21355D01*
X17265Y-21644D01*
X17265Y-21583D01*
X17246Y-21565D01*
X16990Y-21565D01*
X16990Y-21686D01*
X17008Y-21705D01*
X17175Y-21705D01*
X17204Y-21704D01*
X17232Y-21693D01*
X17253Y-21672D01*
X17265Y-21644D01*
X17265Y-22125D01*
X16590Y-22125D01*
X16590Y-21686D01*
X16590Y-21565D01*
X16590Y-21435D01*
X16590Y-21313D01*
X16590Y-21186D01*
X16590Y-21065D01*
X16590Y-20935D01*
X16590Y-20813D01*
X16571Y-20795D01*
X16404Y-20794D01*
X16375Y-20795D01*
X16347Y-20806D01*
X16326Y-20827D01*
X16314Y-20855D01*
X16315Y-20916D01*
X16333Y-20935D01*
X16590Y-20935D01*
X16590Y-21065D01*
X16333Y-21065D01*
X16315Y-21083D01*
X16314Y-21144D01*
X16326Y-21172D01*
X16347Y-21193D01*
X16375Y-21204D01*
X16404Y-21205D01*
X16571Y-21205D01*
X16590Y-21186D01*
X16590Y-21313D01*
X16571Y-21295D01*
X16404Y-21294D01*
X16375Y-21295D01*
X16347Y-21306D01*
X16326Y-21327D01*
X16314Y-21355D01*
X16315Y-21416D01*
X16333Y-21435D01*
X16590Y-21435D01*
X16590Y-21565D01*
X16333Y-21565D01*
X16315Y-21583D01*
X16314Y-21644D01*
X16326Y-21672D01*
X16347Y-21693D01*
X16375Y-21704D01*
X16404Y-21705D01*
X16571Y-21705D01*
X16590Y-21686D01*
X16590Y-22125D01*
X15825Y-22125D01*
X15825Y-22050D01*
X15825Y-19444D01*
X15859Y-19527D01*
X15922Y-19590D01*
X16005Y-19624D01*
X16094Y-19625D01*
X16694Y-19625D01*
X16777Y-19590D01*
X16840Y-19527D01*
X16874Y-19444D01*
X16875Y-19355D01*
X16875Y-18555D01*
X16872Y-18549D01*
X16872Y-17687D01*
X16868Y-17665D01*
X16835Y-17623D01*
X16708Y-17750D01*
X16835Y-17876D01*
X16868Y-17834D01*
X16872Y-17687D01*
X16872Y-18549D01*
X16840Y-18472D01*
X16777Y-18409D01*
X16694Y-18375D01*
X16626Y-18374D01*
X16626Y-18085D01*
X16626Y-17414D01*
X16584Y-17381D01*
X16437Y-17377D01*
X16415Y-17381D01*
X16373Y-17414D01*
X16500Y-17541D01*
X16626Y-17414D01*
X16626Y-18085D01*
X16500Y-17958D01*
X16373Y-18085D01*
X16415Y-18118D01*
X16562Y-18122D01*
X16584Y-18118D01*
X16626Y-18085D01*
X16626Y-18374D01*
X16605Y-18374D01*
X16291Y-18374D01*
X16291Y-17750D01*
X16164Y-17623D01*
X16131Y-17665D01*
X16127Y-17812D01*
X16131Y-17834D01*
X16164Y-17876D01*
X16291Y-17750D01*
X16291Y-18374D01*
X16034Y-18374D01*
X15825Y-18165D01*
X15825Y-18161D01*
X15941Y-18045D01*
X16020Y-17853D01*
X16020Y-17646D01*
X15941Y-17455D01*
X15847Y-17361D01*
X15939Y-17270D01*
X16103Y-17270D01*
X16294Y-17191D01*
X16441Y-17045D01*
X16520Y-16853D01*
X16520Y-16646D01*
X16441Y-16455D01*
X16295Y-16308D01*
X16103Y-16229D01*
X15896Y-16229D01*
X15755Y-16287D01*
X15755Y-14082D01*
X15627Y-13772D01*
X15390Y-13535D01*
X15080Y-13406D01*
X14744Y-13406D01*
X14719Y-13416D01*
X14719Y-12160D01*
X14717Y-12153D01*
X14682Y-12095D01*
X14528Y-12250D01*
X14682Y-12404D01*
X14717Y-12346D01*
X14719Y-12160D01*
X14719Y-13416D01*
X14434Y-13534D01*
X14404Y-13565D01*
X14404Y-12682D01*
X14404Y-11817D01*
X14346Y-11782D01*
X14160Y-11780D01*
X14153Y-11782D01*
X14095Y-11817D01*
X14250Y-11971D01*
X14404Y-11817D01*
X14404Y-12682D01*
X14250Y-12528D01*
X14095Y-12682D01*
X14153Y-12717D01*
X14339Y-12719D01*
X14346Y-12717D01*
X14404Y-12682D01*
X14404Y-13565D01*
X14197Y-13771D01*
X14068Y-14081D01*
X14068Y-14417D01*
X14196Y-14727D01*
X14433Y-14964D01*
X14743Y-15093D01*
X15079Y-15093D01*
X15389Y-14965D01*
X15626Y-14728D01*
X15755Y-14418D01*
X15755Y-14082D01*
X15755Y-16287D01*
X15705Y-16308D01*
X15558Y-16454D01*
X15479Y-16646D01*
X15479Y-16810D01*
X15270Y-17020D01*
X15199Y-17125D01*
X15175Y-17250D01*
X15175Y-17338D01*
X15058Y-17454D01*
X14979Y-17646D01*
X14979Y-17853D01*
X15058Y-18044D01*
X15175Y-18161D01*
X15175Y-18300D01*
X15175Y-19479D01*
X15128Y-19398D01*
X15128Y-19398D01*
X15072Y-19333D01*
X14934Y-19226D01*
X14934Y-19226D01*
X14857Y-19188D01*
X14689Y-19142D01*
X14689Y-19141D01*
X14604Y-19135D01*
X14431Y-19157D01*
X14431Y-19157D01*
X14349Y-19184D01*
X14198Y-19271D01*
X14198Y-19271D01*
X14133Y-19327D01*
X14026Y-19465D01*
X14026Y-19465D01*
X13988Y-19542D01*
X13971Y-19602D01*
X13971Y-12250D01*
X13817Y-12095D01*
X13782Y-12153D01*
X13780Y-12339D01*
X13782Y-12346D01*
X13817Y-12404D01*
X13971Y-12250D01*
X13971Y-19602D01*
X13942Y-19710D01*
X13935Y-19795D01*
X13957Y-19968D01*
X13957Y-19968D01*
X13984Y-20050D01*
X14071Y-20201D01*
X14071Y-20201D01*
X14127Y-20266D01*
X14265Y-20373D01*
X14265Y-20373D01*
X14342Y-20411D01*
X14510Y-20457D01*
X14510Y-20457D01*
X14595Y-20464D01*
X14768Y-20442D01*
X14768Y-20442D01*
X14850Y-20415D01*
X15001Y-20328D01*
X15001Y-20328D01*
X15066Y-20272D01*
X15173Y-20134D01*
X15173Y-20134D01*
X15175Y-20131D01*
X15175Y-22050D01*
X15175Y-22425D01*
X15175Y-27475D01*
X15175Y-31775D01*
X15199Y-31899D01*
X15270Y-32004D01*
X16045Y-32779D01*
X16045Y-32779D01*
X16150Y-32850D01*
X16150Y-32850D01*
X16275Y-32875D01*
X20275Y-32875D01*
X20275Y-34200D01*
X20275Y-34850D01*
X20275Y-35625D01*
X22125Y-35625D01*
X22125Y-36490D01*
X21775Y-36840D01*
X21775Y-36364D01*
X21775Y-35735D01*
X21763Y-35707D01*
X21742Y-35686D01*
X21714Y-35675D01*
X21685Y-35674D01*
X21518Y-35675D01*
X21500Y-35693D01*
X21500Y-35900D01*
X21756Y-35900D01*
X21775Y-35881D01*
X21775Y-35735D01*
X21775Y-36364D01*
X21775Y-36218D01*
X21756Y-36200D01*
X21500Y-36200D01*
X21500Y-36406D01*
X21518Y-36425D01*
X21685Y-36425D01*
X21714Y-36424D01*
X21742Y-36413D01*
X21763Y-36392D01*
X21775Y-36364D01*
X21775Y-36840D01*
X21735Y-36879D01*
X21450Y-36879D01*
X21450Y-36760D01*
X21416Y-36677D01*
X21353Y-36614D01*
X21270Y-36579D01*
X21181Y-36579D01*
X21100Y-36579D01*
X21100Y-36406D01*
X21100Y-36200D01*
X21100Y-35900D01*
X21100Y-35693D01*
X21081Y-35675D01*
X20914Y-35674D01*
X20885Y-35675D01*
X20857Y-35686D01*
X20836Y-35707D01*
X20824Y-35735D01*
X20825Y-35881D01*
X20843Y-35900D01*
X21100Y-35900D01*
X21100Y-36200D01*
X20843Y-36200D01*
X20825Y-36218D01*
X20824Y-36364D01*
X20836Y-36392D01*
X20857Y-36413D01*
X20885Y-36424D01*
X20914Y-36425D01*
X21081Y-36425D01*
X21100Y-36406D01*
X21100Y-36579D01*
X20581Y-36579D01*
X20498Y-36613D01*
X20434Y-36677D01*
X20400Y-36759D01*
X20400Y-36849D01*
X20400Y-37649D01*
X20434Y-37732D01*
X20497Y-37795D01*
X20528Y-37807D01*
X20519Y-37816D01*
X20500Y-37862D01*
X20500Y-37912D01*
X20500Y-38712D01*
X20510Y-38736D01*
X20510Y-39590D01*
X20506Y-39592D01*
X20470Y-39627D01*
X20451Y-39673D01*
X20451Y-39722D01*
X20451Y-40273D01*
X20470Y-40319D01*
X20505Y-40355D01*
X20551Y-40374D01*
X20601Y-40374D01*
X20837Y-40374D01*
X20883Y-40355D01*
X20918Y-40320D01*
X20937Y-40274D01*
X20937Y-40224D01*
X20937Y-39673D01*
X20918Y-39627D01*
X20883Y-39592D01*
X20878Y-39590D01*
X20878Y-38812D01*
X21250Y-38812D01*
X21296Y-38793D01*
X21331Y-38758D01*
X21350Y-38712D01*
X21350Y-38662D01*
X21350Y-37862D01*
X21331Y-37816D01*
X21322Y-37807D01*
X21352Y-37795D01*
X21416Y-37732D01*
X21450Y-37649D01*
X21450Y-37560D01*
X21450Y-37529D01*
X21870Y-37529D01*
X21994Y-37504D01*
X21994Y-37504D01*
X22100Y-37434D01*
X22679Y-36854D01*
X22679Y-36854D01*
X22679Y-36854D01*
X22750Y-36749D01*
X22750Y-36749D01*
X22775Y-36625D01*
X22775Y-35625D01*
X27075Y-35625D01*
X27075Y-38600D01*
X27099Y-38724D01*
X27170Y-38829D01*
X28025Y-39684D01*
X28596Y-40256D01*
X28654Y-40397D01*
X28775Y-40517D01*
X28775Y-40682D01*
X28682Y-40775D01*
X28025Y-40775D01*
X26800Y-40775D01*
X26799Y-40775D01*
X26775Y-40779D01*
X26675Y-40799D01*
X26570Y-40870D01*
X26570Y-40870D01*
X26481Y-40958D01*
X26481Y-39080D01*
X26481Y-36274D01*
X22888Y-36274D01*
X22888Y-39030D01*
X21234Y-39030D01*
X21234Y-39573D01*
X21052Y-39573D01*
X21006Y-39592D01*
X20970Y-39627D01*
X20951Y-39673D01*
X20951Y-39722D01*
X20951Y-40273D01*
X20970Y-40319D01*
X21005Y-40355D01*
X21010Y-40357D01*
X21010Y-40528D01*
X20989Y-40550D01*
X20890Y-40549D01*
X20780Y-40595D01*
X20695Y-40679D01*
X20650Y-40790D01*
X20649Y-40909D01*
X20695Y-41019D01*
X20779Y-41104D01*
X20890Y-41149D01*
X20914Y-41149D01*
X20751Y-41313D01*
X20437Y-41313D01*
X20437Y-40224D01*
X20437Y-39673D01*
X20418Y-39627D01*
X20383Y-39592D01*
X20378Y-39590D01*
X20378Y-37320D01*
X20364Y-37250D01*
X20364Y-37250D01*
X20325Y-37190D01*
X20208Y-37074D01*
X20149Y-37034D01*
X20078Y-37020D01*
X20050Y-37020D01*
X20050Y-36779D01*
X20031Y-36734D01*
X19996Y-36698D01*
X19950Y-36679D01*
X19900Y-36679D01*
X19830Y-36679D01*
X19830Y-36548D01*
X19970Y-36548D01*
X20016Y-36529D01*
X20051Y-36494D01*
X20071Y-36448D01*
X20071Y-36398D01*
X20071Y-35598D01*
X20052Y-35552D01*
X20016Y-35517D01*
X19971Y-35498D01*
X19921Y-35498D01*
X19321Y-35498D01*
X19275Y-35517D01*
X19240Y-35552D01*
X19221Y-35598D01*
X19221Y-35648D01*
X19221Y-36448D01*
X19240Y-36494D01*
X19275Y-36529D01*
X19321Y-36548D01*
X19370Y-36548D01*
X19462Y-36548D01*
X19462Y-36679D01*
X19300Y-36679D01*
X19254Y-36698D01*
X19219Y-36733D01*
X19200Y-36779D01*
X19200Y-36829D01*
X19200Y-37629D01*
X19219Y-37675D01*
X19254Y-37710D01*
X19300Y-37729D01*
X19350Y-37729D01*
X19950Y-37729D01*
X19996Y-37710D01*
X20010Y-37696D01*
X20010Y-37795D01*
X19996Y-37781D01*
X19950Y-37762D01*
X19900Y-37762D01*
X19300Y-37762D01*
X19254Y-37781D01*
X19219Y-37816D01*
X19200Y-37862D01*
X19200Y-37912D01*
X19200Y-38162D01*
X19028Y-38162D01*
X19028Y-38022D01*
X19009Y-37976D01*
X18978Y-37945D01*
X18978Y-37361D01*
X18978Y-36731D01*
X18967Y-36704D01*
X18946Y-36683D01*
X18918Y-36671D01*
X18889Y-36671D01*
X18722Y-36671D01*
X18721Y-36673D01*
X18721Y-36408D01*
X18721Y-35638D01*
X18721Y-35608D01*
X18709Y-35581D01*
X18688Y-35560D01*
X18660Y-35548D01*
X18514Y-35548D01*
X18496Y-35567D01*
X18496Y-35823D01*
X18702Y-35823D01*
X18721Y-35804D01*
X18721Y-35638D01*
X18721Y-36408D01*
X18721Y-36242D01*
X18702Y-36223D01*
X18496Y-36223D01*
X18496Y-36479D01*
X18514Y-36498D01*
X18660Y-36498D01*
X18688Y-36487D01*
X18709Y-36466D01*
X18721Y-36438D01*
X18721Y-36408D01*
X18721Y-36673D01*
X18703Y-36690D01*
X18703Y-36896D01*
X18960Y-36896D01*
X18978Y-36878D01*
X18978Y-36731D01*
X18978Y-37361D01*
X18978Y-37215D01*
X18960Y-37196D01*
X18703Y-37196D01*
X18703Y-37403D01*
X18722Y-37421D01*
X18889Y-37421D01*
X18918Y-37421D01*
X18946Y-37410D01*
X18967Y-37389D01*
X18978Y-37361D01*
X18978Y-37945D01*
X18974Y-37940D01*
X18928Y-37921D01*
X18879Y-37921D01*
X18303Y-37921D01*
X18303Y-37403D01*
X18303Y-37196D01*
X18303Y-36896D01*
X18303Y-36690D01*
X18285Y-36671D01*
X18196Y-36671D01*
X18196Y-36479D01*
X18196Y-36223D01*
X18196Y-35823D01*
X18196Y-35567D01*
X18177Y-35548D01*
X18031Y-35548D01*
X18003Y-35560D01*
X17982Y-35581D01*
X17971Y-35608D01*
X17971Y-35638D01*
X17971Y-35804D01*
X17989Y-35823D01*
X18196Y-35823D01*
X18196Y-36223D01*
X17989Y-36223D01*
X17971Y-36242D01*
X17971Y-36408D01*
X17971Y-36438D01*
X17982Y-36466D01*
X18003Y-36487D01*
X18031Y-36498D01*
X18177Y-36498D01*
X18196Y-36479D01*
X18196Y-36671D01*
X18118Y-36671D01*
X18088Y-36671D01*
X18061Y-36683D01*
X18040Y-36704D01*
X18028Y-36731D01*
X18028Y-36878D01*
X18047Y-36896D01*
X18303Y-36896D01*
X18303Y-37196D01*
X18047Y-37196D01*
X18028Y-37215D01*
X18028Y-37361D01*
X18040Y-37389D01*
X18061Y-37410D01*
X18088Y-37421D01*
X18118Y-37421D01*
X18285Y-37421D01*
X18303Y-37403D01*
X18303Y-37921D01*
X18079Y-37921D01*
X18033Y-37940D01*
X17998Y-37975D01*
X17978Y-38021D01*
X17978Y-38071D01*
X17978Y-38671D01*
X17997Y-38717D01*
X18033Y-38752D01*
X18078Y-38771D01*
X18128Y-38771D01*
X18928Y-38771D01*
X18974Y-38752D01*
X19009Y-38717D01*
X19028Y-38671D01*
X19028Y-38622D01*
X19028Y-38530D01*
X19200Y-38530D01*
X19200Y-38712D01*
X19219Y-38758D01*
X19254Y-38793D01*
X19300Y-38812D01*
X19350Y-38812D01*
X19950Y-38812D01*
X19996Y-38793D01*
X20010Y-38778D01*
X20010Y-39590D01*
X20006Y-39592D01*
X19970Y-39627D01*
X19951Y-39673D01*
X19951Y-39722D01*
X19951Y-40273D01*
X19970Y-40319D01*
X20005Y-40355D01*
X20051Y-40374D01*
X20101Y-40374D01*
X20337Y-40374D01*
X20383Y-40355D01*
X20418Y-40320D01*
X20437Y-40274D01*
X20437Y-40224D01*
X20437Y-41313D01*
X20349Y-41313D01*
X20349Y-41731D01*
X20327Y-41723D01*
X20272Y-41723D01*
X20253Y-41741D01*
X20253Y-41935D01*
X20312Y-41935D01*
X20312Y-42211D01*
X20253Y-42211D01*
X20253Y-42405D01*
X20272Y-42424D01*
X20327Y-42424D01*
X20349Y-42415D01*
X20349Y-43282D01*
X20135Y-43282D01*
X20135Y-42405D01*
X20135Y-42211D01*
X20135Y-41935D01*
X20135Y-41741D01*
X20117Y-41723D01*
X20062Y-41723D01*
X20034Y-41734D01*
X20013Y-41755D01*
X20001Y-41783D01*
X20001Y-41812D01*
X20001Y-41917D01*
X20020Y-41935D01*
X20135Y-41935D01*
X20135Y-42211D01*
X20020Y-42211D01*
X20001Y-42230D01*
X20001Y-42334D01*
X20001Y-42364D01*
X20013Y-42391D01*
X20034Y-42412D01*
X20062Y-42424D01*
X20117Y-42424D01*
X20135Y-42405D01*
X20135Y-43282D01*
X19586Y-43282D01*
X19594Y-43278D01*
X19615Y-43257D01*
X19627Y-43229D01*
X19627Y-43200D01*
X19627Y-42429D01*
X19627Y-41920D01*
X19627Y-41150D01*
X19627Y-41120D01*
X19615Y-41092D01*
X19594Y-41071D01*
X19567Y-41060D01*
X19421Y-41060D01*
X19402Y-41079D01*
X19402Y-41335D01*
X19608Y-41335D01*
X19627Y-41316D01*
X19627Y-41150D01*
X19627Y-41920D01*
X19627Y-41754D01*
X19608Y-41735D01*
X19402Y-41735D01*
X19402Y-41991D01*
X19421Y-42010D01*
X19567Y-42010D01*
X19594Y-41999D01*
X19615Y-41977D01*
X19627Y-41950D01*
X19627Y-41920D01*
X19627Y-42429D01*
X19627Y-42399D01*
X19615Y-42372D01*
X19594Y-42351D01*
X19567Y-42339D01*
X19421Y-42339D01*
X19402Y-42358D01*
X19402Y-42614D01*
X19608Y-42614D01*
X19627Y-42596D01*
X19627Y-42429D01*
X19627Y-43200D01*
X19627Y-43033D01*
X19608Y-43014D01*
X19402Y-43014D01*
X19402Y-43047D01*
X19102Y-43047D01*
X19102Y-43014D01*
X19102Y-42614D01*
X19102Y-42358D01*
X19102Y-41991D01*
X19102Y-41735D01*
X19102Y-41335D01*
X19102Y-41079D01*
X19083Y-41060D01*
X18937Y-41060D01*
X18909Y-41071D01*
X18888Y-41092D01*
X18877Y-41120D01*
X18877Y-41150D01*
X18877Y-41316D01*
X18896Y-41335D01*
X19102Y-41335D01*
X19102Y-41735D01*
X18896Y-41735D01*
X18877Y-41754D01*
X18877Y-41920D01*
X18877Y-41950D01*
X18888Y-41977D01*
X18909Y-41999D01*
X18937Y-42010D01*
X19083Y-42010D01*
X19102Y-41991D01*
X19102Y-42358D01*
X19083Y-42339D01*
X18937Y-42339D01*
X18909Y-42351D01*
X18888Y-42372D01*
X18877Y-42399D01*
X18877Y-42429D01*
X18877Y-42596D01*
X18896Y-42614D01*
X19102Y-42614D01*
X19102Y-43014D01*
X18896Y-43014D01*
X18877Y-43033D01*
X18877Y-43200D01*
X18877Y-43229D01*
X18888Y-43257D01*
X18909Y-43278D01*
X18918Y-43282D01*
X18897Y-43282D01*
X18824Y-43282D01*
X18824Y-39049D01*
X17600Y-39049D01*
X17600Y-38936D01*
X17600Y-38306D01*
X17589Y-38279D01*
X17568Y-38258D01*
X17540Y-38246D01*
X17511Y-38246D01*
X17344Y-38246D01*
X17325Y-38265D01*
X17325Y-38471D01*
X17582Y-38471D01*
X17600Y-38452D01*
X17600Y-38306D01*
X17600Y-38936D01*
X17600Y-38790D01*
X17582Y-38771D01*
X17325Y-38771D01*
X17325Y-38977D01*
X17344Y-38996D01*
X17511Y-38996D01*
X17540Y-38996D01*
X17568Y-38985D01*
X17589Y-38964D01*
X17600Y-38936D01*
X17600Y-39049D01*
X16925Y-39049D01*
X16925Y-38977D01*
X16925Y-38771D01*
X16925Y-38471D01*
X16925Y-38265D01*
X16907Y-38246D01*
X16864Y-38246D01*
X16864Y-35804D01*
X16842Y-35631D01*
X16842Y-35631D01*
X16815Y-35549D01*
X16728Y-35398D01*
X16728Y-35398D01*
X16672Y-35333D01*
X16534Y-35226D01*
X16534Y-35226D01*
X16457Y-35188D01*
X16289Y-35142D01*
X16289Y-35141D01*
X16204Y-35135D01*
X16031Y-35157D01*
X16031Y-35157D01*
X15949Y-35184D01*
X15798Y-35271D01*
X15798Y-35271D01*
X15733Y-35327D01*
X15626Y-35465D01*
X15626Y-35465D01*
X15588Y-35542D01*
X15542Y-35710D01*
X15535Y-35795D01*
X15557Y-35968D01*
X15557Y-35968D01*
X15584Y-36050D01*
X15671Y-36201D01*
X15671Y-36201D01*
X15727Y-36266D01*
X15865Y-36373D01*
X15865Y-36373D01*
X15942Y-36411D01*
X16110Y-36457D01*
X16110Y-36457D01*
X16195Y-36464D01*
X16368Y-36442D01*
X16368Y-36442D01*
X16450Y-36415D01*
X16601Y-36328D01*
X16601Y-36328D01*
X16666Y-36272D01*
X16773Y-36134D01*
X16773Y-36134D01*
X16811Y-36057D01*
X16857Y-35890D01*
X16858Y-35889D01*
X16864Y-35804D01*
X16864Y-38246D01*
X16740Y-38246D01*
X16711Y-38246D01*
X16683Y-38258D01*
X16662Y-38279D01*
X16650Y-38306D01*
X16650Y-38452D01*
X16669Y-38471D01*
X16925Y-38471D01*
X16925Y-38771D01*
X16669Y-38771D01*
X16650Y-38790D01*
X16650Y-38936D01*
X16662Y-38964D01*
X16683Y-38985D01*
X16711Y-38996D01*
X16740Y-38996D01*
X16907Y-38996D01*
X16925Y-38977D01*
X16925Y-39049D01*
X16419Y-39049D01*
X16419Y-38936D01*
X16419Y-38306D01*
X16408Y-38279D01*
X16387Y-38258D01*
X16359Y-38246D01*
X16330Y-38246D01*
X16163Y-38246D01*
X16144Y-38265D01*
X16144Y-38471D01*
X16401Y-38471D01*
X16419Y-38452D01*
X16419Y-38306D01*
X16419Y-38936D01*
X16419Y-38790D01*
X16401Y-38771D01*
X16144Y-38771D01*
X16144Y-38977D01*
X16163Y-38996D01*
X16330Y-38996D01*
X16359Y-38996D01*
X16387Y-38985D01*
X16408Y-38964D01*
X16419Y-38936D01*
X16419Y-39049D01*
X15744Y-39049D01*
X15744Y-38977D01*
X15744Y-38771D01*
X15744Y-38471D01*
X15744Y-38265D01*
X15726Y-38246D01*
X15559Y-38246D01*
X15529Y-38246D01*
X15502Y-38258D01*
X15481Y-38279D01*
X15469Y-38306D01*
X15469Y-38452D01*
X15488Y-38471D01*
X15744Y-38471D01*
X15744Y-38771D01*
X15488Y-38771D01*
X15469Y-38790D01*
X15469Y-38936D01*
X15481Y-38964D01*
X15502Y-38985D01*
X15529Y-38996D01*
X15559Y-38996D01*
X15726Y-38996D01*
X15744Y-38977D01*
X15744Y-39049D01*
X15140Y-39049D01*
X15140Y-38936D01*
X15140Y-38306D01*
X15128Y-38279D01*
X15107Y-38258D01*
X15080Y-38246D01*
X15050Y-38246D01*
X14884Y-38246D01*
X14865Y-38265D01*
X14865Y-38471D01*
X15121Y-38471D01*
X15140Y-38452D01*
X15140Y-38306D01*
X15140Y-38936D01*
X15140Y-38790D01*
X15121Y-38771D01*
X14865Y-38771D01*
X14865Y-38977D01*
X14884Y-38996D01*
X15050Y-38996D01*
X15080Y-38996D01*
X15107Y-38985D01*
X15128Y-38964D01*
X15140Y-38936D01*
X15140Y-39049D01*
X14465Y-39049D01*
X14465Y-38977D01*
X14465Y-38771D01*
X14465Y-38471D01*
X14465Y-38265D01*
X14446Y-38246D01*
X14280Y-38246D01*
X14250Y-38246D01*
X14222Y-38258D01*
X14201Y-38279D01*
X14190Y-38306D01*
X14190Y-38452D01*
X14209Y-38471D01*
X14465Y-38471D01*
X14465Y-38771D01*
X14209Y-38771D01*
X14190Y-38790D01*
X14190Y-38936D01*
X14201Y-38964D01*
X14222Y-38985D01*
X14250Y-38996D01*
X14280Y-38996D01*
X14446Y-38996D01*
X14465Y-38977D01*
X14465Y-39049D01*
X14173Y-39049D01*
X13754Y-39049D01*
X13754Y-40748D01*
X13775Y-43375D01*
X15975Y-43375D01*
X15975Y-40725D01*
X17125Y-40725D01*
X17125Y-44150D01*
X22075Y-44150D01*
X22072Y-42421D01*
X22072Y-41734D01*
X22249Y-41734D01*
X22249Y-41874D01*
X22268Y-41920D01*
X22304Y-41955D01*
X22350Y-41974D01*
X22399Y-41975D01*
X23199Y-41975D01*
X23245Y-41956D01*
X23280Y-41920D01*
X23299Y-41874D01*
X23300Y-41825D01*
X23300Y-41225D01*
X23281Y-41179D01*
X23245Y-41144D01*
X23199Y-41125D01*
X23150Y-41124D01*
X22350Y-41124D01*
X22304Y-41143D01*
X22269Y-41179D01*
X22250Y-41225D01*
X22249Y-41274D01*
X22249Y-41365D01*
X22072Y-41365D01*
X22072Y-41313D01*
X21271Y-41313D01*
X21551Y-41034D01*
X23450Y-41034D01*
X23624Y-41207D01*
X23533Y-41207D01*
X23487Y-41226D01*
X23451Y-41261D01*
X23432Y-41307D01*
X23432Y-41357D01*
X23432Y-42157D01*
X23451Y-42202D01*
X23486Y-42238D01*
X23532Y-42257D01*
X23582Y-42257D01*
X24182Y-42257D01*
X24228Y-42238D01*
X24263Y-42203D01*
X24282Y-42157D01*
X24282Y-42107D01*
X24282Y-41307D01*
X24263Y-41261D01*
X24228Y-41226D01*
X24182Y-41207D01*
X24133Y-41207D01*
X24041Y-41207D01*
X24041Y-41180D01*
X24027Y-41110D01*
X23988Y-41050D01*
X23988Y-41050D01*
X23907Y-40969D01*
X24906Y-40969D01*
X24906Y-39080D01*
X26481Y-39080D01*
X26481Y-40958D01*
X26170Y-41270D01*
X26099Y-41375D01*
X26075Y-41500D01*
X26075Y-41524D01*
X26038Y-41524D01*
X26038Y-40359D01*
X26038Y-39483D01*
X26038Y-39453D01*
X26027Y-39425D01*
X26006Y-39404D01*
X25978Y-39393D01*
X25785Y-39393D01*
X25767Y-39412D01*
X25767Y-39696D01*
X26020Y-39696D01*
X26038Y-39677D01*
X26038Y-39483D01*
X26038Y-40359D01*
X26038Y-40165D01*
X26020Y-40146D01*
X25767Y-40146D01*
X25767Y-40430D01*
X25785Y-40449D01*
X25978Y-40449D01*
X26006Y-40437D01*
X26027Y-40416D01*
X26038Y-40389D01*
X26038Y-40359D01*
X26038Y-41524D01*
X25955Y-41524D01*
X25872Y-41559D01*
X25809Y-41622D01*
X25775Y-41705D01*
X25774Y-41794D01*
X25774Y-42394D01*
X25809Y-42477D01*
X25872Y-42540D01*
X25955Y-42574D01*
X26044Y-42575D01*
X26481Y-42575D01*
X26844Y-42575D01*
X26927Y-42540D01*
X26990Y-42477D01*
X27024Y-42394D01*
X27025Y-42305D01*
X27025Y-41705D01*
X26990Y-41622D01*
X26927Y-41559D01*
X26844Y-41525D01*
X26834Y-41525D01*
X26934Y-41425D01*
X28025Y-41425D01*
X28682Y-41425D01*
X28802Y-41544D01*
X28995Y-41624D01*
X29203Y-41625D01*
X29397Y-41545D01*
X29544Y-41397D01*
X29574Y-41325D01*
X29574Y-41444D01*
X29604Y-41515D01*
X29550Y-41515D01*
X29479Y-41529D01*
X29419Y-41569D01*
X29264Y-41724D01*
X28675Y-41724D01*
X28629Y-41743D01*
X28594Y-41779D01*
X28575Y-41825D01*
X28574Y-41874D01*
X28574Y-42474D01*
X28593Y-42520D01*
X28629Y-42555D01*
X28675Y-42574D01*
X28724Y-42575D01*
X29524Y-42575D01*
X29570Y-42556D01*
X29605Y-42520D01*
X29624Y-42474D01*
X29625Y-42425D01*
X29625Y-41885D01*
X29626Y-41884D01*
X30600Y-41884D01*
X30600Y-41884D01*
X30670Y-41870D01*
X30670Y-41870D01*
X30730Y-41830D01*
X30930Y-41630D01*
X30930Y-41630D01*
X30970Y-41570D01*
X30984Y-41500D01*
X30984Y-41500D01*
X30984Y-44250D01*
X30779Y-44250D01*
X30779Y-43748D01*
X30779Y-43119D01*
X30760Y-43073D01*
X30729Y-43042D01*
X30729Y-42670D01*
X30729Y-42011D01*
X30718Y-41984D01*
X30697Y-41962D01*
X30669Y-41951D01*
X30639Y-41951D01*
X30496Y-41951D01*
X30477Y-41970D01*
X30477Y-42183D01*
X30710Y-42183D01*
X30729Y-42165D01*
X30729Y-42011D01*
X30729Y-42670D01*
X30729Y-42517D01*
X30710Y-42498D01*
X30477Y-42498D01*
X30477Y-42711D01*
X30496Y-42730D01*
X30639Y-42730D01*
X30669Y-42730D01*
X30697Y-42719D01*
X30718Y-42697D01*
X30729Y-42670D01*
X30729Y-43042D01*
X30725Y-43038D01*
X30679Y-43019D01*
X30629Y-43019D01*
X30122Y-43019D01*
X30122Y-42711D01*
X30122Y-42498D01*
X30122Y-42183D01*
X30122Y-41970D01*
X30104Y-41951D01*
X29960Y-41951D01*
X29930Y-41951D01*
X29902Y-41962D01*
X29881Y-41984D01*
X29870Y-42011D01*
X29870Y-42165D01*
X29889Y-42183D01*
X30122Y-42183D01*
X30122Y-42498D01*
X29889Y-42498D01*
X29870Y-42517D01*
X29870Y-42670D01*
X29881Y-42697D01*
X29902Y-42719D01*
X29930Y-42730D01*
X29960Y-42730D01*
X30104Y-42730D01*
X30122Y-42711D01*
X30122Y-43019D01*
X29920Y-43019D01*
X29874Y-43038D01*
X29839Y-43073D01*
X29820Y-43119D01*
X29820Y-43169D01*
X29820Y-43265D01*
X29625Y-43265D01*
X29625Y-43125D01*
X29606Y-43079D01*
X29570Y-43044D01*
X29524Y-43025D01*
X29475Y-43024D01*
X28675Y-43024D01*
X28629Y-43043D01*
X28594Y-43079D01*
X28575Y-43125D01*
X28574Y-43174D01*
X28574Y-43774D01*
X28593Y-43820D01*
X28629Y-43855D01*
X28675Y-43874D01*
X28724Y-43875D01*
X29524Y-43875D01*
X29570Y-43856D01*
X29605Y-43820D01*
X29624Y-43774D01*
X29625Y-43725D01*
X29625Y-43634D01*
X29820Y-43634D01*
X29820Y-43798D01*
X29839Y-43844D01*
X29874Y-43879D01*
X29920Y-43898D01*
X29970Y-43898D01*
X30679Y-43898D01*
X30725Y-43879D01*
X30760Y-43844D01*
X30779Y-43798D01*
X30779Y-43748D01*
X30779Y-44250D01*
X28079Y-44250D01*
X28079Y-43648D01*
X28079Y-43019D01*
X28060Y-42973D01*
X28029Y-42942D01*
X28029Y-42570D01*
X28029Y-41911D01*
X28025Y-41900D01*
X28018Y-41884D01*
X27997Y-41862D01*
X27969Y-41851D01*
X27939Y-41851D01*
X27796Y-41851D01*
X27777Y-41870D01*
X27777Y-42083D01*
X28010Y-42083D01*
X28025Y-42069D01*
X28029Y-42065D01*
X28029Y-41911D01*
X28029Y-42570D01*
X28029Y-42417D01*
X28025Y-42412D01*
X28010Y-42398D01*
X27777Y-42398D01*
X27777Y-42611D01*
X27796Y-42630D01*
X27939Y-42630D01*
X27969Y-42630D01*
X27997Y-42619D01*
X28018Y-42597D01*
X28025Y-42581D01*
X28029Y-42570D01*
X28029Y-42942D01*
X28025Y-42938D01*
X28025Y-42938D01*
X27979Y-42919D01*
X27929Y-42919D01*
X27422Y-42919D01*
X27422Y-42611D01*
X27422Y-42398D01*
X27422Y-42083D01*
X27422Y-41870D01*
X27404Y-41851D01*
X27260Y-41851D01*
X27230Y-41851D01*
X27202Y-41862D01*
X27181Y-41884D01*
X27170Y-41911D01*
X27170Y-42065D01*
X27189Y-42083D01*
X27422Y-42083D01*
X27422Y-42398D01*
X27189Y-42398D01*
X27170Y-42417D01*
X27170Y-42570D01*
X27181Y-42597D01*
X27202Y-42619D01*
X27230Y-42630D01*
X27260Y-42630D01*
X27404Y-42630D01*
X27422Y-42611D01*
X27422Y-42919D01*
X27220Y-42919D01*
X27174Y-42938D01*
X27139Y-42973D01*
X27120Y-43019D01*
X27120Y-43069D01*
X27120Y-43165D01*
X26925Y-43165D01*
X26925Y-43025D01*
X26906Y-42979D01*
X26870Y-42944D01*
X26824Y-42925D01*
X26775Y-42924D01*
X26481Y-42924D01*
X25975Y-42924D01*
X25929Y-42943D01*
X25894Y-42979D01*
X25875Y-43025D01*
X25874Y-43074D01*
X25874Y-43674D01*
X25893Y-43720D01*
X25929Y-43755D01*
X25975Y-43774D01*
X26024Y-43775D01*
X26481Y-43775D01*
X26824Y-43775D01*
X26870Y-43756D01*
X26905Y-43720D01*
X26924Y-43674D01*
X26925Y-43625D01*
X26925Y-43534D01*
X27120Y-43534D01*
X27120Y-43698D01*
X27139Y-43744D01*
X27174Y-43779D01*
X27220Y-43798D01*
X27270Y-43798D01*
X27979Y-43798D01*
X28025Y-43779D01*
X28025Y-43779D01*
X28060Y-43744D01*
X28079Y-43698D01*
X28079Y-43648D01*
X28079Y-44250D01*
X28025Y-44250D01*
X26481Y-44250D01*
X25532Y-44250D01*
X25532Y-43298D01*
X25532Y-42528D01*
X25532Y-42117D01*
X25532Y-41347D01*
X25532Y-41317D01*
X25521Y-41289D01*
X25500Y-41268D01*
X25472Y-41257D01*
X25373Y-41257D01*
X25373Y-40430D01*
X25373Y-40146D01*
X25373Y-39696D01*
X25373Y-39412D01*
X25354Y-39393D01*
X25162Y-39393D01*
X25134Y-39404D01*
X25113Y-39425D01*
X25101Y-39453D01*
X25101Y-39483D01*
X25101Y-39677D01*
X25120Y-39696D01*
X25373Y-39696D01*
X25373Y-40146D01*
X25120Y-40146D01*
X25101Y-40165D01*
X25101Y-40359D01*
X25101Y-40389D01*
X25113Y-40416D01*
X25134Y-40437D01*
X25162Y-40449D01*
X25354Y-40449D01*
X25373Y-40430D01*
X25373Y-41257D01*
X25326Y-41257D01*
X25307Y-41276D01*
X25307Y-41532D01*
X25514Y-41532D01*
X25532Y-41513D01*
X25532Y-41347D01*
X25532Y-42117D01*
X25532Y-41951D01*
X25514Y-41932D01*
X25307Y-41932D01*
X25307Y-42188D01*
X25326Y-42207D01*
X25472Y-42207D01*
X25500Y-42195D01*
X25521Y-42174D01*
X25532Y-42147D01*
X25532Y-42117D01*
X25532Y-42528D01*
X25532Y-42498D01*
X25521Y-42470D01*
X25500Y-42449D01*
X25472Y-42438D01*
X25326Y-42438D01*
X25307Y-42457D01*
X25307Y-42713D01*
X25514Y-42713D01*
X25532Y-42694D01*
X25532Y-42528D01*
X25532Y-43298D01*
X25532Y-43132D01*
X25514Y-43113D01*
X25307Y-43113D01*
X25307Y-43369D01*
X25326Y-43388D01*
X25472Y-43388D01*
X25500Y-43377D01*
X25521Y-43355D01*
X25532Y-43328D01*
X25532Y-43298D01*
X25532Y-44250D01*
X25007Y-44250D01*
X25007Y-43369D01*
X25007Y-43113D01*
X25007Y-42713D01*
X25007Y-42457D01*
X25007Y-42188D01*
X25007Y-41932D01*
X25007Y-41532D01*
X25007Y-41276D01*
X24989Y-41257D01*
X24843Y-41257D01*
X24815Y-41268D01*
X24794Y-41289D01*
X24782Y-41317D01*
X24782Y-41347D01*
X24782Y-41513D01*
X24801Y-41532D01*
X25007Y-41532D01*
X25007Y-41932D01*
X24801Y-41932D01*
X24782Y-41951D01*
X24782Y-42117D01*
X24782Y-42147D01*
X24794Y-42174D01*
X24815Y-42195D01*
X24843Y-42207D01*
X24989Y-42207D01*
X25007Y-42188D01*
X25007Y-42457D01*
X24989Y-42438D01*
X24843Y-42438D01*
X24815Y-42449D01*
X24794Y-42470D01*
X24782Y-42498D01*
X24782Y-42528D01*
X24782Y-42694D01*
X24801Y-42713D01*
X25007Y-42713D01*
X25007Y-43113D01*
X24801Y-43113D01*
X24782Y-43132D01*
X24782Y-43298D01*
X24782Y-43328D01*
X24794Y-43355D01*
X24815Y-43377D01*
X24843Y-43388D01*
X24989Y-43388D01*
X25007Y-43369D01*
X25007Y-44250D01*
X24282Y-44250D01*
X24282Y-43288D01*
X24282Y-42488D01*
X24263Y-42442D01*
X24228Y-42407D01*
X24182Y-42388D01*
X24133Y-42388D01*
X23533Y-42388D01*
X23487Y-42407D01*
X23451Y-42442D01*
X23432Y-42488D01*
X23432Y-42538D01*
X23432Y-42729D01*
X22897Y-42729D01*
X22871Y-42702D01*
X22825Y-42683D01*
X22775Y-42683D01*
X22684Y-42683D01*
X22684Y-42539D01*
X22754Y-42470D01*
X22799Y-42359D01*
X22800Y-42240D01*
X22754Y-42130D01*
X22670Y-42045D01*
X22559Y-42000D01*
X22440Y-41999D01*
X22330Y-42045D01*
X22245Y-42129D01*
X22200Y-42240D01*
X22199Y-42359D01*
X22245Y-42469D01*
X22316Y-42540D01*
X22316Y-42683D01*
X22175Y-42683D01*
X22129Y-42702D01*
X22094Y-42737D01*
X22075Y-42783D01*
X22075Y-42833D01*
X22075Y-43633D01*
X22094Y-43679D01*
X22129Y-43714D01*
X22175Y-43733D01*
X22225Y-43733D01*
X22825Y-43733D01*
X22871Y-43714D01*
X22906Y-43679D01*
X22925Y-43633D01*
X22925Y-43583D01*
X22925Y-43097D01*
X23432Y-43097D01*
X23432Y-43338D01*
X23451Y-43384D01*
X23486Y-43419D01*
X23532Y-43438D01*
X23582Y-43438D01*
X24182Y-43438D01*
X24228Y-43419D01*
X24263Y-43384D01*
X24282Y-43338D01*
X24282Y-43288D01*
X24282Y-44250D01*
X22075Y-44250D01*
X17038Y-44250D01*
X17038Y-42055D01*
X17038Y-41444D01*
X17031Y-41237D01*
X16945Y-41049D01*
X16774Y-40973D01*
X16710Y-40958D01*
X16710Y-41525D01*
X17000Y-41525D01*
X17038Y-41444D01*
X17038Y-42055D01*
X17000Y-41975D01*
X16710Y-41975D01*
X16710Y-42541D01*
X16774Y-42526D01*
X16945Y-42450D01*
X17031Y-42262D01*
X17038Y-42055D01*
X17038Y-44250D01*
X16320Y-44250D01*
X16320Y-42541D01*
X16320Y-41975D01*
X16320Y-41525D01*
X16320Y-40958D01*
X16257Y-40973D01*
X16086Y-41049D01*
X16000Y-41237D01*
X15992Y-41444D01*
X16031Y-41525D01*
X16320Y-41525D01*
X16320Y-41975D01*
X16031Y-41975D01*
X15992Y-42055D01*
X16000Y-42262D01*
X16086Y-42450D01*
X16257Y-42526D01*
X16320Y-42541D01*
X16320Y-44250D01*
X13692Y-44250D01*
X13692Y-11050D01*
X31012Y-11050D01*
X31012Y-44250D01*
G54D10*
G36*
X26116Y-38793D02*
X25803Y-38793D01*
X25803Y-38371D01*
X25803Y-36885D01*
X25803Y-36855D01*
X25792Y-36827D01*
X25771Y-36806D01*
X25743Y-36795D01*
X25480Y-36795D01*
X25461Y-36814D01*
X25461Y-37403D01*
X25784Y-37403D01*
X25803Y-37384D01*
X25803Y-36885D01*
X25803Y-38371D01*
X25803Y-37872D01*
X25784Y-37853D01*
X25461Y-37853D01*
X25461Y-38442D01*
X25480Y-38461D01*
X25743Y-38461D01*
X25771Y-38449D01*
X25792Y-38428D01*
X25803Y-38401D01*
X25803Y-38371D01*
X25803Y-38793D01*
X25011Y-38793D01*
X25011Y-38442D01*
X25011Y-37853D01*
X25011Y-37403D01*
X25011Y-36814D01*
X24992Y-36795D01*
X24729Y-36795D01*
X24702Y-36806D01*
X24681Y-36827D01*
X24669Y-36855D01*
X24669Y-36885D01*
X24669Y-37384D01*
X24688Y-37403D01*
X25011Y-37403D01*
X25011Y-37853D01*
X24688Y-37853D01*
X24669Y-37872D01*
X24669Y-38371D01*
X24669Y-38401D01*
X24681Y-38428D01*
X24702Y-38449D01*
X24729Y-38461D01*
X24992Y-38461D01*
X25011Y-38442D01*
X25011Y-38793D01*
X24621Y-38793D01*
X24621Y-38371D01*
X24621Y-36885D01*
X24621Y-36855D01*
X24610Y-36827D01*
X24589Y-36806D01*
X24561Y-36795D01*
X24298Y-36795D01*
X24279Y-36814D01*
X24279Y-37403D01*
X24602Y-37403D01*
X24621Y-37384D01*
X24621Y-36885D01*
X24621Y-38371D01*
X24621Y-37872D01*
X24602Y-37853D01*
X24279Y-37853D01*
X24279Y-38442D01*
X24298Y-38461D01*
X24561Y-38461D01*
X24589Y-38449D01*
X24610Y-38428D01*
X24621Y-38401D01*
X24621Y-38371D01*
X24621Y-38793D01*
X24620Y-38793D01*
X24620Y-40683D01*
X24346Y-40683D01*
X24346Y-40359D01*
X24346Y-39483D01*
X24346Y-39453D01*
X24335Y-39425D01*
X24314Y-39404D01*
X24286Y-39393D01*
X24093Y-39393D01*
X24075Y-39412D01*
X24075Y-39696D01*
X24328Y-39696D01*
X24346Y-39677D01*
X24346Y-39483D01*
X24346Y-40359D01*
X24346Y-40165D01*
X24328Y-40146D01*
X24075Y-40146D01*
X24075Y-40430D01*
X24093Y-40449D01*
X24286Y-40449D01*
X24314Y-40437D01*
X24335Y-40416D01*
X24346Y-40389D01*
X24346Y-40359D01*
X24346Y-40683D01*
X23829Y-40683D01*
X23829Y-38442D01*
X23829Y-37853D01*
X23829Y-37403D01*
X23829Y-36814D01*
X23810Y-36795D01*
X23547Y-36795D01*
X23520Y-36806D01*
X23499Y-36827D01*
X23487Y-36855D01*
X23487Y-36885D01*
X23487Y-37384D01*
X23506Y-37403D01*
X23829Y-37403D01*
X23829Y-37853D01*
X23506Y-37853D01*
X23487Y-37872D01*
X23487Y-38371D01*
X23487Y-38401D01*
X23499Y-38428D01*
X23520Y-38449D01*
X23547Y-38461D01*
X23810Y-38461D01*
X23829Y-38442D01*
X23829Y-40683D01*
X23681Y-40683D01*
X23681Y-40430D01*
X23681Y-40146D01*
X23681Y-39696D01*
X23681Y-39412D01*
X23662Y-39393D01*
X23470Y-39393D01*
X23442Y-39404D01*
X23421Y-39425D01*
X23409Y-39453D01*
X23409Y-39483D01*
X23409Y-39677D01*
X23428Y-39696D01*
X23681Y-39696D01*
X23681Y-40146D01*
X23428Y-40146D01*
X23409Y-40165D01*
X23409Y-40359D01*
X23409Y-40389D01*
X23421Y-40416D01*
X23442Y-40437D01*
X23470Y-40449D01*
X23662Y-40449D01*
X23681Y-40430D01*
X23681Y-40683D01*
X23603Y-40683D01*
X23597Y-40679D01*
X23527Y-40665D01*
X23250Y-40665D01*
X23250Y-40564D01*
X23250Y-39935D01*
X23238Y-39907D01*
X23217Y-39886D01*
X23189Y-39875D01*
X23160Y-39874D01*
X22993Y-39875D01*
X22975Y-39893D01*
X22975Y-40100D01*
X23231Y-40100D01*
X23250Y-40081D01*
X23250Y-39935D01*
X23250Y-40564D01*
X23250Y-40418D01*
X23231Y-40400D01*
X22975Y-40400D01*
X22975Y-40606D01*
X22993Y-40625D01*
X23160Y-40625D01*
X23189Y-40624D01*
X23217Y-40613D01*
X23238Y-40592D01*
X23250Y-40564D01*
X23250Y-40665D01*
X22575Y-40665D01*
X22575Y-40606D01*
X22575Y-40400D01*
X22575Y-40100D01*
X22575Y-39893D01*
X22556Y-39875D01*
X22389Y-39874D01*
X22360Y-39875D01*
X22332Y-39886D01*
X22311Y-39907D01*
X22299Y-39935D01*
X22300Y-40081D01*
X22318Y-40100D01*
X22575Y-40100D01*
X22575Y-40400D01*
X22318Y-40400D01*
X22300Y-40418D01*
X22299Y-40564D01*
X22311Y-40592D01*
X22332Y-40613D01*
X22360Y-40624D01*
X22389Y-40625D01*
X22556Y-40625D01*
X22575Y-40606D01*
X22575Y-40665D01*
X21887Y-40665D01*
X21887Y-40234D01*
X21887Y-39712D01*
X21887Y-39683D01*
X21876Y-39655D01*
X21855Y-39634D01*
X21827Y-39623D01*
X21772Y-39623D01*
X21753Y-39641D01*
X21753Y-39835D01*
X21869Y-39835D01*
X21887Y-39817D01*
X21887Y-39712D01*
X21887Y-40234D01*
X21887Y-40130D01*
X21869Y-40111D01*
X21753Y-40111D01*
X21753Y-40305D01*
X21772Y-40324D01*
X21827Y-40324D01*
X21855Y-40312D01*
X21876Y-40291D01*
X21887Y-40264D01*
X21887Y-40234D01*
X21887Y-40665D01*
X21525Y-40665D01*
X21521Y-40665D01*
X21521Y-40299D01*
X21534Y-40312D01*
X21562Y-40324D01*
X21617Y-40324D01*
X21635Y-40305D01*
X21635Y-40111D01*
X21576Y-40111D01*
X21576Y-39835D01*
X21635Y-39835D01*
X21635Y-39641D01*
X21617Y-39623D01*
X21562Y-39623D01*
X21534Y-39634D01*
X21521Y-39647D01*
X21521Y-39395D01*
X23253Y-39395D01*
X23253Y-36560D01*
X26116Y-36560D01*
X26116Y-38793D01*
X26116Y-38793D01*
G37*
G54D34*
X26116Y-38793D02*
X25803Y-38793D01*
X25803Y-38371D01*
X25803Y-36885D01*
X25803Y-36855D01*
X25792Y-36827D01*
X25771Y-36806D01*
X25743Y-36795D01*
X25480Y-36795D01*
X25461Y-36814D01*
X25461Y-37403D01*
X25784Y-37403D01*
X25803Y-37384D01*
X25803Y-36885D01*
X25803Y-38371D01*
X25803Y-37872D01*
X25784Y-37853D01*
X25461Y-37853D01*
X25461Y-38442D01*
X25480Y-38461D01*
X25743Y-38461D01*
X25771Y-38449D01*
X25792Y-38428D01*
X25803Y-38401D01*
X25803Y-38371D01*
X25803Y-38793D01*
X25011Y-38793D01*
X25011Y-38442D01*
X25011Y-37853D01*
X25011Y-37403D01*
X25011Y-36814D01*
X24992Y-36795D01*
X24729Y-36795D01*
X24702Y-36806D01*
X24681Y-36827D01*
X24669Y-36855D01*
X24669Y-36885D01*
X24669Y-37384D01*
X24688Y-37403D01*
X25011Y-37403D01*
X25011Y-37853D01*
X24688Y-37853D01*
X24669Y-37872D01*
X24669Y-38371D01*
X24669Y-38401D01*
X24681Y-38428D01*
X24702Y-38449D01*
X24729Y-38461D01*
X24992Y-38461D01*
X25011Y-38442D01*
X25011Y-38793D01*
X24621Y-38793D01*
X24621Y-38371D01*
X24621Y-36885D01*
X24621Y-36855D01*
X24610Y-36827D01*
X24589Y-36806D01*
X24561Y-36795D01*
X24298Y-36795D01*
X24279Y-36814D01*
X24279Y-37403D01*
X24602Y-37403D01*
X24621Y-37384D01*
X24621Y-36885D01*
X24621Y-38371D01*
X24621Y-37872D01*
X24602Y-37853D01*
X24279Y-37853D01*
X24279Y-38442D01*
X24298Y-38461D01*
X24561Y-38461D01*
X24589Y-38449D01*
X24610Y-38428D01*
X24621Y-38401D01*
X24621Y-38371D01*
X24621Y-38793D01*
X24620Y-38793D01*
X24620Y-40683D01*
X24346Y-40683D01*
X24346Y-40359D01*
X24346Y-39483D01*
X24346Y-39453D01*
X24335Y-39425D01*
X24314Y-39404D01*
X24286Y-39393D01*
X24093Y-39393D01*
X24075Y-39412D01*
X24075Y-39696D01*
X24328Y-39696D01*
X24346Y-39677D01*
X24346Y-39483D01*
X24346Y-40359D01*
X24346Y-40165D01*
X24328Y-40146D01*
X24075Y-40146D01*
X24075Y-40430D01*
X24093Y-40449D01*
X24286Y-40449D01*
X24314Y-40437D01*
X24335Y-40416D01*
X24346Y-40389D01*
X24346Y-40359D01*
X24346Y-40683D01*
X23829Y-40683D01*
X23829Y-38442D01*
X23829Y-37853D01*
X23829Y-37403D01*
X23829Y-36814D01*
X23810Y-36795D01*
X23547Y-36795D01*
X23520Y-36806D01*
X23499Y-36827D01*
X23487Y-36855D01*
X23487Y-36885D01*
X23487Y-37384D01*
X23506Y-37403D01*
X23829Y-37403D01*
X23829Y-37853D01*
X23506Y-37853D01*
X23487Y-37872D01*
X23487Y-38371D01*
X23487Y-38401D01*
X23499Y-38428D01*
X23520Y-38449D01*
X23547Y-38461D01*
X23810Y-38461D01*
X23829Y-38442D01*
X23829Y-40683D01*
X23681Y-40683D01*
X23681Y-40430D01*
X23681Y-40146D01*
X23681Y-39696D01*
X23681Y-39412D01*
X23662Y-39393D01*
X23470Y-39393D01*
X23442Y-39404D01*
X23421Y-39425D01*
X23409Y-39453D01*
X23409Y-39483D01*
X23409Y-39677D01*
X23428Y-39696D01*
X23681Y-39696D01*
X23681Y-40146D01*
X23428Y-40146D01*
X23409Y-40165D01*
X23409Y-40359D01*
X23409Y-40389D01*
X23421Y-40416D01*
X23442Y-40437D01*
X23470Y-40449D01*
X23662Y-40449D01*
X23681Y-40430D01*
X23681Y-40683D01*
X23603Y-40683D01*
X23597Y-40679D01*
X23527Y-40665D01*
X23250Y-40665D01*
X23250Y-40564D01*
X23250Y-39935D01*
X23238Y-39907D01*
X23217Y-39886D01*
X23189Y-39875D01*
X23160Y-39874D01*
X22993Y-39875D01*
X22975Y-39893D01*
X22975Y-40100D01*
X23231Y-40100D01*
X23250Y-40081D01*
X23250Y-39935D01*
X23250Y-40564D01*
X23250Y-40418D01*
X23231Y-40400D01*
X22975Y-40400D01*
X22975Y-40606D01*
X22993Y-40625D01*
X23160Y-40625D01*
X23189Y-40624D01*
X23217Y-40613D01*
X23238Y-40592D01*
X23250Y-40564D01*
X23250Y-40665D01*
X22575Y-40665D01*
X22575Y-40606D01*
X22575Y-40400D01*
X22575Y-40100D01*
X22575Y-39893D01*
X22556Y-39875D01*
X22389Y-39874D01*
X22360Y-39875D01*
X22332Y-39886D01*
X22311Y-39907D01*
X22299Y-39935D01*
X22300Y-40081D01*
X22318Y-40100D01*
X22575Y-40100D01*
X22575Y-40400D01*
X22318Y-40400D01*
X22300Y-40418D01*
X22299Y-40564D01*
X22311Y-40592D01*
X22332Y-40613D01*
X22360Y-40624D01*
X22389Y-40625D01*
X22556Y-40625D01*
X22575Y-40606D01*
X22575Y-40665D01*
X21887Y-40665D01*
X21887Y-40234D01*
X21887Y-39712D01*
X21887Y-39683D01*
X21876Y-39655D01*
X21855Y-39634D01*
X21827Y-39623D01*
X21772Y-39623D01*
X21753Y-39641D01*
X21753Y-39835D01*
X21869Y-39835D01*
X21887Y-39817D01*
X21887Y-39712D01*
X21887Y-40234D01*
X21887Y-40130D01*
X21869Y-40111D01*
X21753Y-40111D01*
X21753Y-40305D01*
X21772Y-40324D01*
X21827Y-40324D01*
X21855Y-40312D01*
X21876Y-40291D01*
X21887Y-40264D01*
X21887Y-40234D01*
X21887Y-40665D01*
X21525Y-40665D01*
X21521Y-40665D01*
X21521Y-40299D01*
X21534Y-40312D01*
X21562Y-40324D01*
X21617Y-40324D01*
X21635Y-40305D01*
X21635Y-40111D01*
X21576Y-40111D01*
X21576Y-39835D01*
X21635Y-39835D01*
X21635Y-39641D01*
X21617Y-39623D01*
X21562Y-39623D01*
X21534Y-39634D01*
X21521Y-39647D01*
X21521Y-39395D01*
X23253Y-39395D01*
X23253Y-36560D01*
X26116Y-36560D01*
X26116Y-38793D01*
G54D10*
G36*
X27775Y-35175D02*
X27575Y-35175D01*
X27575Y-32964D01*
X27575Y-32335D01*
X27563Y-32307D01*
X27542Y-32286D01*
X27514Y-32275D01*
X27485Y-32274D01*
X27318Y-32275D01*
X27300Y-32293D01*
X27300Y-32500D01*
X27556Y-32500D01*
X27575Y-32481D01*
X27575Y-32335D01*
X27575Y-32964D01*
X27575Y-32818D01*
X27556Y-32800D01*
X27300Y-32800D01*
X27300Y-33006D01*
X27318Y-33025D01*
X27485Y-33025D01*
X27514Y-33024D01*
X27542Y-33013D01*
X27563Y-32992D01*
X27575Y-32964D01*
X27575Y-35175D01*
X26900Y-35175D01*
X26900Y-33006D01*
X26900Y-32800D01*
X26900Y-32500D01*
X26900Y-32293D01*
X26881Y-32275D01*
X26714Y-32274D01*
X26685Y-32275D01*
X26657Y-32286D01*
X26636Y-32307D01*
X26624Y-32335D01*
X26625Y-32481D01*
X26643Y-32500D01*
X26900Y-32500D01*
X26900Y-32800D01*
X26643Y-32800D01*
X26625Y-32818D01*
X26624Y-32964D01*
X26636Y-32992D01*
X26657Y-33013D01*
X26685Y-33024D01*
X26714Y-33025D01*
X26881Y-33025D01*
X26900Y-33006D01*
X26900Y-35175D01*
X25975Y-35175D01*
X25975Y-32464D01*
X25975Y-32318D01*
X25956Y-32300D01*
X25700Y-32300D01*
X25700Y-32506D01*
X25718Y-32525D01*
X25885Y-32525D01*
X25914Y-32524D01*
X25942Y-32513D01*
X25963Y-32492D01*
X25975Y-32464D01*
X25975Y-35175D01*
X25803Y-35175D01*
X25803Y-34453D01*
X25803Y-32967D01*
X25803Y-32937D01*
X25792Y-32909D01*
X25771Y-32888D01*
X25743Y-32877D01*
X25480Y-32877D01*
X25461Y-32896D01*
X25461Y-33485D01*
X25784Y-33485D01*
X25803Y-33466D01*
X25803Y-32967D01*
X25803Y-34453D01*
X25803Y-33954D01*
X25784Y-33935D01*
X25461Y-33935D01*
X25461Y-34524D01*
X25480Y-34543D01*
X25743Y-34543D01*
X25771Y-34531D01*
X25792Y-34510D01*
X25803Y-34483D01*
X25803Y-34453D01*
X25803Y-35175D01*
X25300Y-35175D01*
X25300Y-32506D01*
X25300Y-32300D01*
X25043Y-32300D01*
X25025Y-32318D01*
X25024Y-32464D01*
X25036Y-32492D01*
X25057Y-32513D01*
X25085Y-32524D01*
X25114Y-32525D01*
X25281Y-32525D01*
X25300Y-32506D01*
X25300Y-35175D01*
X25011Y-35175D01*
X25011Y-34524D01*
X25011Y-33935D01*
X25011Y-33485D01*
X25011Y-32896D01*
X24992Y-32877D01*
X24729Y-32877D01*
X24702Y-32888D01*
X24681Y-32909D01*
X24669Y-32937D01*
X24669Y-32967D01*
X24669Y-33466D01*
X24688Y-33485D01*
X25011Y-33485D01*
X25011Y-33935D01*
X24688Y-33935D01*
X24669Y-33954D01*
X24669Y-34453D01*
X24669Y-34483D01*
X24681Y-34510D01*
X24702Y-34531D01*
X24729Y-34543D01*
X24992Y-34543D01*
X25011Y-34524D01*
X25011Y-35175D01*
X24621Y-35175D01*
X24621Y-34453D01*
X24621Y-32967D01*
X24621Y-32937D01*
X24610Y-32909D01*
X24589Y-32888D01*
X24561Y-32877D01*
X24298Y-32877D01*
X24279Y-32896D01*
X24279Y-33485D01*
X24602Y-33485D01*
X24621Y-33466D01*
X24621Y-32967D01*
X24621Y-34453D01*
X24621Y-33954D01*
X24602Y-33935D01*
X24279Y-33935D01*
X24279Y-34524D01*
X24298Y-34543D01*
X24561Y-34543D01*
X24589Y-34531D01*
X24610Y-34510D01*
X24621Y-34483D01*
X24621Y-34453D01*
X24621Y-35175D01*
X24225Y-35175D01*
X24225Y-32464D01*
X24225Y-32318D01*
X24206Y-32300D01*
X23950Y-32300D01*
X23950Y-32506D01*
X23968Y-32525D01*
X24135Y-32525D01*
X24164Y-32524D01*
X24192Y-32513D01*
X24213Y-32492D01*
X24225Y-32464D01*
X24225Y-35175D01*
X23829Y-35175D01*
X23829Y-34524D01*
X23829Y-33935D01*
X23829Y-33485D01*
X23829Y-32896D01*
X23810Y-32877D01*
X23550Y-32877D01*
X23550Y-32506D01*
X23550Y-32300D01*
X23293Y-32300D01*
X23275Y-32318D01*
X23274Y-32464D01*
X23286Y-32492D01*
X23307Y-32513D01*
X23335Y-32524D01*
X23364Y-32525D01*
X23531Y-32525D01*
X23550Y-32506D01*
X23550Y-32877D01*
X23547Y-32877D01*
X23520Y-32888D01*
X23499Y-32909D01*
X23487Y-32937D01*
X23487Y-32967D01*
X23487Y-33466D01*
X23506Y-33485D01*
X23829Y-33485D01*
X23829Y-33935D01*
X23506Y-33935D01*
X23487Y-33954D01*
X23487Y-34453D01*
X23487Y-34483D01*
X23499Y-34510D01*
X23520Y-34531D01*
X23547Y-34543D01*
X23810Y-34543D01*
X23829Y-34524D01*
X23829Y-35175D01*
X21825Y-35175D01*
X21825Y-32864D01*
X21825Y-32235D01*
X21813Y-32207D01*
X21792Y-32186D01*
X21764Y-32175D01*
X21735Y-32174D01*
X21568Y-32175D01*
X21550Y-32193D01*
X21550Y-32400D01*
X21806Y-32400D01*
X21825Y-32381D01*
X21825Y-32235D01*
X21825Y-32864D01*
X21825Y-32718D01*
X21806Y-32700D01*
X21550Y-32700D01*
X21550Y-32906D01*
X21568Y-32925D01*
X21735Y-32925D01*
X21764Y-32924D01*
X21792Y-32913D01*
X21813Y-32892D01*
X21825Y-32864D01*
X21825Y-35175D01*
X21775Y-35175D01*
X21775Y-35064D01*
X21775Y-34435D01*
X21763Y-34407D01*
X21742Y-34386D01*
X21714Y-34375D01*
X21685Y-34374D01*
X21518Y-34375D01*
X21500Y-34393D01*
X21500Y-34600D01*
X21756Y-34600D01*
X21775Y-34581D01*
X21775Y-34435D01*
X21775Y-35064D01*
X21775Y-34918D01*
X21756Y-34900D01*
X21500Y-34900D01*
X21500Y-35106D01*
X21518Y-35125D01*
X21685Y-35125D01*
X21714Y-35124D01*
X21742Y-35113D01*
X21763Y-35092D01*
X21775Y-35064D01*
X21775Y-35175D01*
X21150Y-35175D01*
X21150Y-32906D01*
X21150Y-32700D01*
X21150Y-32400D01*
X21150Y-32193D01*
X21131Y-32175D01*
X20964Y-32174D01*
X20935Y-32175D01*
X20907Y-32186D01*
X20886Y-32207D01*
X20874Y-32235D01*
X20875Y-32381D01*
X20893Y-32400D01*
X21150Y-32400D01*
X21150Y-32700D01*
X20893Y-32700D01*
X20875Y-32718D01*
X20874Y-32864D01*
X20886Y-32892D01*
X20907Y-32913D01*
X20935Y-32924D01*
X20964Y-32925D01*
X21131Y-32925D01*
X21150Y-32906D01*
X21150Y-35175D01*
X21100Y-35175D01*
X21100Y-35106D01*
X21100Y-34900D01*
X21100Y-34600D01*
X21100Y-34393D01*
X21081Y-34375D01*
X20914Y-34374D01*
X20885Y-34375D01*
X20857Y-34386D01*
X20836Y-34407D01*
X20824Y-34435D01*
X20825Y-34581D01*
X20843Y-34600D01*
X21100Y-34600D01*
X21100Y-34900D01*
X20843Y-34900D01*
X20825Y-34918D01*
X20824Y-35064D01*
X20836Y-35092D01*
X20857Y-35113D01*
X20885Y-35124D01*
X20914Y-35125D01*
X21081Y-35125D01*
X21100Y-35106D01*
X21100Y-35175D01*
X20625Y-35175D01*
X20625Y-33900D01*
X20625Y-32750D01*
X20625Y-32075D01*
X23490Y-32075D01*
X23490Y-32000D01*
X23550Y-32000D01*
X23550Y-31917D01*
X23950Y-31917D01*
X23950Y-32000D01*
X24206Y-32000D01*
X24225Y-31981D01*
X24225Y-31835D01*
X24219Y-31821D01*
X25029Y-31823D01*
X25024Y-31835D01*
X25025Y-31981D01*
X25043Y-32000D01*
X25300Y-32000D01*
X25300Y-31917D01*
X25700Y-31917D01*
X25700Y-32000D01*
X25956Y-32000D01*
X25975Y-31981D01*
X25975Y-31835D01*
X25970Y-31824D01*
X26025Y-31824D01*
X26025Y-32225D01*
X27775Y-32225D01*
X27775Y-35175D01*
X27775Y-35175D01*
G37*
G54D34*
X27775Y-35175D02*
X27575Y-35175D01*
X27575Y-32964D01*
X27575Y-32335D01*
X27563Y-32307D01*
X27542Y-32286D01*
X27514Y-32275D01*
X27485Y-32274D01*
X27318Y-32275D01*
X27300Y-32293D01*
X27300Y-32500D01*
X27556Y-32500D01*
X27575Y-32481D01*
X27575Y-32335D01*
X27575Y-32964D01*
X27575Y-32818D01*
X27556Y-32800D01*
X27300Y-32800D01*
X27300Y-33006D01*
X27318Y-33025D01*
X27485Y-33025D01*
X27514Y-33024D01*
X27542Y-33013D01*
X27563Y-32992D01*
X27575Y-32964D01*
X27575Y-35175D01*
X26900Y-35175D01*
X26900Y-33006D01*
X26900Y-32800D01*
X26900Y-32500D01*
X26900Y-32293D01*
X26881Y-32275D01*
X26714Y-32274D01*
X26685Y-32275D01*
X26657Y-32286D01*
X26636Y-32307D01*
X26624Y-32335D01*
X26625Y-32481D01*
X26643Y-32500D01*
X26900Y-32500D01*
X26900Y-32800D01*
X26643Y-32800D01*
X26625Y-32818D01*
X26624Y-32964D01*
X26636Y-32992D01*
X26657Y-33013D01*
X26685Y-33024D01*
X26714Y-33025D01*
X26881Y-33025D01*
X26900Y-33006D01*
X26900Y-35175D01*
X25975Y-35175D01*
X25975Y-32464D01*
X25975Y-32318D01*
X25956Y-32300D01*
X25700Y-32300D01*
X25700Y-32506D01*
X25718Y-32525D01*
X25885Y-32525D01*
X25914Y-32524D01*
X25942Y-32513D01*
X25963Y-32492D01*
X25975Y-32464D01*
X25975Y-35175D01*
X25803Y-35175D01*
X25803Y-34453D01*
X25803Y-32967D01*
X25803Y-32937D01*
X25792Y-32909D01*
X25771Y-32888D01*
X25743Y-32877D01*
X25480Y-32877D01*
X25461Y-32896D01*
X25461Y-33485D01*
X25784Y-33485D01*
X25803Y-33466D01*
X25803Y-32967D01*
X25803Y-34453D01*
X25803Y-33954D01*
X25784Y-33935D01*
X25461Y-33935D01*
X25461Y-34524D01*
X25480Y-34543D01*
X25743Y-34543D01*
X25771Y-34531D01*
X25792Y-34510D01*
X25803Y-34483D01*
X25803Y-34453D01*
X25803Y-35175D01*
X25300Y-35175D01*
X25300Y-32506D01*
X25300Y-32300D01*
X25043Y-32300D01*
X25025Y-32318D01*
X25024Y-32464D01*
X25036Y-32492D01*
X25057Y-32513D01*
X25085Y-32524D01*
X25114Y-32525D01*
X25281Y-32525D01*
X25300Y-32506D01*
X25300Y-35175D01*
X25011Y-35175D01*
X25011Y-34524D01*
X25011Y-33935D01*
X25011Y-33485D01*
X25011Y-32896D01*
X24992Y-32877D01*
X24729Y-32877D01*
X24702Y-32888D01*
X24681Y-32909D01*
X24669Y-32937D01*
X24669Y-32967D01*
X24669Y-33466D01*
X24688Y-33485D01*
X25011Y-33485D01*
X25011Y-33935D01*
X24688Y-33935D01*
X24669Y-33954D01*
X24669Y-34453D01*
X24669Y-34483D01*
X24681Y-34510D01*
X24702Y-34531D01*
X24729Y-34543D01*
X24992Y-34543D01*
X25011Y-34524D01*
X25011Y-35175D01*
X24621Y-35175D01*
X24621Y-34453D01*
X24621Y-32967D01*
X24621Y-32937D01*
X24610Y-32909D01*
X24589Y-32888D01*
X24561Y-32877D01*
X24298Y-32877D01*
X24279Y-32896D01*
X24279Y-33485D01*
X24602Y-33485D01*
X24621Y-33466D01*
X24621Y-32967D01*
X24621Y-34453D01*
X24621Y-33954D01*
X24602Y-33935D01*
X24279Y-33935D01*
X24279Y-34524D01*
X24298Y-34543D01*
X24561Y-34543D01*
X24589Y-34531D01*
X24610Y-34510D01*
X24621Y-34483D01*
X24621Y-34453D01*
X24621Y-35175D01*
X24225Y-35175D01*
X24225Y-32464D01*
X24225Y-32318D01*
X24206Y-32300D01*
X23950Y-32300D01*
X23950Y-32506D01*
X23968Y-32525D01*
X24135Y-32525D01*
X24164Y-32524D01*
X24192Y-32513D01*
X24213Y-32492D01*
X24225Y-32464D01*
X24225Y-35175D01*
X23829Y-35175D01*
X23829Y-34524D01*
X23829Y-33935D01*
X23829Y-33485D01*
X23829Y-32896D01*
X23810Y-32877D01*
X23550Y-32877D01*
X23550Y-32506D01*
X23550Y-32300D01*
X23293Y-32300D01*
X23275Y-32318D01*
X23274Y-32464D01*
X23286Y-32492D01*
X23307Y-32513D01*
X23335Y-32524D01*
X23364Y-32525D01*
X23531Y-32525D01*
X23550Y-32506D01*
X23550Y-32877D01*
X23547Y-32877D01*
X23520Y-32888D01*
X23499Y-32909D01*
X23487Y-32937D01*
X23487Y-32967D01*
X23487Y-33466D01*
X23506Y-33485D01*
X23829Y-33485D01*
X23829Y-33935D01*
X23506Y-33935D01*
X23487Y-33954D01*
X23487Y-34453D01*
X23487Y-34483D01*
X23499Y-34510D01*
X23520Y-34531D01*
X23547Y-34543D01*
X23810Y-34543D01*
X23829Y-34524D01*
X23829Y-35175D01*
X21825Y-35175D01*
X21825Y-32864D01*
X21825Y-32235D01*
X21813Y-32207D01*
X21792Y-32186D01*
X21764Y-32175D01*
X21735Y-32174D01*
X21568Y-32175D01*
X21550Y-32193D01*
X21550Y-32400D01*
X21806Y-32400D01*
X21825Y-32381D01*
X21825Y-32235D01*
X21825Y-32864D01*
X21825Y-32718D01*
X21806Y-32700D01*
X21550Y-32700D01*
X21550Y-32906D01*
X21568Y-32925D01*
X21735Y-32925D01*
X21764Y-32924D01*
X21792Y-32913D01*
X21813Y-32892D01*
X21825Y-32864D01*
X21825Y-35175D01*
X21775Y-35175D01*
X21775Y-35064D01*
X21775Y-34435D01*
X21763Y-34407D01*
X21742Y-34386D01*
X21714Y-34375D01*
X21685Y-34374D01*
X21518Y-34375D01*
X21500Y-34393D01*
X21500Y-34600D01*
X21756Y-34600D01*
X21775Y-34581D01*
X21775Y-34435D01*
X21775Y-35064D01*
X21775Y-34918D01*
X21756Y-34900D01*
X21500Y-34900D01*
X21500Y-35106D01*
X21518Y-35125D01*
X21685Y-35125D01*
X21714Y-35124D01*
X21742Y-35113D01*
X21763Y-35092D01*
X21775Y-35064D01*
X21775Y-35175D01*
X21150Y-35175D01*
X21150Y-32906D01*
X21150Y-32700D01*
X21150Y-32400D01*
X21150Y-32193D01*
X21131Y-32175D01*
X20964Y-32174D01*
X20935Y-32175D01*
X20907Y-32186D01*
X20886Y-32207D01*
X20874Y-32235D01*
X20875Y-32381D01*
X20893Y-32400D01*
X21150Y-32400D01*
X21150Y-32700D01*
X20893Y-32700D01*
X20875Y-32718D01*
X20874Y-32864D01*
X20886Y-32892D01*
X20907Y-32913D01*
X20935Y-32924D01*
X20964Y-32925D01*
X21131Y-32925D01*
X21150Y-32906D01*
X21150Y-35175D01*
X21100Y-35175D01*
X21100Y-35106D01*
X21100Y-34900D01*
X21100Y-34600D01*
X21100Y-34393D01*
X21081Y-34375D01*
X20914Y-34374D01*
X20885Y-34375D01*
X20857Y-34386D01*
X20836Y-34407D01*
X20824Y-34435D01*
X20825Y-34581D01*
X20843Y-34600D01*
X21100Y-34600D01*
X21100Y-34900D01*
X20843Y-34900D01*
X20825Y-34918D01*
X20824Y-35064D01*
X20836Y-35092D01*
X20857Y-35113D01*
X20885Y-35124D01*
X20914Y-35125D01*
X21081Y-35125D01*
X21100Y-35106D01*
X21100Y-35175D01*
X20625Y-35175D01*
X20625Y-33900D01*
X20625Y-32750D01*
X20625Y-32075D01*
X23490Y-32075D01*
X23490Y-32000D01*
X23550Y-32000D01*
X23550Y-31917D01*
X23950Y-31917D01*
X23950Y-32000D01*
X24206Y-32000D01*
X24225Y-31981D01*
X24225Y-31835D01*
X24219Y-31821D01*
X25029Y-31823D01*
X25024Y-31835D01*
X25025Y-31981D01*
X25043Y-32000D01*
X25300Y-32000D01*
X25300Y-31917D01*
X25700Y-31917D01*
X25700Y-32000D01*
X25956Y-32000D01*
X25975Y-31981D01*
X25975Y-31835D01*
X25970Y-31824D01*
X26025Y-31824D01*
X26025Y-32225D01*
X27775Y-32225D01*
X27775Y-35175D01*
G54D10*
G36*
X21701Y-42668D02*
X21700Y-43850D01*
X21650Y-43850D01*
X21650Y-43578D01*
X21650Y-43296D01*
X21612Y-43258D01*
X21250Y-43258D01*
X21250Y-43721D01*
X21287Y-43758D01*
X21530Y-43758D01*
X21585Y-43735D01*
X21627Y-43693D01*
X21650Y-43638D01*
X21650Y-43578D01*
X21650Y-43850D01*
X21150Y-43850D01*
X21150Y-43721D01*
X21150Y-43258D01*
X20787Y-43258D01*
X20750Y-43296D01*
X20750Y-43578D01*
X20750Y-43638D01*
X20773Y-43693D01*
X20815Y-43735D01*
X20870Y-43758D01*
X21112Y-43758D01*
X21150Y-43721D01*
X21150Y-43850D01*
X18402Y-43850D01*
X18402Y-43185D01*
X18402Y-42444D01*
X18402Y-41905D01*
X18402Y-41165D01*
X18402Y-41105D01*
X18379Y-41050D01*
X18337Y-41008D01*
X18282Y-40985D01*
X18039Y-40985D01*
X18002Y-41022D01*
X18002Y-41485D01*
X18364Y-41485D01*
X18402Y-41447D01*
X18402Y-41165D01*
X18402Y-41905D01*
X18402Y-41622D01*
X18364Y-41585D01*
X18002Y-41585D01*
X18002Y-42047D01*
X18039Y-42085D01*
X18282Y-42085D01*
X18337Y-42062D01*
X18379Y-42020D01*
X18402Y-41965D01*
X18402Y-41905D01*
X18402Y-42444D01*
X18402Y-42384D01*
X18379Y-42329D01*
X18337Y-42287D01*
X18282Y-42264D01*
X18039Y-42264D01*
X18002Y-42302D01*
X18002Y-42764D01*
X18364Y-42764D01*
X18402Y-42727D01*
X18402Y-42444D01*
X18402Y-43185D01*
X18402Y-42902D01*
X18364Y-42864D01*
X18002Y-42864D01*
X18002Y-43327D01*
X18039Y-43364D01*
X18282Y-43364D01*
X18337Y-43342D01*
X18379Y-43300D01*
X18402Y-43244D01*
X18402Y-43185D01*
X18402Y-43850D01*
X17902Y-43850D01*
X17902Y-43327D01*
X17902Y-42864D01*
X17902Y-42764D01*
X17902Y-42302D01*
X17902Y-42047D01*
X17902Y-41585D01*
X17902Y-41485D01*
X17902Y-41022D01*
X17864Y-40985D01*
X17676Y-40985D01*
X17676Y-40251D01*
X17675Y-40009D01*
X17638Y-39971D01*
X17175Y-39971D01*
X17175Y-40334D01*
X17213Y-40371D01*
X17496Y-40371D01*
X17555Y-40371D01*
X17611Y-40348D01*
X17653Y-40306D01*
X17676Y-40251D01*
X17676Y-40985D01*
X17622Y-40985D01*
X17567Y-41008D01*
X17525Y-41050D01*
X17502Y-41105D01*
X17502Y-41165D01*
X17502Y-41447D01*
X17539Y-41485D01*
X17902Y-41485D01*
X17902Y-41585D01*
X17539Y-41585D01*
X17502Y-41622D01*
X17502Y-41905D01*
X17502Y-41965D01*
X17525Y-42020D01*
X17567Y-42062D01*
X17622Y-42085D01*
X17864Y-42085D01*
X17902Y-42047D01*
X17902Y-42302D01*
X17864Y-42264D01*
X17622Y-42264D01*
X17567Y-42287D01*
X17525Y-42329D01*
X17502Y-42384D01*
X17502Y-42444D01*
X17502Y-42727D01*
X17539Y-42764D01*
X17902Y-42764D01*
X17902Y-42864D01*
X17539Y-42864D01*
X17502Y-42902D01*
X17502Y-43185D01*
X17502Y-43244D01*
X17525Y-43300D01*
X17567Y-43342D01*
X17622Y-43364D01*
X17864Y-43364D01*
X17902Y-43327D01*
X17902Y-43850D01*
X17474Y-43850D01*
X17471Y-42519D01*
X17449Y-40450D01*
X17075Y-40450D01*
X17075Y-40334D01*
X17075Y-39971D01*
X16613Y-39971D01*
X16575Y-40009D01*
X16575Y-40251D01*
X16598Y-40306D01*
X16640Y-40348D01*
X16696Y-40371D01*
X16755Y-40371D01*
X17038Y-40371D01*
X17075Y-40334D01*
X17075Y-40450D01*
X16494Y-40450D01*
X16494Y-40251D01*
X16494Y-40009D01*
X16457Y-39971D01*
X15994Y-39971D01*
X15994Y-40334D01*
X16032Y-40371D01*
X16315Y-40371D01*
X16374Y-40371D01*
X16429Y-40348D01*
X16472Y-40306D01*
X16494Y-40251D01*
X16494Y-40450D01*
X15894Y-40450D01*
X15894Y-40334D01*
X15894Y-39971D01*
X15432Y-39971D01*
X15394Y-40009D01*
X15394Y-40251D01*
X15417Y-40306D01*
X15459Y-40348D01*
X15514Y-40371D01*
X15574Y-40371D01*
X15857Y-40371D01*
X15894Y-40334D01*
X15894Y-40450D01*
X15650Y-40450D01*
X15650Y-42950D01*
X15540Y-42950D01*
X15540Y-42190D01*
X15540Y-41800D01*
X15540Y-41700D01*
X15540Y-41310D01*
X15479Y-41107D01*
X15346Y-40942D01*
X15215Y-40871D01*
X15215Y-40251D01*
X15215Y-40009D01*
X15177Y-39971D01*
X14715Y-39971D01*
X14715Y-40334D01*
X14752Y-40371D01*
X15035Y-40371D01*
X15095Y-40371D01*
X15150Y-40348D01*
X15192Y-40306D01*
X15215Y-40251D01*
X15215Y-40871D01*
X15160Y-40841D01*
X15133Y-40836D01*
X15050Y-40859D01*
X15050Y-41700D01*
X15540Y-41700D01*
X15540Y-41800D01*
X15050Y-41800D01*
X15050Y-42640D01*
X15133Y-42663D01*
X15160Y-42658D01*
X15346Y-42557D01*
X15479Y-42392D01*
X15540Y-42190D01*
X15540Y-42950D01*
X14950Y-42950D01*
X14950Y-42640D01*
X14950Y-41800D01*
X14950Y-41700D01*
X14950Y-40859D01*
X14866Y-40836D01*
X14839Y-40841D01*
X14653Y-40942D01*
X14520Y-41107D01*
X14460Y-41310D01*
X14460Y-41700D01*
X14950Y-41700D01*
X14950Y-41800D01*
X14460Y-41800D01*
X14460Y-42190D01*
X14520Y-42392D01*
X14653Y-42557D01*
X14839Y-42658D01*
X14866Y-42663D01*
X14950Y-42640D01*
X14950Y-42950D01*
X14100Y-42950D01*
X14124Y-40452D01*
X14124Y-40274D01*
X14138Y-40306D01*
X14180Y-40348D01*
X14235Y-40371D01*
X14295Y-40371D01*
X14577Y-40371D01*
X14615Y-40334D01*
X14615Y-39971D01*
X14607Y-39971D01*
X14607Y-39871D01*
X14615Y-39871D01*
X14615Y-39863D01*
X14715Y-39863D01*
X14715Y-39871D01*
X15177Y-39871D01*
X15215Y-39834D01*
X15215Y-39591D01*
X15192Y-39536D01*
X15174Y-39518D01*
X15435Y-39518D01*
X15417Y-39536D01*
X15394Y-39591D01*
X15394Y-39834D01*
X15432Y-39871D01*
X15894Y-39871D01*
X15894Y-39863D01*
X15994Y-39863D01*
X15994Y-39871D01*
X16457Y-39871D01*
X16494Y-39834D01*
X16494Y-39591D01*
X16472Y-39536D01*
X16453Y-39518D01*
X16617Y-39518D01*
X16598Y-39536D01*
X16575Y-39591D01*
X16575Y-39834D01*
X16613Y-39871D01*
X17075Y-39871D01*
X17075Y-39863D01*
X17175Y-39863D01*
X17175Y-39871D01*
X17638Y-39871D01*
X17675Y-39834D01*
X17676Y-39591D01*
X17653Y-39536D01*
X17634Y-39518D01*
X18453Y-39518D01*
X18453Y-43652D01*
X20719Y-43652D01*
X20719Y-42668D01*
X20847Y-42668D01*
X20815Y-42681D01*
X20773Y-42723D01*
X20750Y-42778D01*
X20750Y-42838D01*
X20750Y-43121D01*
X20787Y-43158D01*
X21150Y-43158D01*
X21150Y-42696D01*
X21112Y-42658D01*
X21014Y-42658D01*
X21014Y-42501D01*
X21024Y-42490D01*
X21025Y-42490D01*
X21047Y-42499D01*
X21107Y-42499D01*
X21144Y-42461D01*
X21144Y-42123D01*
X21137Y-42123D01*
X21137Y-42023D01*
X21144Y-42023D01*
X21144Y-42015D01*
X21244Y-42015D01*
X21244Y-42023D01*
X21252Y-42023D01*
X21252Y-42123D01*
X21244Y-42123D01*
X21244Y-42461D01*
X21282Y-42499D01*
X21342Y-42499D01*
X21364Y-42490D01*
X21364Y-42490D01*
X21406Y-42532D01*
X21406Y-42658D01*
X21287Y-42658D01*
X21250Y-42696D01*
X21250Y-43158D01*
X21612Y-43158D01*
X21650Y-43121D01*
X21650Y-42838D01*
X21650Y-42778D01*
X21627Y-42723D01*
X21585Y-42681D01*
X21553Y-42668D01*
X21701Y-42668D01*
X21701Y-42668D01*
G37*
G54D35*
X21701Y-42668D02*
X21700Y-43850D01*
X21650Y-43850D01*
X21650Y-43578D01*
X21650Y-43296D01*
X21612Y-43258D01*
X21250Y-43258D01*
X21250Y-43721D01*
X21287Y-43758D01*
X21530Y-43758D01*
X21585Y-43735D01*
X21627Y-43693D01*
X21650Y-43638D01*
X21650Y-43578D01*
X21650Y-43850D01*
X21150Y-43850D01*
X21150Y-43721D01*
X21150Y-43258D01*
X20787Y-43258D01*
X20750Y-43296D01*
X20750Y-43578D01*
X20750Y-43638D01*
X20773Y-43693D01*
X20815Y-43735D01*
X20870Y-43758D01*
X21112Y-43758D01*
X21150Y-43721D01*
X21150Y-43850D01*
X18402Y-43850D01*
X18402Y-43185D01*
X18402Y-42444D01*
X18402Y-41905D01*
X18402Y-41165D01*
X18402Y-41105D01*
X18379Y-41050D01*
X18337Y-41008D01*
X18282Y-40985D01*
X18039Y-40985D01*
X18002Y-41022D01*
X18002Y-41485D01*
X18364Y-41485D01*
X18402Y-41447D01*
X18402Y-41165D01*
X18402Y-41905D01*
X18402Y-41622D01*
X18364Y-41585D01*
X18002Y-41585D01*
X18002Y-42047D01*
X18039Y-42085D01*
X18282Y-42085D01*
X18337Y-42062D01*
X18379Y-42020D01*
X18402Y-41965D01*
X18402Y-41905D01*
X18402Y-42444D01*
X18402Y-42384D01*
X18379Y-42329D01*
X18337Y-42287D01*
X18282Y-42264D01*
X18039Y-42264D01*
X18002Y-42302D01*
X18002Y-42764D01*
X18364Y-42764D01*
X18402Y-42727D01*
X18402Y-42444D01*
X18402Y-43185D01*
X18402Y-42902D01*
X18364Y-42864D01*
X18002Y-42864D01*
X18002Y-43327D01*
X18039Y-43364D01*
X18282Y-43364D01*
X18337Y-43342D01*
X18379Y-43300D01*
X18402Y-43244D01*
X18402Y-43185D01*
X18402Y-43850D01*
X17902Y-43850D01*
X17902Y-43327D01*
X17902Y-42864D01*
X17902Y-42764D01*
X17902Y-42302D01*
X17902Y-42047D01*
X17902Y-41585D01*
X17902Y-41485D01*
X17902Y-41022D01*
X17864Y-40985D01*
X17676Y-40985D01*
X17676Y-40251D01*
X17675Y-40009D01*
X17638Y-39971D01*
X17175Y-39971D01*
X17175Y-40334D01*
X17213Y-40371D01*
X17496Y-40371D01*
X17555Y-40371D01*
X17611Y-40348D01*
X17653Y-40306D01*
X17676Y-40251D01*
X17676Y-40985D01*
X17622Y-40985D01*
X17567Y-41008D01*
X17525Y-41050D01*
X17502Y-41105D01*
X17502Y-41165D01*
X17502Y-41447D01*
X17539Y-41485D01*
X17902Y-41485D01*
X17902Y-41585D01*
X17539Y-41585D01*
X17502Y-41622D01*
X17502Y-41905D01*
X17502Y-41965D01*
X17525Y-42020D01*
X17567Y-42062D01*
X17622Y-42085D01*
X17864Y-42085D01*
X17902Y-42047D01*
X17902Y-42302D01*
X17864Y-42264D01*
X17622Y-42264D01*
X17567Y-42287D01*
X17525Y-42329D01*
X17502Y-42384D01*
X17502Y-42444D01*
X17502Y-42727D01*
X17539Y-42764D01*
X17902Y-42764D01*
X17902Y-42864D01*
X17539Y-42864D01*
X17502Y-42902D01*
X17502Y-43185D01*
X17502Y-43244D01*
X17525Y-43300D01*
X17567Y-43342D01*
X17622Y-43364D01*
X17864Y-43364D01*
X17902Y-43327D01*
X17902Y-43850D01*
X17474Y-43850D01*
X17471Y-42519D01*
X17449Y-40450D01*
X17075Y-40450D01*
X17075Y-40334D01*
X17075Y-39971D01*
X16613Y-39971D01*
X16575Y-40009D01*
X16575Y-40251D01*
X16598Y-40306D01*
X16640Y-40348D01*
X16696Y-40371D01*
X16755Y-40371D01*
X17038Y-40371D01*
X17075Y-40334D01*
X17075Y-40450D01*
X16494Y-40450D01*
X16494Y-40251D01*
X16494Y-40009D01*
X16457Y-39971D01*
X15994Y-39971D01*
X15994Y-40334D01*
X16032Y-40371D01*
X16315Y-40371D01*
X16374Y-40371D01*
X16429Y-40348D01*
X16472Y-40306D01*
X16494Y-40251D01*
X16494Y-40450D01*
X15894Y-40450D01*
X15894Y-40334D01*
X15894Y-39971D01*
X15432Y-39971D01*
X15394Y-40009D01*
X15394Y-40251D01*
X15417Y-40306D01*
X15459Y-40348D01*
X15514Y-40371D01*
X15574Y-40371D01*
X15857Y-40371D01*
X15894Y-40334D01*
X15894Y-40450D01*
X15650Y-40450D01*
X15650Y-42950D01*
X15540Y-42950D01*
X15540Y-42190D01*
X15540Y-41800D01*
X15540Y-41700D01*
X15540Y-41310D01*
X15479Y-41107D01*
X15346Y-40942D01*
X15215Y-40871D01*
X15215Y-40251D01*
X15215Y-40009D01*
X15177Y-39971D01*
X14715Y-39971D01*
X14715Y-40334D01*
X14752Y-40371D01*
X15035Y-40371D01*
X15095Y-40371D01*
X15150Y-40348D01*
X15192Y-40306D01*
X15215Y-40251D01*
X15215Y-40871D01*
X15160Y-40841D01*
X15133Y-40836D01*
X15050Y-40859D01*
X15050Y-41700D01*
X15540Y-41700D01*
X15540Y-41800D01*
X15050Y-41800D01*
X15050Y-42640D01*
X15133Y-42663D01*
X15160Y-42658D01*
X15346Y-42557D01*
X15479Y-42392D01*
X15540Y-42190D01*
X15540Y-42950D01*
X14950Y-42950D01*
X14950Y-42640D01*
X14950Y-41800D01*
X14950Y-41700D01*
X14950Y-40859D01*
X14866Y-40836D01*
X14839Y-40841D01*
X14653Y-40942D01*
X14520Y-41107D01*
X14460Y-41310D01*
X14460Y-41700D01*
X14950Y-41700D01*
X14950Y-41800D01*
X14460Y-41800D01*
X14460Y-42190D01*
X14520Y-42392D01*
X14653Y-42557D01*
X14839Y-42658D01*
X14866Y-42663D01*
X14950Y-42640D01*
X14950Y-42950D01*
X14100Y-42950D01*
X14124Y-40452D01*
X14124Y-40274D01*
X14138Y-40306D01*
X14180Y-40348D01*
X14235Y-40371D01*
X14295Y-40371D01*
X14577Y-40371D01*
X14615Y-40334D01*
X14615Y-39971D01*
X14607Y-39971D01*
X14607Y-39871D01*
X14615Y-39871D01*
X14615Y-39863D01*
X14715Y-39863D01*
X14715Y-39871D01*
X15177Y-39871D01*
X15215Y-39834D01*
X15215Y-39591D01*
X15192Y-39536D01*
X15174Y-39518D01*
X15435Y-39518D01*
X15417Y-39536D01*
X15394Y-39591D01*
X15394Y-39834D01*
X15432Y-39871D01*
X15894Y-39871D01*
X15894Y-39863D01*
X15994Y-39863D01*
X15994Y-39871D01*
X16457Y-39871D01*
X16494Y-39834D01*
X16494Y-39591D01*
X16472Y-39536D01*
X16453Y-39518D01*
X16617Y-39518D01*
X16598Y-39536D01*
X16575Y-39591D01*
X16575Y-39834D01*
X16613Y-39871D01*
X17075Y-39871D01*
X17075Y-39863D01*
X17175Y-39863D01*
X17175Y-39871D01*
X17638Y-39871D01*
X17675Y-39834D01*
X17676Y-39591D01*
X17653Y-39536D01*
X17634Y-39518D01*
X18453Y-39518D01*
X18453Y-43652D01*
X20719Y-43652D01*
X20719Y-42668D01*
X20847Y-42668D01*
X20815Y-42681D01*
X20773Y-42723D01*
X20750Y-42778D01*
X20750Y-42838D01*
X20750Y-43121D01*
X20787Y-43158D01*
X21150Y-43158D01*
X21150Y-42696D01*
X21112Y-42658D01*
X21014Y-42658D01*
X21014Y-42501D01*
X21024Y-42490D01*
X21025Y-42490D01*
X21047Y-42499D01*
X21107Y-42499D01*
X21144Y-42461D01*
X21144Y-42123D01*
X21137Y-42123D01*
X21137Y-42023D01*
X21144Y-42023D01*
X21144Y-42015D01*
X21244Y-42015D01*
X21244Y-42023D01*
X21252Y-42023D01*
X21252Y-42123D01*
X21244Y-42123D01*
X21244Y-42461D01*
X21282Y-42499D01*
X21342Y-42499D01*
X21364Y-42490D01*
X21364Y-42490D01*
X21406Y-42532D01*
X21406Y-42658D01*
X21287Y-42658D01*
X21250Y-42696D01*
X21250Y-43158D01*
X21612Y-43158D01*
X21650Y-43121D01*
X21650Y-42838D01*
X21650Y-42778D01*
X21627Y-42723D01*
X21585Y-42681D01*
X21553Y-42668D01*
X21701Y-42668D01*
M02*
