G04 (created by PCBNEW (2013-07-07 BZR 4022)-stable) date 02/10/2018 19:34:55*
%MOIN*%
G04 Gerber Fmt 3.4, Leading zero omitted, Abs format*
%FSLAX34Y34*%
G01*
G70*
G90*
G04 APERTURE LIST*
%ADD10C,0.00590551*%
%ADD11C,0.015*%
%ADD12R,0.0377X0.0987*%
%ADD13R,0.0987X0.0377*%
%ADD14O,0.098X0.176*%
%ADD15R,0.08X0.08*%
%ADD16C,0.08*%
%ADD17R,0.0909X0.0829*%
%ADD18R,0.08X0.1*%
%ADD19R,0.1X0.08*%
%ADD20C,0.1637*%
%ADD21R,0.0791X0.0791*%
%ADD22C,0.0791*%
%ADD23C,0.0987402*%
%ADD24R,0.11X0.082*%
%ADD25R,0.082X0.11*%
%ADD26C,0.09*%
%ADD27R,0.075X0.075*%
%ADD28C,0.075*%
G04 APERTURE END LIST*
G54D10*
G54D11*
X71500Y-62000D02*
X110900Y-62000D01*
X71500Y-28000D02*
X110900Y-28000D01*
X110900Y-28000D02*
X110800Y-28000D01*
X110900Y-62000D02*
X110900Y-28000D01*
X71500Y-62000D02*
X71500Y-28000D01*
G54D12*
X93657Y-45854D03*
X93972Y-45854D03*
X94287Y-45854D03*
X94602Y-45854D03*
X94917Y-45854D03*
X95232Y-45854D03*
X95547Y-45854D03*
X95862Y-45854D03*
X95860Y-49620D03*
X93650Y-49620D03*
X93970Y-49620D03*
X94290Y-49620D03*
X94600Y-49620D03*
X94920Y-49620D03*
X95230Y-49620D03*
X95550Y-49620D03*
G54D13*
X96650Y-46638D03*
X96650Y-46952D03*
X96650Y-47268D03*
X96650Y-47582D03*
X96650Y-47898D03*
X96650Y-48212D03*
X96650Y-48528D03*
X96650Y-48842D03*
X92870Y-46640D03*
X92870Y-46950D03*
X92870Y-47270D03*
X92870Y-47580D03*
X92870Y-47890D03*
X92870Y-48210D03*
X92870Y-48530D03*
X92870Y-48850D03*
G54D14*
X82000Y-59645D03*
X83515Y-59645D03*
X85031Y-59645D03*
X86547Y-59645D03*
X88062Y-59645D03*
X73500Y-59645D03*
X75015Y-59645D03*
X76531Y-59645D03*
X78047Y-59645D03*
X79562Y-59645D03*
G54D15*
X107400Y-51112D03*
G54D16*
X107400Y-52112D03*
X106400Y-51112D03*
X106400Y-52112D03*
X105400Y-51112D03*
X105400Y-52112D03*
G54D17*
X109060Y-46059D03*
X109060Y-44941D03*
X108150Y-46059D03*
X108150Y-44941D03*
X103500Y-47441D03*
X103500Y-48559D03*
G54D15*
X101375Y-46175D03*
G54D16*
X101375Y-45175D03*
G54D15*
X100375Y-46175D03*
G54D16*
X100375Y-45175D03*
G54D15*
X98375Y-46175D03*
G54D16*
X98375Y-45175D03*
G54D15*
X105725Y-45000D03*
G54D16*
X105725Y-46000D03*
G54D15*
X99375Y-46175D03*
G54D16*
X99375Y-45175D03*
G54D18*
X84350Y-56550D03*
X85650Y-56550D03*
G54D19*
X105600Y-48650D03*
X105600Y-47350D03*
X104600Y-48650D03*
X104600Y-47350D03*
X102450Y-48600D03*
X102450Y-47300D03*
G54D18*
X94750Y-44700D03*
X93450Y-44700D03*
G54D19*
X107050Y-44825D03*
X107050Y-46125D03*
G54D18*
X77850Y-56550D03*
X79150Y-56550D03*
G54D19*
X108700Y-48650D03*
X108700Y-47350D03*
G54D18*
X74600Y-56550D03*
X75900Y-56550D03*
X81050Y-56550D03*
X82350Y-56550D03*
X95050Y-56750D03*
X93750Y-56750D03*
X87450Y-56500D03*
X88750Y-56500D03*
X91150Y-55650D03*
X89850Y-55650D03*
G54D15*
X100725Y-48525D03*
G54D16*
X100725Y-49525D03*
X99725Y-48525D03*
X99725Y-49525D03*
X98725Y-48525D03*
X98725Y-49525D03*
G54D19*
X72450Y-47500D03*
X72450Y-48800D03*
X107600Y-47350D03*
X107600Y-48650D03*
X106600Y-47350D03*
X106600Y-48650D03*
G54D14*
X94400Y-59645D03*
X95915Y-59645D03*
G54D18*
X93900Y-50650D03*
X92600Y-50650D03*
G54D14*
X77290Y-31800D03*
X75320Y-31800D03*
X87090Y-31800D03*
X85120Y-31800D03*
X97190Y-31900D03*
X95220Y-31900D03*
X105790Y-31900D03*
X103820Y-31900D03*
G54D20*
X102738Y-58112D03*
X98065Y-58112D03*
G54D21*
X98650Y-55612D03*
G54D22*
X99150Y-54612D03*
X99650Y-55612D03*
X100150Y-54612D03*
X100650Y-55612D03*
X101150Y-54612D03*
X101650Y-55612D03*
X102150Y-54612D03*
G54D23*
X97650Y-60112D03*
X103100Y-60112D03*
G54D20*
X109338Y-58112D03*
X104665Y-58112D03*
G54D21*
X105250Y-55612D03*
G54D22*
X105750Y-54612D03*
X106250Y-55612D03*
X106750Y-54612D03*
X107250Y-55612D03*
X107750Y-54612D03*
X108250Y-55612D03*
X108750Y-54612D03*
G54D23*
X104250Y-60112D03*
X109700Y-60112D03*
G54D24*
X72400Y-44450D03*
X72400Y-45450D03*
X72400Y-46450D03*
X76000Y-46500D03*
X76000Y-45450D03*
X76000Y-44450D03*
G54D25*
X73500Y-55300D03*
X74500Y-55300D03*
X75500Y-55300D03*
X75550Y-51700D03*
X74500Y-51700D03*
X73500Y-51700D03*
X76750Y-55300D03*
X77750Y-55300D03*
X78750Y-55300D03*
X78800Y-51700D03*
X77750Y-51700D03*
X76750Y-51700D03*
X80000Y-55300D03*
X81000Y-55300D03*
X82000Y-55300D03*
X82050Y-51700D03*
X81000Y-51700D03*
X80000Y-51700D03*
X83250Y-55300D03*
X84250Y-55300D03*
X85250Y-55300D03*
X85300Y-51700D03*
X84250Y-51700D03*
X83250Y-51700D03*
X86500Y-54400D03*
X87500Y-54400D03*
X88500Y-54400D03*
X88550Y-50800D03*
X87500Y-50800D03*
X86500Y-50800D03*
X89750Y-54400D03*
X90750Y-54400D03*
X91750Y-54400D03*
X91800Y-50800D03*
X90750Y-50800D03*
X89750Y-50800D03*
X93000Y-55500D03*
X94000Y-55500D03*
X95000Y-55500D03*
X95050Y-51900D03*
X94000Y-51900D03*
X93000Y-51900D03*
G54D26*
X98700Y-51575D03*
X99700Y-51575D03*
X100700Y-51575D03*
G54D19*
X78000Y-47150D03*
X78000Y-45850D03*
X85400Y-47150D03*
X85400Y-45850D03*
X79100Y-47150D03*
X79100Y-45850D03*
X84350Y-47150D03*
X84350Y-45850D03*
X80150Y-47150D03*
X80150Y-45850D03*
X83300Y-47150D03*
X83300Y-45850D03*
X81200Y-47150D03*
X81200Y-45850D03*
X82250Y-47150D03*
X82250Y-45850D03*
G54D15*
X77300Y-33400D03*
G54D16*
X77300Y-37400D03*
G54D15*
X80800Y-37400D03*
G54D16*
X80800Y-33400D03*
G54D15*
X87100Y-33500D03*
G54D16*
X87100Y-37500D03*
G54D15*
X90500Y-37400D03*
G54D16*
X90500Y-33400D03*
G54D15*
X96800Y-33400D03*
G54D16*
X96800Y-37400D03*
G54D15*
X100500Y-37400D03*
G54D16*
X100500Y-33400D03*
G54D15*
X105400Y-33400D03*
G54D16*
X105400Y-37400D03*
G54D15*
X109400Y-37300D03*
G54D16*
X109400Y-33300D03*
G54D27*
X75100Y-41500D03*
G54D28*
X76100Y-41500D03*
X77100Y-41500D03*
X77100Y-38500D03*
X76100Y-38500D03*
X75100Y-38500D03*
G54D27*
X78800Y-41500D03*
G54D28*
X79800Y-41500D03*
X80800Y-41500D03*
X80800Y-38500D03*
X79800Y-38500D03*
X78800Y-38500D03*
G54D27*
X84700Y-41500D03*
G54D28*
X85700Y-41500D03*
X86700Y-41500D03*
X86700Y-38500D03*
X85700Y-38500D03*
X84700Y-38500D03*
G54D27*
X88500Y-41500D03*
G54D28*
X89500Y-41500D03*
X90500Y-41500D03*
X90500Y-38500D03*
X89500Y-38500D03*
X88500Y-38500D03*
G54D27*
X94700Y-41500D03*
G54D28*
X95700Y-41500D03*
X96700Y-41500D03*
X96700Y-38500D03*
X95700Y-38500D03*
X94700Y-38500D03*
G54D27*
X98500Y-41500D03*
G54D28*
X99500Y-41500D03*
X100500Y-41500D03*
X100500Y-38500D03*
X99500Y-38500D03*
X98500Y-38500D03*
G54D27*
X103400Y-41400D03*
G54D28*
X104400Y-41400D03*
X105400Y-41400D03*
X105400Y-38400D03*
X104400Y-38400D03*
X103400Y-38400D03*
G54D27*
X107400Y-41400D03*
G54D28*
X108400Y-41400D03*
X109400Y-41400D03*
X109400Y-38400D03*
X108400Y-38400D03*
X107400Y-38400D03*
M02*
