G04 (created by PCBNEW (2013-07-07 BZR 4022)-stable) date 02/10/2018 19:34:55*
%MOIN*%
G04 Gerber Fmt 3.4, Leading zero omitted, Abs format*
%FSLAX34Y34*%
G01*
G70*
G90*
G04 APERTURE LIST*
%ADD10C,0.00590551*%
%ADD11C,0.015*%
%ADD12O,0.098X0.176*%
%ADD13R,0.08X0.08*%
%ADD14C,0.08*%
%ADD15C,0.1637*%
%ADD16R,0.0791X0.0791*%
%ADD17C,0.0791*%
%ADD18C,0.0987402*%
%ADD19R,0.07X0.058*%
%ADD20C,0.09*%
%ADD21R,0.075X0.075*%
%ADD22C,0.075*%
G04 APERTURE END LIST*
G54D10*
G54D11*
X71500Y-62000D02*
X110900Y-62000D01*
X71500Y-28000D02*
X110900Y-28000D01*
X110900Y-28000D02*
X110800Y-28000D01*
X110900Y-62000D02*
X110900Y-28000D01*
X71500Y-62000D02*
X71500Y-28000D01*
G54D12*
X82000Y-59645D03*
X83515Y-59645D03*
X85031Y-59645D03*
X86547Y-59645D03*
X88062Y-59645D03*
X73500Y-59645D03*
X75015Y-59645D03*
X76531Y-59645D03*
X78047Y-59645D03*
X79562Y-59645D03*
G54D13*
X107400Y-51112D03*
G54D14*
X107400Y-52112D03*
X106400Y-51112D03*
X106400Y-52112D03*
X105400Y-51112D03*
X105400Y-52112D03*
G54D13*
X101375Y-46175D03*
G54D14*
X101375Y-45175D03*
G54D13*
X100375Y-46175D03*
G54D14*
X100375Y-45175D03*
G54D13*
X98375Y-46175D03*
G54D14*
X98375Y-45175D03*
G54D13*
X105725Y-45000D03*
G54D14*
X105725Y-46000D03*
G54D13*
X99375Y-46175D03*
G54D14*
X99375Y-45175D03*
G54D13*
X100725Y-48525D03*
G54D14*
X100725Y-49525D03*
X99725Y-48525D03*
X99725Y-49525D03*
X98725Y-48525D03*
X98725Y-49525D03*
G54D12*
X94400Y-59645D03*
X95915Y-59645D03*
X77290Y-31800D03*
X75320Y-31800D03*
X87090Y-31800D03*
X85120Y-31800D03*
X97190Y-31900D03*
X95220Y-31900D03*
X105790Y-31900D03*
X103820Y-31900D03*
G54D15*
X102738Y-58112D03*
X98065Y-58112D03*
G54D16*
X98650Y-55612D03*
G54D17*
X99150Y-54612D03*
X99650Y-55612D03*
X100150Y-54612D03*
X100650Y-55612D03*
X101150Y-54612D03*
X101650Y-55612D03*
X102150Y-54612D03*
G54D18*
X97650Y-60112D03*
X103100Y-60112D03*
G54D15*
X109338Y-58112D03*
X104665Y-58112D03*
G54D16*
X105250Y-55612D03*
G54D17*
X105750Y-54612D03*
X106250Y-55612D03*
X106750Y-54612D03*
X107250Y-55612D03*
X107750Y-54612D03*
X108250Y-55612D03*
X108750Y-54612D03*
G54D18*
X104250Y-60112D03*
X109700Y-60112D03*
G54D19*
X102600Y-52250D03*
X102600Y-52750D03*
G54D20*
X98700Y-51575D03*
X99700Y-51575D03*
X100700Y-51575D03*
G54D13*
X77300Y-33400D03*
G54D14*
X77300Y-37400D03*
G54D13*
X80800Y-37400D03*
G54D14*
X80800Y-33400D03*
G54D13*
X87100Y-33500D03*
G54D14*
X87100Y-37500D03*
G54D13*
X90500Y-37400D03*
G54D14*
X90500Y-33400D03*
G54D13*
X96800Y-33400D03*
G54D14*
X96800Y-37400D03*
G54D13*
X100500Y-37400D03*
G54D14*
X100500Y-33400D03*
G54D13*
X105400Y-33400D03*
G54D14*
X105400Y-37400D03*
G54D13*
X109400Y-37300D03*
G54D14*
X109400Y-33300D03*
G54D21*
X75100Y-41500D03*
G54D22*
X76100Y-41500D03*
X77100Y-41500D03*
X77100Y-38500D03*
X76100Y-38500D03*
X75100Y-38500D03*
G54D21*
X78800Y-41500D03*
G54D22*
X79800Y-41500D03*
X80800Y-41500D03*
X80800Y-38500D03*
X79800Y-38500D03*
X78800Y-38500D03*
G54D21*
X84700Y-41500D03*
G54D22*
X85700Y-41500D03*
X86700Y-41500D03*
X86700Y-38500D03*
X85700Y-38500D03*
X84700Y-38500D03*
G54D21*
X88500Y-41500D03*
G54D22*
X89500Y-41500D03*
X90500Y-41500D03*
X90500Y-38500D03*
X89500Y-38500D03*
X88500Y-38500D03*
G54D21*
X94700Y-41500D03*
G54D22*
X95700Y-41500D03*
X96700Y-41500D03*
X96700Y-38500D03*
X95700Y-38500D03*
X94700Y-38500D03*
G54D21*
X98500Y-41500D03*
G54D22*
X99500Y-41500D03*
X100500Y-41500D03*
X100500Y-38500D03*
X99500Y-38500D03*
X98500Y-38500D03*
G54D21*
X103400Y-41400D03*
G54D22*
X104400Y-41400D03*
X105400Y-41400D03*
X105400Y-38400D03*
X104400Y-38400D03*
X103400Y-38400D03*
G54D21*
X107400Y-41400D03*
G54D22*
X108400Y-41400D03*
X109400Y-41400D03*
X109400Y-38400D03*
X108400Y-38400D03*
X107400Y-38400D03*
M02*
